<svg width="78" height="95" viewBox="0 0 78 95" fill="none" xmlns="http://www.w3.org/2000/svg">
<path d="M15.2436 47.8265L18.4366 47.7285C18.4366 47.7285 18.2406 49.1535 17.3066 51.4135C16.7246 52.8225 13.4246 55.1975 15.1446 56.2295C16.8646 57.2615 18.6216 50.2225 19.8366 49.8045C21.0166 49.3985 23.7436 50.2345 23.1056 51.4135C22.4656 52.5935 20.7466 51.2665 20.3536 51.8065C19.9596 52.3475 18.6336 58.8335 14.9486 59.0785C11.2636 59.3235 9.78963 57.4565 10.5256 55.6395C11.2626 53.8205 15.2436 47.8265 15.2436 47.8265Z" fill="#CE8E3A"/>
<path d="M50.364 42.8471C53.4181 42.8471 55.894 40.3712 55.894 37.3171C55.894 34.263 53.4181 31.7871 50.364 31.7871C47.3099 31.7871 44.834 34.263 44.834 37.3171C44.834 40.3712 47.3099 42.8471 50.364 42.8471Z" fill="#062C3F"/>
<path d="M50.3637 33.4258L51.5407 35.8098L54.1717 36.1918L52.2677 38.0478L52.7167 40.6688L50.3637 39.4318L48.0097 40.6688L48.4597 38.0478L46.5547 36.1918L49.1867 35.8098L50.3637 33.4258Z" fill="white"/>
<path d="M31.5378 42.1674C34.5919 42.1674 37.0678 39.6916 37.0678 36.6374C37.0678 33.5833 34.5919 31.1074 31.5378 31.1074C28.4837 31.1074 26.0078 33.5833 26.0078 36.6374C26.0078 39.6916 28.4837 42.1674 31.5378 42.1674Z" fill="#4396CA"/>
<path d="M33.9667 34.6325C33.1387 34.1875 32.0527 34.7465 31.5457 35.5175C31.0387 34.7465 29.8967 34.1875 29.0677 34.6325C28.1907 35.1035 27.9837 36.0165 28.4547 36.8935C28.9257 37.7705 31.5407 39.9055 31.5457 39.8795C31.5507 39.9055 34.1657 37.7705 34.6367 36.8935C35.1077 36.0165 34.8437 35.1035 33.9667 34.6325Z" fill="white"/>
<path d="M40.6804 31.433C43.7345 31.433 46.2104 28.9572 46.2104 25.903C46.2104 22.8489 43.7345 20.373 40.6804 20.373C37.6263 20.373 35.1504 22.8489 35.1504 25.903C35.1504 28.9572 37.6263 31.433 40.6804 31.433Z" fill="#025482"/>
<path d="M41.3118 22.8398H40.0508V28.9648H41.3118V22.8398Z" fill="white"/>
<path d="M43.7441 25.2715H37.6191V26.5325H43.7441V25.2715Z" fill="white"/>
<path d="M41.4129 56.3531C45.412 56.3531 48.6539 53.1112 48.6539 49.1121C48.6539 45.113 45.412 41.8711 41.4129 41.8711C37.4138 41.8711 34.1719 45.113 34.1719 49.1121C34.1719 53.1112 37.4138 56.3531 41.4129 56.3531Z" fill="#EAB124"/>
<path d="M45.4436 52.3362H37.5627C37.2377 52.3362 36.9727 52.0722 36.9727 51.7462V46.7072C36.9727 46.3812 37.2377 46.1172 37.5627 46.1172H45.4436C45.7696 46.1172 46.0337 46.3812 46.0337 46.7072V51.7462C46.0337 52.0722 45.7696 52.3362 45.4436 52.3362ZM38.1526 51.1572H44.8546V47.2982H38.1526V51.1572Z" fill="white"/>
<path d="M41.6024 50.2185C42.221 50.2185 42.7224 49.7171 42.7224 49.0985C42.7224 48.48 42.221 47.9785 41.6024 47.9785C40.9839 47.9785 40.4824 48.48 40.4824 49.0985C40.4824 49.7171 40.9839 50.2185 41.6024 50.2185Z" fill="white"/>
<path d="M43.6276 47.1434C43.2206 47.1434 42.8906 46.8134 42.8906 46.4064V45.8034C42.8906 45.3964 43.2206 45.0664 43.6276 45.0664C44.0336 45.0664 44.3636 45.3964 44.3636 45.8034V46.4064C44.3636 46.8134 44.0336 47.1434 43.6276 47.1434Z" fill="white"/>
<path d="M54.4705 29.4313C58.1714 29.4313 61.1715 26.4312 61.1715 22.7303C61.1715 19.0294 58.1714 16.0293 54.4705 16.0293C50.7697 16.0293 47.7695 19.0294 47.7695 22.7303C47.7695 26.4312 50.7697 29.4313 54.4705 29.4313Z" fill="#4396CA"/>
<path d="M51.6915 25.8187C51.5385 25.8187 51.3845 25.7587 51.2695 25.6407C51.0415 25.4077 51.0465 25.0347 51.2795 24.8067L56.7525 19.4707C56.9845 19.2427 57.3585 19.2477 57.5855 19.4807C57.8135 19.7137 57.8095 20.0867 57.5755 20.3147L52.1035 25.6507C51.9885 25.7627 51.8405 25.8187 51.6915 25.8187Z" fill="white"/>
<path d="M52.5018 21.7828C53.2104 21.7828 53.7848 21.2084 53.7848 20.4998C53.7848 19.7912 53.2104 19.2168 52.5018 19.2168C51.7932 19.2168 51.2188 19.7912 51.2188 20.4998C51.2188 21.2084 51.7932 21.7828 52.5018 21.7828Z" fill="white"/>
<path d="M56.6219 25.7711C57.331 25.7711 57.9059 25.1963 57.9059 24.4871C57.9059 23.778 57.331 23.2031 56.6219 23.2031C55.9128 23.2031 55.3379 23.778 55.3379 24.4871C55.3379 25.1963 55.9128 25.7711 56.6219 25.7711Z" fill="white"/>
<path d="M56.6229 25.0212C56.9184 25.0212 57.1579 24.7816 57.1579 24.4862C57.1579 24.1907 56.9184 23.9512 56.6229 23.9512C56.3274 23.9512 56.0879 24.1907 56.0879 24.4862C56.0879 24.7816 56.3274 25.0212 56.6229 25.0212Z" fill="#4396CA"/>
<path d="M52.5018 21.0348C52.7973 21.0348 53.0368 20.7953 53.0368 20.4998C53.0368 20.2044 52.7973 19.9648 52.5018 19.9648C52.2063 19.9648 51.9668 20.2044 51.9668 20.4998C51.9668 20.7953 52.2063 21.0348 52.5018 21.0348Z" fill="#4396CA"/>
<path d="M58.5506 56.027C62.2515 56.027 65.2516 53.0269 65.2516 49.326C65.2516 45.6251 62.2515 42.625 58.5506 42.625C54.8497 42.625 51.8496 45.6251 51.8496 49.326C51.8496 53.0269 54.8497 56.027 58.5506 56.027Z" fill="#025482"/>
<path d="M63.4533 49.7446C63.4533 49.7446 61.6053 52.4736 58.3933 52.2966C55.4443 52.1346 53.8613 49.7446 53.8613 49.7446C53.8613 49.7446 55.1803 46.7526 58.3933 46.6646C62.1333 46.5616 63.4533 49.7446 63.4533 49.7446Z" fill="white"/>
<path d="M58.7447 51.5519C59.8625 51.5519 60.7687 50.6457 60.7687 49.5279C60.7687 48.4101 59.8625 47.5039 58.7447 47.5039C57.6269 47.5039 56.7207 48.4101 56.7207 49.5279C56.7207 50.6457 57.6269 51.5519 58.7447 51.5519Z" fill="#025482"/>
<path d="M40.0392 17.8596C44.1382 17.8596 47.4612 14.5367 47.4612 10.4376C47.4612 6.33857 44.1382 3.01562 40.0392 3.01562C35.9401 3.01562 32.6172 6.33857 32.6172 10.4376C32.6172 14.5367 35.9401 17.8596 40.0392 17.8596Z" fill="#FFCB2F"/>
<path d="M39.8453 11.189C39.8453 10.724 39.8643 10.624 39.3983 10.46C38.4963 10.132 37.8223 9.51196 37.8223 8.51896C37.8223 7.53496 38.4783 6.71396 39.5453 6.51396C39.7183 6.47696 39.8183 6.44096 39.8273 6.20396C39.8373 6.00296 40.1373 6.02196 40.3013 6.02196C40.4843 6.02196 40.4663 6.10396 40.4663 6.24096C40.4663 6.48696 40.7843 6.44996 41.0583 6.49596C41.2043 6.52296 42.1523 6.68696 42.1523 6.89696C42.1523 6.96996 41.7883 8.03596 41.6603 8.03596C41.4413 8.03596 41.2143 7.66196 40.6943 7.66196C40.4663 7.66196 40.5033 7.97196 40.5033 8.11796V8.91096C40.5033 9.33896 40.5303 9.47596 40.9683 9.63996C42.0343 10.014 42.7273 10.706 42.7273 11.828C42.7273 13.122 41.8883 13.997 40.8233 13.997C40.6223 13.997 40.5403 14.143 40.5403 14.362C40.5403 14.59 40.3943 14.544 40.2033 14.544C40.0303 14.544 39.8933 14.59 39.8843 14.389C39.8753 14.088 39.7303 13.997 39.4193 13.997C38.9093 13.997 37.9523 13.551 37.9523 13.377C37.9523 13.168 38.2623 11.937 38.4263 11.937C38.7723 11.937 39.0003 12.475 39.6023 12.475C39.8753 12.475 39.8483 12.22 39.8483 12.037V11.189H39.8453ZM39.8453 8.10796C39.8453 7.84396 39.8913 7.66196 39.6623 7.66196C39.2523 7.66196 39.0523 8.06296 39.0523 8.43596C39.0523 8.85496 39.5083 9.21996 39.6813 9.21996C39.8183 9.21996 39.8453 8.88296 39.8453 8.61896V8.10796ZM40.5023 12.119C40.5023 12.329 40.5023 12.474 40.7673 12.474C41.2043 12.474 41.4963 12.146 41.4963 11.754C41.4963 11.399 40.9763 10.933 40.6853 10.933C40.4843 10.933 40.5023 11.106 40.5023 11.289V12.119Z" fill="white"/>
<path d="M68.7451 42.1798C73.2104 42.1798 76.8301 38.56 76.8301 34.0948C76.8301 29.6295 73.2104 26.0098 68.7451 26.0098C64.2799 26.0098 60.6602 29.6295 60.6602 34.0948C60.6602 38.56 64.2799 42.1798 68.7451 42.1798Z" fill="#B9E8F9"/>
<path d="M72.6746 30.4973C73.0666 30.6273 73.3316 31.4463 73.0396 32.7603C72.7476 34.0743 72.3096 37.0673 72.3096 37.0673H71.2146C71.2146 37.0673 71.7256 33.8553 70.7036 33.5633C69.6816 33.2713 69.0236 37.0673 66.6876 37.0673C64.3516 37.0673 62.8916 37.1403 62.8196 36.4833C62.7466 35.8263 65.9586 35.2423 67.2716 33.5633C69.2146 31.0833 72.0176 30.2783 72.6746 30.4973Z" fill="white"/>
<path d="M69.6447 24.1174C73.7437 24.1174 77.0667 20.7945 77.0667 16.6954C77.0667 12.5964 73.7437 9.27344 69.6447 9.27344C65.5456 9.27344 62.2227 12.5964 62.2227 16.6954C62.2227 20.7945 65.5456 24.1174 69.6447 24.1174Z" fill="#FFD56C"/>
<path d="M73.5758 19.8301H65.5139C65.1879 19.8301 64.9238 19.5661 64.9238 19.2401V14.0861C64.9238 13.7601 65.1879 13.4961 65.5139 13.4961H73.5758C73.9008 13.4961 74.1658 13.7601 74.1658 14.0861V19.2401C74.1658 19.5651 73.9008 19.8301 73.5758 19.8301ZM66.1039 18.6501H72.9858V14.6751H66.1039V18.6501Z" fill="white"/>
<path d="M69.6602 17.7862C69.5352 17.7862 69.4112 17.7472 69.3062 17.6682L65.1602 14.5582L65.8681 13.6152L69.6491 16.4522L73.2091 13.6252L73.9421 14.5492L70.0262 17.6592C69.9192 17.7432 69.7902 17.7862 69.6602 17.7862Z" fill="white"/>
<path d="M26.5721 28.5055C30.5717 28.5055 33.8141 25.2631 33.8141 21.2635C33.8141 17.2638 30.5717 14.0215 26.5721 14.0215C22.5724 14.0215 19.3301 17.2638 19.3301 21.2635C19.3301 25.2631 22.5724 28.5055 26.5721 28.5055Z" fill="#062C3F"/>
<path d="M26.5717 26.4471C23.7147 26.4471 21.3887 24.1221 21.3887 21.2631C21.3887 18.4051 23.7137 16.0801 26.5717 16.0801C29.4297 16.0801 31.7556 18.4051 31.7556 21.2631C31.7556 24.1221 29.4297 26.4471 26.5717 26.4471ZM26.5717 17.2591C24.3647 17.2591 22.5677 19.0551 22.5677 21.2631C22.5677 23.4711 24.3647 25.2671 26.5717 25.2671C28.7797 25.2671 30.5767 23.4711 30.5767 21.2631C30.5767 19.0561 28.7797 17.2591 26.5717 17.2591Z" fill="white"/>
<path d="M26.5727 21.8527C26.4817 21.8527 26.3907 21.8317 26.3077 21.7897L24.5647 20.9107C24.2737 20.7647 24.1567 20.4097 24.3037 20.1187C24.4497 19.8277 24.8037 19.7107 25.0957 19.8577L26.5597 20.5967L28.7327 19.3957C29.0187 19.2387 29.3777 19.3417 29.5347 19.6267C29.6927 19.9117 29.5897 20.2707 29.3047 20.4277L26.8597 21.7797C26.7697 21.8287 26.6717 21.8527 26.5727 21.8527Z" fill="white"/>
<path d="M56.0018 13.402C59.7027 13.402 62.7028 10.4019 62.7028 6.701C62.7028 3.00014 59.7027 0 56.0018 0C52.3009 0 49.3008 3.00014 49.3008 6.701C49.3008 10.4019 52.3009 13.402 56.0018 13.402Z" fill="#A6E2F7"/>
<path d="M57.4659 11.0655C57.3099 11.0655 57.1589 11.0035 57.0489 10.8925L55.6699 9.51452L54.4029 10.7805C54.2449 10.9395 54.0079 10.9935 53.7969 10.9225C53.5839 10.8505 53.4309 10.6635 53.4019 10.4405L52.5599 3.98652C52.5169 3.66352 52.7449 3.36752 53.0679 3.32552C53.3889 3.28252 53.6869 3.51052 53.7289 3.83352L54.4169 9.09952L55.2529 8.26352C55.3639 8.15352 55.5139 8.09052 55.6699 8.09052C55.8259 8.09052 55.9769 8.15352 56.0869 8.26352L57.4659 9.64152L58.1149 8.99252C58.3449 8.76252 58.7189 8.76252 58.9479 8.99252C59.1779 9.22252 59.1779 9.59552 58.9479 9.82552L57.8829 10.8915C57.7719 11.0035 57.6229 11.0655 57.4659 11.0655Z" fill="white"/>
<path d="M58.7013 9.83163C58.5513 9.83163 58.3993 9.77363 58.2843 9.65863C58.0543 9.42863 58.0543 9.05463 58.2843 8.82463L58.9333 8.17563L57.5543 6.79663C57.3243 6.56663 57.3243 6.19263 57.5543 5.96263L58.3913 5.12663L53.1253 4.43963C52.8023 4.39763 52.5743 4.10163 52.6163 3.77863C52.6583 3.45563 52.9563 3.22863 53.2773 3.27063L59.7303 4.11263C59.9533 4.14163 60.1393 4.29463 60.2113 4.50763C60.2833 4.71963 60.2293 4.95563 60.0703 5.11363L58.8033 6.38063L60.1823 7.75963C60.4113 7.98963 60.4113 8.36363 60.1823 8.59363L59.1163 9.65963C59.0033 9.77363 58.8513 9.83163 58.7013 9.83163Z" fill="white"/>
<path d="M14.4563 53.5273L5.61133 54.5593L7.87134 88.1693L10.8443 87.8753C10.6233 84.0423 10.5503 70.1113 10.3283 62.5943C10.2733 60.7183 11.3833 60.4063 11.7293 60.2553C12.8593 59.7643 13.8043 59.3423 15.9293 62.3733C19.3943 67.3113 21.8253 69.2273 23.3003 73.8713C25.6463 81.2603 22.0933 85.2983 22.0933 85.2983L24.5263 87.1053C24.5263 87.1053 25.9403 85.3363 26.6913 82.7903C27.5193 79.9803 27.6363 76.2143 26.3223 72.6193C23.6303 65.2513 14.4563 53.5273 14.4563 53.5273Z" fill="#4396CA"/>
<path d="M10.8888 87.6818L7.85977 87.6738L7.8418 93.8378C7.8408 94.2988 8.21378 94.6738 8.67478 94.6758L13.6898 94.6898C14.8388 94.6928 15.0028 92.7418 12.9648 92.4938C12.3228 92.4148 11.1418 92.1398 10.9828 91.4958C10.5698 89.8228 10.8888 87.6818 10.8888 87.6818Z" fill="#EAB124"/>
<path d="M24.5267 87.1039L22.0937 85.2969L18.4187 90.2449C18.1437 90.6149 18.2207 91.1389 18.5907 91.4139L22.6157 94.4049C23.5387 95.0899 24.8287 93.6179 23.3377 92.2079C22.8677 91.7639 22.0807 90.8409 22.3357 90.2279C22.9977 88.6359 24.5267 87.1039 24.5267 87.1039Z" fill="#EAB124"/>
<path d="M15.0906 55.7733L6.51057 56.5893C5.62657 56.6733 4.84359 56.0263 4.75859 55.1423L2.41359 42.8873C2.32959 42.0043 2.97658 41.2203 3.86058 41.1363L13.9646 39.6203C15.6846 39.5713 16.8416 41.0773 16.9256 41.9603L16.5366 54.0213C16.6226 54.9053 15.9736 55.6893 15.0906 55.7733Z" fill="#062C3F"/>
<path d="M12.0977 39.9643L12.6526 48.9783L19.1737 48.3173C19.1737 48.3173 17.7257 42.4873 17.0617 40.6513C16.7447 39.7763 15.3407 39.5703 14.3587 39.5703C13.5487 39.5713 12.0977 39.9643 12.0977 39.9643Z" fill="#062C3F"/>
<path d="M10.3719 35.6269L7.14844 36.1133L7.90772 41.1453L11.1312 40.6589L10.3719 35.6269Z" fill="#D8A252"/>
<path d="M8.53275 38.5147C10.7308 38.5147 12.5127 36.7328 12.5127 34.5347C12.5127 32.3366 10.7308 30.5547 8.53275 30.5547C6.33465 30.5547 4.55273 32.3366 4.55273 34.5347C4.55273 36.7328 6.33465 38.5147 8.53275 38.5147Z" fill="#D8A252"/>
<path d="M4.68881 37.1569C5.27202 37.1569 5.74481 36.6841 5.74481 36.1009C5.74481 35.5177 5.27202 35.0449 4.68881 35.0449C4.1056 35.0449 3.63281 35.5177 3.63281 36.1009C3.63281 36.6841 4.1056 37.1569 4.68881 37.1569Z" fill="#D8A252"/>
<path d="M60.4821 85.8722H40.2571C37.7701 85.8722 35.7461 83.8492 35.7461 81.3612V81.2942C35.7461 78.8072 37.7691 76.7832 40.2571 76.7832H60.4821C61.1331 76.7832 61.6611 77.3112 61.6611 77.9622C61.6611 78.6132 61.1341 79.1412 60.4821 79.1412H40.2571C39.0701 79.1412 38.1051 80.1062 38.1051 81.2932V81.3602C38.1051 82.5472 39.0711 83.5122 40.2571 83.5122H60.4821C61.1331 83.5122 61.6611 84.0402 61.6611 84.6912C61.6611 85.3432 61.1331 85.8722 60.4821 85.8722Z" fill="#4396CA"/>
<path d="M38.1978 79.1216C37.8178 79.1216 37.4678 78.8746 37.3508 78.4926L31.1738 58.0586H65.6528L61.7518 78.4026C61.6598 78.8816 61.1978 79.1976 60.7168 79.1046C60.2378 79.0126 59.9228 78.5486 60.0148 78.0686L63.5128 59.8266H33.5578L39.0448 77.9796C39.1868 78.4466 38.9218 78.9406 38.4538 79.0826C38.3688 79.1086 38.2828 79.1216 38.1978 79.1216Z" fill="#4396CA"/>
<path d="M32.3649 59.8294C32.0009 59.8294 31.661 59.6035 31.532 59.2425L29.5569 53.7075H25.0959C24.6069 53.7075 24.2109 53.3115 24.2109 52.8235C24.2109 52.3355 24.6069 51.9395 25.0959 51.9395H30.8039L33.1969 58.6484C33.3609 59.1084 33.1219 59.6145 32.6619 59.7785C32.5629 59.8125 32.4639 59.8294 32.3649 59.8294Z" fill="#4396CA"/>
<path d="M25.0881 54.2957H20.3021C19.4881 54.2957 18.8281 53.6357 18.8281 52.8217C18.8281 52.0077 19.4871 51.3477 20.3021 51.3477H25.0881C25.9021 51.3477 26.5631 52.0077 26.5631 52.8217C26.5631 53.6357 25.9021 54.2957 25.0881 54.2957Z" fill="#4396CA"/>
<path d="M39.7141 94.7291C41.9531 94.7291 43.7682 92.9141 43.7682 90.6751C43.7682 88.4361 41.9531 86.6211 39.7141 86.6211C37.4752 86.6211 35.6602 88.4361 35.6602 90.6751C35.6602 92.9141 37.4752 94.7291 39.7141 94.7291Z" fill="#A6E2F7"/>
<path d="M58.7786 94.7291C61.0176 94.7291 62.8326 92.9141 62.8326 90.6751C62.8326 88.4361 61.0176 86.6211 58.7786 86.6211C56.5396 86.6211 54.7246 88.4361 54.7246 90.6751C54.7246 92.9141 56.5396 94.7291 58.7786 94.7291Z" fill="#A6E2F7"/>
<path d="M39.7143 92.5672C40.7592 92.5672 41.6063 91.7201 41.6063 90.6752C41.6063 89.6303 40.7592 88.7832 39.7143 88.7832C38.6693 88.7832 37.8223 89.6303 37.8223 90.6752C37.8223 91.7201 38.6693 92.5672 39.7143 92.5672Z" fill="white"/>
<path d="M58.976 92.5672C60.0209 92.5672 60.868 91.7201 60.868 90.6752C60.868 89.6303 60.0209 88.7832 58.976 88.7832C57.9311 88.7832 57.084 89.6303 57.084 90.6752C57.084 91.7201 57.9311 92.5672 58.976 92.5672Z" fill="white"/>
<path d="M42.2673 78.6352C41.8453 78.6352 41.4713 78.3322 41.3973 77.9022L38.2513 59.8192C38.1683 59.3382 38.4903 58.8802 38.9723 58.7962C39.4513 58.7132 39.9103 59.0352 39.9943 59.5162L43.1403 77.5992C43.2233 78.0802 42.9013 78.5382 42.4193 78.6222C42.3693 78.6312 42.3183 78.6352 42.2673 78.6352Z" fill="#4396CA"/>
<path d="M46.6899 78.2435C46.2279 78.2435 45.8389 77.8845 45.8079 77.4165L44.6289 59.5305C44.5969 59.0435 44.9649 58.6215 45.4529 58.5905C45.9439 58.5525 46.3609 58.9275 46.3929 59.4145L47.5719 77.3005C47.6039 77.7875 47.2349 78.2095 46.7479 78.2405C46.7289 78.2425 46.7099 78.2435 46.6899 78.2435Z" fill="#4396CA"/>
<path d="M55.9289 78.6349C55.8839 78.6349 55.8369 78.6319 55.7899 78.6249C55.3079 78.5479 54.9779 78.0959 55.0539 77.6129L57.9049 59.5299C57.9809 59.0479 58.4329 58.7189 58.9169 58.7939C59.3989 58.8709 59.7289 59.3229 59.6529 59.8059L56.8019 77.8889C56.7339 78.3239 56.3569 78.6349 55.9289 78.6349Z" fill="#4396CA"/>
<path d="M51.2123 78.2427C51.1963 78.2427 51.1823 78.2427 51.1673 78.2417C50.6803 78.2177 50.3033 77.8027 50.3273 77.3147L51.2123 59.4287C51.2363 58.9407 51.6563 58.5587 52.1393 58.5897C52.6273 58.6137 53.0033 59.0287 52.9793 59.5167L52.0943 77.4027C52.0713 77.8747 51.6793 78.2427 51.2123 78.2427Z" fill="#4396CA"/>
<path d="M62.6118 66.0561H34.3088C33.8208 66.0561 33.4238 65.6601 33.4238 65.1721C33.4238 64.6831 33.8198 64.2871 34.3088 64.2871H62.6118C63.1008 64.2871 63.4968 64.6831 63.4968 65.1721C63.4968 65.6601 63.1008 66.0561 62.6118 66.0561Z" fill="#4396CA"/>
<path d="M61.6282 72.3471H36.6662C36.1782 72.3471 35.7812 71.9511 35.7812 71.4621C35.7812 70.9731 36.1772 70.5781 36.6662 70.5781H61.6282C62.1162 70.5781 62.5132 70.9741 62.5132 71.4621C62.5132 71.9501 62.1162 72.3471 61.6282 72.3471Z" fill="#4396CA"/>
<path d="M1.82812 49.1522C1.82812 49.1522 5.12112 48.0712 5.12112 48.4152C5.12112 48.7592 3.67713 54.7072 8.21613 55.5892C12.3931 56.4002 15.9721 50.7002 17.3561 50.3312C18.8311 49.9382 20.9931 50.3312 21.3361 51.2652C21.6801 52.1992 20.8451 52.7392 19.8621 52.2482C18.8791 51.7572 17.9591 51.7252 17.6011 52.0022C17.2301 52.2912 13.3201 59.3612 6.88913 58.3902C3.47413 57.8742 1.97512 53.8202 1.82812 49.1522Z" fill="#D8A252"/>
<path d="M9.27136 41.5915C10.7642 41.5915 11.9744 40.3814 11.9744 38.8885C11.9744 37.3957 10.7642 36.1855 9.27136 36.1855C7.77854 36.1855 6.56836 37.3957 6.56836 38.8885C6.56836 40.3814 7.77854 41.5915 9.27136 41.5915Z" fill="#D8A252"/>
<path d="M5.43494 41.8023C7.21094 43.8913 6.10394 50.2863 6.10394 50.2863L0.960938 50.0623C0.960938 50.0623 0.984948 44.3473 1.49695 42.5293C1.98095 40.8103 4.68794 40.9233 5.43494 41.8023Z" fill="#0B465E"/>
<path d="M4.57976 35.0017C4.57976 33.8217 3.79379 30.5297 7.28179 29.8917C9.80279 29.4297 9.96379 29.9847 11.3978 29.3507C12.9818 28.6507 12.4488 27.9887 12.5888 27.8767C12.8338 27.6797 13.3748 28.3317 13.5708 29.4607C13.7578 30.5297 13.5218 31.9547 12.0968 32.7897C10.6708 33.6247 9.14878 33.0357 7.62478 33.5757C6.10078 34.1157 7.39479 35.6287 7.42779 36.0327C7.46179 36.4367 6.45677 36.8797 6.24877 36.1307C5.75877 34.3627 4.57976 35.0017 4.57976 35.0017Z" fill="#824A07"/>
</svg>
