<svg width="103" height="100" viewBox="0 0 103 100" fill="none" xmlns="http://www.w3.org/2000/svg">
<path d="M96.1279 84.1217H64.0859V42.3438H80.6959C83.0559 42.3438 85.2239 43.6457 86.3319 45.7297L101.764 74.7418C104.026 78.9938 100.944 84.1217 96.1279 84.1217Z" fill="#4396CA"/>
<path d="M6.75163 29.0098H60.9756C62.6936 29.0098 64.0866 30.4038 64.0866 32.1208V84.1218H3.64062V32.1208C3.64062 30.4038 5.03263 29.0098 6.75163 29.0098Z" fill="#68CEEA"/>
<path d="M2.57533 73.5352H64.2833V84.2002H0.736328V75.3741C0.736328 74.3581 1.55933 73.5352 2.57533 73.5352Z" fill="#54C3DD"/>
<path d="M68.4609 47.957H78.3839C79.6609 47.957 80.8319 48.664 81.4259 49.794L88.2409 62.742C88.7429 63.697 88.0519 64.844 86.9719 64.844H68.9049L68.4609 47.957Z" fill="white"/>
<path d="M83.1011 99.2843C91.2826 99.2843 97.9151 92.6518 97.9151 84.4703C97.9151 76.2887 91.2826 69.6562 83.1011 69.6562C74.9196 69.6562 68.2871 76.2887 68.2871 84.4703C68.2871 92.6518 74.9196 99.2843 83.1011 99.2843Z" fill="#1F83B5"/>
<path d="M83.2479 96.0251C89.7113 96.0251 94.9509 90.7855 94.9509 84.3221C94.9509 77.8588 89.7113 72.6191 83.2479 72.6191C76.7845 72.6191 71.5449 77.8588 71.5449 84.3221C71.5449 90.7855 76.7845 96.0251 83.2479 96.0251Z" fill="#062C3F"/>
<path d="M17.7723 96.0251C22.7628 96.0251 26.8083 91.9796 26.8083 86.9891C26.8083 81.9987 22.7628 77.9531 17.7723 77.9531C12.7819 77.9531 8.73633 81.9987 8.73633 86.9891C8.73633 91.9796 12.7819 96.0251 17.7723 96.0251Z" fill="#062C3F"/>
<path d="M83.2482 88.3304C85.4618 88.3304 87.2562 86.536 87.2562 84.3224C87.2562 82.1089 85.4618 80.3145 83.2482 80.3145C81.0347 80.3145 79.2402 82.1089 79.2402 84.3224C79.2402 86.536 81.0347 88.3304 83.2482 88.3304Z" fill="#CECAC6"/>
<path d="M17.7727 90.2484C19.5726 90.2484 21.0317 88.7893 21.0317 86.9894C21.0317 85.1895 19.5726 83.7305 17.7727 83.7305C15.9728 83.7305 14.5137 85.1895 14.5137 86.9894C14.5137 88.7893 15.9728 90.2484 17.7727 90.2484Z" fill="#CECAC6"/>
<path d="M33.9184 69.0633C43.4088 69.0633 51.1024 61.3698 51.1024 51.8793C51.1024 42.3889 43.4088 34.6953 33.9184 34.6953C24.4279 34.6953 16.7344 42.3889 16.7344 51.8793C16.7344 61.3698 24.4279 69.0633 33.9184 69.0633Z" fill="#ABEDFF"/>
<path d="M34.5393 23.1197C40.7128 23.1197 45.7173 18.1151 45.7173 11.9417C45.7173 5.76821 40.7128 0.763672 34.5393 0.763672C28.3659 0.763672 23.3613 5.76821 23.3613 11.9417C23.3613 18.1151 28.3659 23.1197 34.5393 23.1197Z" fill="#FFCB2F"/>
<path d="M35.0349 19.021C34.8269 19.229 34.4939 19.255 34.2549 19.072C33.9949 18.872 33.9469 18.501 34.1469 18.241L40.0319 10.59H37.2639C37.1069 10.59 36.9559 10.528 36.8449 10.417C36.7339 10.306 36.6709 10.155 36.6709 9.99796V6.35397H34.7489C34.4219 6.35397 34.1569 6.08796 34.1569 5.76096C34.1569 5.43396 34.4219 5.16797 34.7489 5.16797H37.2639C37.4209 5.16797 37.5719 5.23095 37.6829 5.34195C37.7939 5.45295 37.8569 5.60396 37.8569 5.76096V9.40497H41.2359C41.4619 9.40497 41.6679 9.53296 41.7679 9.73596C41.8679 9.93796 41.8439 10.1799 41.7059 10.3589L35.0869 18.963C35.0699 18.984 35.0529 19.003 35.0349 19.021Z" fill="white"/>
<path d="M34.9036 19.019C34.8856 19.038 34.8656 19.054 34.8446 19.071C34.5856 19.27 34.2136 19.221 34.0136 18.963L27.3946 10.359C27.2566 10.179 27.2326 9.93799 27.3326 9.73599C27.4326 9.53299 27.6386 9.40497 27.8646 9.40497H31.2436V5.76099C31.2436 5.43399 31.5086 5.16797 31.8356 5.16797H34.3506C34.6786 5.16797 34.9436 5.43399 34.9436 5.76099C34.9436 6.08799 34.6776 6.35397 34.3506 6.35397H32.4286V9.99799C32.4286 10.155 32.3656 10.306 32.2546 10.417C32.1436 10.528 31.9926 10.591 31.8356 10.591L29.0676 10.59L34.9526 18.241C35.1366 18.478 35.1106 18.812 34.9036 19.019Z" fill="white"/>
<path d="M17.006 48.9719C16.361 49.6929 15.538 53.5329 17.006 54.0039C18.473 54.4759 19.656 55.024 19.971 56.281C20.286 57.538 21.397 61.8469 22.236 63.1579C23.074 64.4679 25.269 64.9749 25.865 62.9679C26.253 61.6599 26.179 60.1369 26.651 59.3509C27.123 58.5649 25.445 56.5729 26.86 56.1539C28.276 55.7349 29.901 55.0009 29.009 53.8469C28.118 52.6949 26.965 53.1659 26.545 51.7499C26.126 50.3349 25.811 49.234 26.178 49.234C26.545 49.234 26.44 52.0639 28.012 52.3269C29.585 52.5889 30.362 52.561 31.052 51.174C31.202 50.873 29.06 49.2869 29.375 48.9719C29.689 48.6579 30.371 49.6539 31.629 49.7589C32.887 49.8629 34.093 50.3349 34.197 51.2269C34.302 52.1179 35.405 54.2859 35.979 54.2139C37.478 54.0279 35.612 52.0649 36.451 51.3839C37.289 50.7019 37.657 50.2819 38.652 50.9639C39.648 51.6459 39.7 52.7459 39.648 53.4809C39.595 54.2139 40.217 55.9849 40.794 56.5609C41.371 57.1379 42.426 58.2499 43.37 57.7789C44.313 57.3069 43.265 57.0539 42.479 56.5259C41.693 55.9969 40.906 53.7959 41.483 53.4809C42.06 53.1659 43.16 53.061 42.479 52.118C41.797 51.175 41.902 50.8599 42.426 50.5969C42.95 50.3349 44.208 49.742 44.104 48.911C43.999 48.081 42.951 47.033 43.475 46.613C43.999 46.194 44.786 47.347 45.362 46.613C45.939 45.88 45.676 43.9399 45.362 42.6299C45.048 41.3199 42.479 41.3719 42.846 40.4809C43.213 39.5899 42.899 39.1189 41.588 38.5419C40.277 37.9659 38.81 37.9129 37.552 38.5419C36.294 39.1709 35.875 38.699 34.774 39.014C33.673 39.328 33.568 39.8529 33.045 40.1159C32.521 40.3779 31.787 40.5869 30.686 40.4289C29.585 40.2709 28.956 38.9089 27.646 40.0629C26.335 41.2159 27.017 43.47 24.763 43.156C22.509 42.841 20.622 42.9459 20.517 43.9939C20.412 45.0429 21.041 45.9859 19.888 46.5109C18.735 47.0339 17.897 47.9769 17.006 48.9719Z" fill="white"/>
<path d="M27.5922 60.4009C27.9352 59.7009 28.6932 58.5659 28.9552 58.9849C29.2172 59.4049 29.8462 61.6589 28.9552 62.0259C28.0642 62.3919 27.2952 61.0069 27.5922 60.4009Z" fill="white"/>
<path d="M42.4553 61.9345C43.1633 61.2355 43.8183 61.3045 44.6043 60.3615C45.3903 59.4185 45.7573 58.5275 46.4913 58.8415C47.2243 59.1555 48.0113 59.8375 48.7973 59.3655C49.5833 58.8935 50.6693 59.5015 50.4073 61.3355C50.1453 63.1705 49.3453 64.8005 48.6113 65.7435C47.8773 66.6865 46.0193 67.1755 45.6523 66.3365C45.2853 65.4985 45.3903 64.6075 44.9183 64.2395C44.4463 63.8735 42.9263 64.8685 42.4553 64.6595C41.9833 64.4505 41.7313 62.6485 42.4553 61.9345Z" fill="white"/>
<path d="M42.8995 55.2096C43.0245 55.0246 43.6855 53.6886 44.3665 54.1086C45.0485 54.5276 45.0485 56.2566 44.3665 56.5196C43.6855 56.7826 42.4725 55.8366 42.8995 55.2096Z" fill="white"/>
<path d="M47.932 56.5669C48.524 56.5239 50.122 56.7839 50.364 57.8329C50.606 58.8809 50.291 58.7759 49.924 58.5139C49.557 58.2509 47.127 56.6239 47.932 56.5669Z" fill="white"/>
</svg>
