<svg width="88" height="103" viewBox="0 0 88 103" fill="none" xmlns="http://www.w3.org/2000/svg">
<path d="M87.3314 102.647H0.693359L5.17734 42.2191C5.35234 39.8601 7.31734 38.0352 9.68234 38.0352H75.8214C79.6314 38.0352 82.7963 40.9751 83.0753 44.7751L87.3314 102.647Z" fill="#FCB515"/>
<path d="M83.4974 102.647H4.52539L6.27139 42.4221C6.34139 39.9791 8.34241 38.0352 10.7864 38.0352H74.5584C78.4944 38.0352 81.7144 41.1651 81.8294 45.0981L83.4974 102.647Z" fill="#FFCB2F"/>
<path d="M56.1933 42.6634H30.4453V31.7234C30.4453 24.7224 36.1403 19.0273 43.1413 19.0273C50.1343 19.0273 55.8253 24.7124 55.8363 31.7024L56.1933 42.6634ZM33.0163 40.0914H53.5373L53.2663 31.7224C53.2663 26.1394 48.7243 21.5974 43.1413 21.5974C37.5583 21.5974 33.0163 26.1394 33.0163 31.7224V40.0914Z" fill="#FFCB2F"/>
<path d="M43.507 97.8168C56.2836 97.8168 66.6411 87.4594 66.6411 74.6828C66.6411 61.9063 56.2836 51.5488 43.507 51.5488C30.7305 51.5488 20.373 61.9063 20.373 74.6828C20.373 87.4594 30.7305 97.8168 43.507 97.8168Z" fill="#4396CA"/>
<path d="M21.0331 69.2852C20.1951 70.2222 19.1251 75.2142 21.0331 75.8272C22.9411 76.4402 24.4791 77.1512 24.8881 78.7872C25.2961 80.4232 26.7421 86.0232 27.8311 87.7262C28.9211 89.4302 31.7731 90.0892 32.5491 87.4792C33.0541 85.7802 32.9581 83.7992 33.5711 82.7772C34.1831 81.7562 32.0041 79.1662 33.8431 78.6212C35.6821 78.0762 37.7951 77.1222 36.6371 75.6232C35.4781 74.1242 33.9791 74.7372 33.4341 72.8972C32.8891 71.0562 32.4801 69.6262 32.9571 69.6262C33.4341 69.6262 33.2971 73.3062 35.3421 73.6472C37.3861 73.9882 38.3971 73.9532 39.2941 72.1482C39.4881 71.7572 36.7041 69.6952 37.1131 69.2862C37.5221 68.8782 38.4081 70.1722 40.0431 70.3082C41.6791 70.4452 43.2461 71.0572 43.3831 72.2162C43.5191 73.3742 44.9521 76.1932 45.6991 76.1002C47.6481 75.8592 45.2221 73.3062 46.3121 72.4202C47.4031 71.5342 47.8791 70.9892 49.1741 71.8752C50.4691 72.7612 50.5361 74.1912 50.4691 75.1462C50.4011 76.1002 51.2081 78.4022 51.9581 79.1512C52.7071 79.9012 54.0801 81.3472 55.3071 80.7342C56.5341 80.1212 55.1701 79.7932 54.1491 79.1052C53.1271 78.4172 52.1041 75.5552 52.8541 75.1462C53.6031 74.7382 55.0351 74.6012 54.1491 73.3752C53.2621 72.1482 53.3991 71.7392 54.0811 71.3982C54.7631 71.0572 56.3971 70.2862 56.2621 69.2072C56.1251 68.1282 54.7631 66.7662 55.4441 66.2202C56.1261 65.6752 57.1481 67.1742 57.8971 66.2202C58.6471 65.2662 58.3061 62.7452 57.8971 61.0412C57.4891 59.3382 54.1501 59.4052 54.6261 58.2472C55.1041 57.0892 54.6941 56.4762 52.9901 55.7262C51.2871 54.9772 49.3791 54.9092 47.7431 55.7262C46.1081 56.5442 45.5631 55.9312 44.1321 56.3392C42.7011 56.7482 42.5651 57.4302 41.8831 57.7712C41.2021 58.1122 40.2481 58.3842 38.8171 58.1792C37.3861 57.9752 36.5691 56.2032 34.8651 57.7022C33.1621 59.2012 34.0481 62.1322 31.1171 61.7232C28.1871 61.3142 25.7341 61.4512 25.5971 62.8132C25.4611 64.1762 26.2791 65.4032 24.7801 66.0842C23.2811 66.7652 22.1921 67.9912 21.0331 69.2852Z" fill="#ABEFEA"/>
<path d="M34.7995 84.1412C35.2445 83.2322 36.2305 81.7562 36.5705 82.3012C36.9105 82.8462 37.7285 85.7772 36.5705 86.2532C35.4125 86.7312 34.4125 84.9302 34.7995 84.1412Z" fill="#ABEFEA"/>
<path d="M54.1188 86.136C55.0388 85.227 55.8898 85.318 56.9128 84.091C57.9358 82.864 58.4118 81.706 59.3658 82.115C60.3198 82.523 61.3428 83.409 62.3638 82.796C63.3858 82.183 64.7978 82.973 64.4568 85.359C64.1168 87.744 63.0768 89.862 62.1228 91.088C61.1688 92.314 58.7528 92.949 58.2758 91.859C57.7978 90.769 57.9348 89.61 57.3218 89.133C56.7088 88.655 54.7318 89.95 54.1188 89.678C53.5058 89.406 53.1768 87.065 54.1188 86.136Z" fill="#ABEFEA"/>
<path d="M54.6953 77.394C54.8573 77.155 55.7173 75.417 56.6033 75.963C57.4893 76.508 57.4893 78.756 56.6033 79.097C55.7173 79.438 54.1413 78.209 54.6953 77.394Z" fill="#ABEFEA"/>
<path d="M61.239 79.1562C62.008 79.1002 64.086 79.4381 64.399 80.8021C64.713 82.1651 64.305 82.0292 63.828 81.6882C63.351 81.3462 60.191 79.2322 61.239 79.1562Z" fill="#ABEFEA"/>
<path d="M35.2948 10.2223C37.7303 10.2223 39.7048 8.24792 39.7048 5.81235C39.7048 3.37677 37.7303 1.40234 35.2948 1.40234C32.8592 1.40234 30.8848 3.37677 30.8848 5.81235C30.8848 8.24792 32.8592 10.2223 35.2948 10.2223Z" fill="#4396CA"/>
<path d="M34.9017 7.60046C34.7757 7.60046 34.6497 7.55846 34.5457 7.47546L32.9407 6.19146C32.6947 5.99446 32.6547 5.63449 32.8517 5.38849C33.0477 5.14149 33.4087 5.10249 33.6547 5.29849L34.9227 6.31347L37.3817 4.55746C37.6377 4.37446 37.9947 4.43349 38.1787 4.69049C38.3627 4.94749 38.3027 5.30348 38.0457 5.48748L35.2347 7.49447C35.1347 7.56547 35.0177 7.60046 34.9017 7.60046Z" fill="white"/>
<path d="M23.4522 35.713C26.3296 35.713 28.6622 33.3804 28.6622 30.503C28.6622 27.6256 26.3296 25.293 23.4522 25.293C20.5748 25.293 18.2422 27.6256 18.2422 30.503C18.2422 33.3804 20.5748 35.713 23.4522 35.713Z" fill="#FFCB2F"/>
<path d="M23.4513 26.8359L24.5593 29.0819L27.0393 29.4429L25.2453 31.192L25.6683 33.6609L23.4513 32.4949L21.2333 33.6609L21.6573 31.192L19.8633 29.4429L22.3423 29.0819L23.4513 26.8359Z" fill="white"/>
<path d="M43.3566 36.262C46.8801 36.262 49.7366 33.4055 49.7366 29.882C49.7366 26.3584 46.8801 23.502 43.3566 23.502C39.833 23.502 36.9766 26.3584 36.9766 29.882C36.9766 33.4055 39.833 36.262 43.3566 36.262Z" fill="#4396CA"/>
<path d="M46.1581 27.5712C45.2021 27.0572 43.9491 27.7022 43.3651 28.5922C42.7801 27.7022 41.4621 27.0582 40.5061 27.5712C39.4941 28.1142 39.2561 29.1682 39.7991 30.1792C40.3421 31.1902 43.3601 33.6542 43.3651 33.6232C43.3701 33.6532 46.3871 31.1892 46.9301 30.1792C47.4731 29.1672 47.1691 28.1142 46.1581 27.5712Z" fill="white"/>
<path d="M55.5195 23.2539C58.0738 23.2539 60.1445 21.1832 60.1445 18.6289C60.1445 16.0746 58.0738 14.0039 55.5195 14.0039C52.9652 14.0039 50.8945 16.0746 50.8945 18.6289C50.8945 21.1832 52.9652 23.2539 55.5195 23.2539Z" fill="#025482"/>
<path d="M56.0472 16.0684H54.9922V21.1904H56.0472V16.0684Z" fill="white"/>
<path d="M58.081 18.1016H52.959V19.1566H58.081V18.1016Z" fill="white"/>
<path d="M43.6669 4.93936C44.8853 4.93936 45.8729 3.95171 45.8729 2.73337C45.8729 1.51503 44.8853 0.527344 43.6669 0.527344C42.4486 0.527344 41.4609 1.51503 41.4609 2.73337C41.4609 3.95171 42.4486 4.93936 43.6669 4.93936Z" fill="#FFCB2F"/>
<path d="M43.919 1.51172H43.416V3.95471H43.919V1.51172Z" fill="white"/>
<path d="M44.8873 2.48242H42.4453V2.98642H44.8873V2.48242Z" fill="white"/>
<path d="M66.7145 22.0501C68.8231 22.0501 70.5325 20.3407 70.5325 18.2321C70.5325 16.1234 68.8231 14.4141 66.7145 14.4141C64.6059 14.4141 62.8965 16.1234 62.8965 18.2321C62.8965 20.3407 64.6059 22.0501 66.7145 22.0501Z" fill="#062C3F"/>
<path d="M68.8393 20.1935H64.6843C64.3693 20.1935 64.1133 19.9375 64.1133 19.6225V16.9655C64.1133 16.6505 64.3693 16.3945 64.6843 16.3945H68.8393C69.1543 16.3945 69.4103 16.6505 69.4103 16.9655V19.6225C69.4113 19.9375 69.1553 20.1935 68.8393 20.1935ZM65.2553 19.0505H68.2683V17.5365H65.2553V19.0505Z" fill="white"/>
<path d="M66.8146 18.8148C67.1405 18.8148 67.4046 18.5506 67.4046 18.2248C67.4046 17.8989 67.1405 17.6348 66.8146 17.6348C66.4888 17.6348 66.2246 17.8989 66.2246 18.2248C66.2246 18.5506 66.4888 18.8148 66.8146 18.8148Z" fill="white"/>
<path d="M67.88 17.5194C67.485 17.5194 67.166 17.2004 67.166 16.8054V16.4874C67.166 16.0924 67.485 15.7734 67.88 15.7734C68.275 15.7734 68.595 16.0924 68.595 16.4874V16.8054C68.595 17.2004 68.275 17.5194 67.88 17.5194Z" fill="white"/>
<path d="M44.804 17.6314C47.8714 17.6314 50.358 15.1448 50.358 12.0774C50.358 9.01003 47.8714 6.52344 44.804 6.52344C41.7366 6.52344 39.25 9.01003 39.25 12.0774C39.25 15.1448 41.7366 17.6314 44.804 17.6314Z" fill="#FFD56C"/>
<path d="M48.867 12.4242C48.867 12.4242 47.336 14.6852 44.673 14.5392C42.229 14.4052 40.916 12.4242 40.916 12.4242C40.916 12.4242 42.011 9.94415 44.673 9.87115C47.773 9.78615 48.867 12.4242 48.867 12.4242Z" fill="white"/>
<path d="M44.9632 13.9244C45.8899 13.9244 46.6412 13.1731 46.6412 12.2464C46.6412 11.3196 45.8899 10.5684 44.9632 10.5684C44.0364 10.5684 43.2852 11.3196 43.2852 12.2464C43.2852 13.1731 44.0364 13.9244 44.9632 13.9244Z" fill="#FFD56C"/>
<path d="M51.305 7.17633C53.2446 7.17633 54.817 5.60396 54.817 3.66434C54.817 1.72471 53.2446 0.152344 51.305 0.152344C49.3653 0.152344 47.793 1.72471 47.793 3.66434C47.793 5.60396 49.3653 7.17633 51.305 7.17633Z" fill="#CDEEFC"/>
<path d="M53.011 2.10082C53.182 2.15782 53.297 2.51282 53.17 3.08382C53.043 3.65382 52.853 4.95483 52.853 4.95483H52.377C52.377 4.95483 52.599 3.55882 52.155 3.43282C51.711 3.30582 51.426 4.95483 50.41 4.95483C49.395 4.95483 48.762 4.98683 48.729 4.70083C48.698 4.41583 50.093 4.16185 50.664 3.43185C51.508 2.35585 52.726 2.00582 53.011 2.10082Z" fill="white"/>
<path d="M27.7354 24.2168C31.9697 24.2168 35.4023 20.7842 35.4023 16.5498C35.4023 12.3154 31.9697 8.88281 27.7354 8.88281C23.501 8.88281 20.0684 12.3154 20.0684 16.5498C20.0684 20.7842 23.501 24.2168 27.7354 24.2168Z" fill="#062C3F"/>
<path d="M31.7965 19.7483H23.4675C23.1525 19.7483 22.8965 19.4923 22.8965 19.1773V13.8523C22.8965 13.5373 23.1525 13.2812 23.4675 13.2812H31.7965C32.1115 13.2812 32.3675 13.5373 32.3675 13.8523V19.1773C32.3675 19.4933 32.1115 19.7483 31.7965 19.7483ZM24.0385 18.6063H31.2255V14.4233H24.0385V18.6063Z" fill="white"/>
<path d="M27.751 17.6365C27.63 17.6365 27.51 17.5995 27.408 17.5225L23.125 14.3095L23.811 13.3965L27.742 16.3445L31.442 13.4055L32.153 14.3005L28.107 17.5145C28.002 17.5955 27.877 17.6365 27.751 17.6365Z" fill="white"/>
<path d="M61.011 13.9459C63.8487 13.9459 66.149 11.6456 66.149 8.80792C66.149 5.97028 63.8487 3.66992 61.011 3.66992C58.1734 3.66992 55.873 5.97028 55.873 8.80792C55.873 11.6456 58.1734 13.9459 61.011 13.9459Z" fill="#062C3F"/>
<path d="M61.0092 12.6396C58.9312 12.6396 57.2132 10.9486 57.1802 8.86957C57.1642 7.84657 57.5472 6.87858 58.2592 6.14258C58.9712 5.40658 59.9262 4.99457 60.9492 4.97757L61.0112 4.97656C63.0892 4.97656 64.8072 6.66758 64.8412 8.74658C64.8572 9.76958 64.4742 10.7376 63.7622 11.4736C63.0502 12.2096 62.0952 12.6216 61.0722 12.6386L61.0092 12.6396ZM61.0112 6.12057L60.9682 6.12158C60.2492 6.13358 59.5792 6.42357 59.0792 6.93857C58.5792 7.45357 58.3102 8.13356 58.3222 8.85156C58.3452 10.3106 59.5512 11.4976 61.0092 11.4976L61.0532 11.4966C61.7712 11.4856 62.4422 11.1946 62.9422 10.6796C63.4412 10.1636 63.7102 9.48457 63.6992 8.76657C63.6752 7.30757 62.4702 6.12057 61.0112 6.12057Z" fill="white"/>
<path d="M61.0108 9.37846C60.9258 9.37846 60.8408 9.35945 60.7618 9.32045L59.5158 8.71647C59.2318 8.57947 59.1138 8.23747 59.2498 7.95347C59.3878 7.66947 59.7288 7.55146 60.0138 7.68846L60.9888 8.16047L62.4468 7.32447C62.7208 7.16647 63.0698 7.26147 63.2258 7.53547C63.3828 7.80847 63.2888 8.15846 63.0148 8.31446L61.2948 9.30046C61.2078 9.35346 61.1098 9.37846 61.0108 9.37846Z" fill="white"/>
<path d="M37.9161 18.3967C38.7241 18.3967 39.3791 17.7417 39.3791 16.9337C39.3791 16.1257 38.7241 15.4707 37.9161 15.4707C37.1081 15.4707 36.4531 16.1257 36.4531 16.9337C36.4531 17.7417 37.1081 18.3967 37.9161 18.3967Z" fill="#97E4FF"/>
<path d="M28.4539 7.31787C29.0465 7.31787 29.5269 6.83747 29.5269 6.24487C29.5269 5.65227 29.0465 5.17188 28.4539 5.17188C27.8613 5.17188 27.3809 5.65227 27.3809 6.24487C27.3809 6.83747 27.8613 7.31787 28.4539 7.31787Z" fill="#97E4FF"/>
<path d="M19.716 24.9086C20.4566 24.9086 21.057 24.3082 21.057 23.5676C21.057 22.827 20.4566 22.2266 19.716 22.2266C18.9754 22.2266 18.375 22.827 18.375 23.5676C18.375 24.3082 18.9754 24.9086 19.716 24.9086Z" fill="#4396CA"/>
<path d="M53.0054 12.757C53.8239 12.757 54.4874 12.0934 54.4874 11.275C54.4874 10.4565 53.8239 9.79297 53.0054 9.79297C52.1869 9.79297 51.5234 10.4565 51.5234 11.275C51.5234 12.0934 52.1869 12.757 53.0054 12.757Z" fill="#062C3F"/>
<path d="M63.2217 36.2754C66.7657 36.2754 69.6387 33.4024 69.6387 29.8584C69.6387 26.3144 66.7657 23.4414 63.2217 23.4414C59.6777 23.4414 56.8047 26.3144 56.8047 29.8584C56.8047 33.4024 59.6777 36.2754 63.2217 36.2754Z" fill="#97E4FF"/>
<path d="M60.3867 33.668C58.9857 33.668 57.8457 32.527 57.8457 31.126C57.8457 29.725 58.9857 28.584 60.3867 28.584C61.7887 28.584 62.9287 29.725 62.9287 31.126C62.9287 32.527 61.7897 33.668 60.3867 33.668ZM60.3867 29.727C59.6157 29.727 58.9887 30.355 58.9887 31.126C58.9887 31.897 59.6157 32.525 60.3867 32.525C61.1577 32.525 61.7857 31.897 61.7857 31.126C61.7857 30.355 61.1587 29.727 60.3867 29.727Z" fill="white"/>
<path d="M65.8486 33.7754C64.4476 33.7754 63.3066 32.6344 63.3066 31.2334C63.3066 29.8324 64.4476 28.6914 65.8486 28.6914C67.2496 28.6914 68.3906 29.8324 68.3906 31.2334C68.3906 32.6344 67.2506 33.7754 65.8486 33.7754ZM65.8486 29.8334C65.0776 29.8334 64.4496 30.4614 64.4496 31.2324C64.4496 32.0034 65.0776 32.6314 65.8486 32.6314C66.6196 32.6314 67.2476 32.0034 67.2476 31.2324C67.2476 30.4614 66.6206 29.8334 65.8486 29.8334Z" fill="white"/>
<path d="M63.9401 31.6219C63.9381 31.6219 63.9361 31.6219 63.9331 31.6219L60.5471 31.5819C60.3461 31.5799 60.1611 31.4719 60.0601 31.2979C59.9591 31.1239 59.9561 30.9099 60.0541 30.7349L61.4891 28.1449C61.5831 27.9749 61.7571 27.8649 61.9511 27.8519C62.1491 27.8339 62.3321 27.9249 62.4471 28.0809L64.3991 30.7099C64.5281 30.8849 64.5471 31.1169 64.4491 31.3109C64.3511 31.5019 64.1551 31.6219 63.9401 31.6219ZM61.5171 30.4519L62.7941 30.4669L62.0581 29.4759L61.5171 30.4519Z" fill="white"/>
<path d="M62.9057 27.7185C62.8467 27.7185 62.7877 27.7095 62.7287 27.6915L61.2547 27.2126C60.9547 27.1146 60.7897 26.7926 60.8877 26.4926C60.9857 26.1926 61.3067 26.0286 61.6077 26.1256L63.0817 26.6046C63.3827 26.7016 63.5467 27.0236 63.4487 27.3246C63.3707 27.5656 63.1467 27.7185 62.9057 27.7185Z" fill="white"/>
<path d="M65.8497 31.6229C65.8287 31.6229 65.8077 31.6219 65.7867 31.6189C65.4737 31.5849 65.2467 31.3029 65.2807 30.9889L65.7637 26.6059C65.7987 26.2929 66.0777 26.0679 66.3947 26.1009C66.7077 26.1349 66.9347 26.4179 66.9007 26.7319L66.4177 31.1139C66.3837 31.4079 66.1367 31.6229 65.8497 31.6229Z" fill="white"/>
<path d="M67.6595 27.9846C67.5495 27.9846 67.4365 27.9527 67.3385 27.8847L65.0016 26.2916C64.7406 26.1136 64.6735 25.7586 64.8515 25.4976C65.0295 25.2366 65.3845 25.1696 65.6455 25.3476L67.9825 26.9416C68.2435 27.1196 68.3105 27.4746 68.1325 27.7356C68.0215 27.8976 67.8415 27.9846 67.6595 27.9846Z" fill="white"/>
<path d="M65.8484 30.4805H63.9414V31.6235H65.8484V30.4805Z" fill="white"/>
<path d="M62.028 29.073C61.713 29.073 61.457 28.817 61.457 28.502V27.028C61.457 26.713 61.713 26.457 62.028 26.457C62.343 26.457 62.5991 26.713 62.5991 27.028V28.502C62.5991 28.817 62.343 29.073 62.028 29.073Z" fill="white"/>
</svg>
