<svg width="79" height="91" viewBox="0 0 79 91" fill="none" xmlns="http://www.w3.org/2000/svg">
<path d="M8.06641 25.8871C8.06641 24.5931 10.4104 19.2031 10.4104 19.2031C10.4104 19.2031 12.7534 24.5921 12.7534 25.8871C12.7534 27.1821 11.7044 28.2301 10.4104 28.2301C9.1164 28.2301 8.06641 27.1811 8.06641 25.8871Z" fill="#A0D5EA"/>
<path d="M10.5281 53.3505C10.4411 53.3505 10.3711 53.2805 10.3711 53.1925V25.3015C10.3711 25.2145 10.4411 25.1445 10.5281 25.1445C10.6151 25.1445 10.6861 25.2145 10.6861 25.3015V53.1925C10.6851 53.2795 10.6151 53.3505 10.5281 53.3505Z" fill="#61B3DB"/>
<path d="M38.8533 39.5723L42.4883 40.0893C42.4883 40.0893 41.9863 41.6643 40.4843 44.0393C39.5483 45.5193 35.3463 47.5593 37.0903 49.0653C38.8343 50.5713 40.9713 46.9553 42.4303 46.7213C43.8453 46.4943 46.7683 47.9753 45.8133 49.1853C44.8583 50.3953 43.1723 48.5553 42.6213 49.0893C42.0703 49.6233 40.5283 52.6983 36.3083 52.2523C32.0883 51.8063 30.7863 49.4023 31.9783 47.4893C33.1693 45.5763 38.8533 39.5723 38.8533 39.5723Z" fill="#CE8E3A"/>
<path d="M26.6875 31.8082C26.6875 31.8082 27.1035 25.4032 28.8475 21.4332C31.3035 15.8442 37.4435 16.9022 39.3905 19.6972C41.3385 22.4912 40.7455 32.1882 40.7455 32.1882L26.6875 31.8082Z" fill="#FFCB2F"/>
<path d="M34.4374 90.1164H3.52641C2.02941 90.1164 0.816406 88.9034 0.816406 87.4064V60.9834C0.816406 59.4864 2.02941 58.2734 3.52641 58.2734H34.4384C35.9354 58.2734 37.1484 59.4864 37.1484 60.9834V87.4064C37.1474 88.9034 35.9344 90.1164 34.4374 90.1164Z" fill="#FFCB2F"/>
<path d="M32.2777 48.0684C32.2777 48.0684 40.3137 50.5484 45.5887 52.9664C47.6207 53.8974 51.0707 55.5914 51.9117 56.8054C52.9277 58.2734 53.2027 81.6894 53.2027 81.6894L49.7217 81.6794C49.7217 81.6794 48.7077 61.0674 48.5387 60.0514C48.3697 59.0354 31.3047 53.4454 31.3047 53.4454L32.2777 48.0684Z" fill="#114960"/>
<path d="M26.6465 47.5181C26.6465 47.5181 24.4445 50.0591 24.7835 53.6161C25.0265 56.1681 25.9585 58.5071 29.5265 58.3161C35.8785 57.9771 43.2465 60.4761 43.3735 61.0681C43.5715 61.9941 37.6965 81.6801 37.6965 81.6801L41.1775 81.6901C41.1775 81.6901 50.1525 60.6021 49.9365 59.0081C49.6685 57.0321 40.6265 53.5921 36.8945 51.9221C33.6765 50.4831 38.4035 46.4931 37.1485 45.9091C34.5385 44.6941 26.6465 47.5181 26.6465 47.5181Z" fill="#062C3F"/>
<path d="M37.2931 29.5087L35.7051 39.7627L43.1861 40.6207C43.1861 40.6207 42.9901 33.7217 42.6951 31.4977C42.5541 30.4377 41.0301 29.8627 39.9271 29.6217C39.0181 29.4227 37.2931 29.5087 37.2931 29.5087Z" fill="#318EBC"/>
<path d="M68.8669 39.4409C74.1534 39.4409 78.4389 35.1554 78.4389 29.8689C78.4389 24.5824 74.1534 20.2969 68.8669 20.2969C63.5805 20.2969 59.2949 24.5824 59.2949 29.8689C59.2949 35.1554 63.5805 39.4409 68.8669 39.4409Z" fill="#FFCB2F"/>
<path d="M68.8664 23.1328L70.9034 27.2598L75.4584 27.9218L72.1624 31.1338L72.9404 35.6698L68.8664 33.5288L64.7934 35.6698L65.5704 31.1338L62.2754 27.9218L66.8304 27.2598L68.8664 23.1328Z" fill="white"/>
<path d="M39.134 15.1567C43.2359 15.1567 46.561 11.8316 46.561 7.72974C46.561 3.62792 43.2359 0.302734 39.134 0.302734C35.0322 0.302734 31.707 3.62792 31.707 7.72974C31.707 11.8316 35.0322 15.1567 39.134 15.1567Z" fill="#025482"/>
<path d="M39.1335 2.50195L40.7145 5.70495L44.2485 6.21795L41.6915 8.71095L42.2945 12.2299L39.1335 10.569L35.9735 12.2299L36.5765 8.71095L34.0195 6.21795L37.5535 5.70495L39.1335 2.50195Z" fill="white"/>
<path d="M63.0545 55.5407C67.0315 55.5407 70.2555 52.3167 70.2555 48.3397C70.2555 44.3627 67.0315 41.1387 63.0545 41.1387C59.0775 41.1387 55.8535 44.3627 55.8535 48.3397C55.8535 52.3167 59.0775 55.5407 63.0545 55.5407Z" fill="#4396CA"/>
<path d="M66.2157 45.7313C65.1367 45.1513 63.7237 45.8793 63.0637 46.8833C62.4037 45.8793 60.9157 45.1513 59.8367 45.7313C58.6947 46.3443 58.4257 47.5343 59.0387 48.6753C59.6517 49.8173 63.0567 52.5973 63.0637 52.5633C63.0697 52.5973 66.4757 49.8163 67.0877 48.6753C67.7007 47.5343 67.3577 46.3443 66.2157 45.7313Z" fill="white"/>
<path d="M53.6646 11.1574C55.8644 11.1574 57.6476 9.37416 57.6476 7.17441C57.6476 4.97466 55.8644 3.19141 53.6646 3.19141C51.4649 3.19141 49.6816 4.97466 49.6816 7.17441C49.6816 9.37416 51.4649 11.1574 53.6646 11.1574Z" fill="#FFCB2F"/>
<path d="M54.1189 4.96875H53.2109V9.37975H54.1189V4.96875Z" fill="white"/>
<path d="M55.87 6.7207H51.459V7.6287H55.87V6.7207Z" fill="white"/>
<path d="M56.5365 61.3152C57.9255 61.3152 59.0515 60.1892 59.0515 58.8002C59.0515 57.4112 57.9255 56.2852 56.5365 56.2852C55.1475 56.2852 54.0215 57.4112 54.0215 58.8002C54.0215 60.1892 55.1475 61.3152 56.5365 61.3152Z" fill="#025482"/>
<path d="M56.821 57.4062H56.248V60.1922H56.821V57.4062Z" fill="white"/>
<path d="M57.9286 58.5137H55.1426V59.0867H57.9286V58.5137Z" fill="white"/>
<path d="M51.9324 40.8278C54.7817 40.8278 57.0914 38.518 57.0914 35.6688C57.0914 32.8195 54.7817 30.5098 51.9324 30.5098C49.0832 30.5098 46.7734 32.8195 46.7734 35.6688C46.7734 38.518 49.0832 40.8278 51.9324 40.8278Z" fill="#FFD56C"/>
<path d="M55.7063 35.991C55.7063 35.991 54.2833 38.091 51.8103 37.956C49.5393 37.831 48.3203 35.991 48.3203 35.991C48.3203 35.991 49.3373 33.687 51.8103 33.619C54.6903 33.541 55.7063 35.991 55.7063 35.991Z" fill="white"/>
<path d="M52.0814 37.3836C52.9419 37.3836 53.6394 36.686 53.6394 35.8256C53.6394 34.9651 52.9419 34.2676 52.0814 34.2676C51.221 34.2676 50.5234 34.9651 50.5234 35.8256C50.5234 36.686 51.221 37.3836 52.0814 37.3836Z" fill="#FFD56C"/>
<path d="M51.2896 27.1203C54.9391 27.1203 57.8976 24.1618 57.8976 20.5123C57.8976 16.8628 54.9391 13.9043 51.2896 13.9043C47.6401 13.9043 44.6816 16.8628 44.6816 20.5123C44.6816 24.1618 47.6401 27.1203 51.2896 27.1203Z" fill="#062C3F"/>
<path d="M54.7914 23.4076H47.6144C47.2664 23.4076 46.9844 23.1256 46.9844 22.7776V18.1886C46.9844 17.8406 47.2664 17.5586 47.6144 17.5586H54.7914C55.1394 17.5586 55.4214 17.8406 55.4214 18.1886V22.7776C55.4214 23.1256 55.1394 23.4076 54.7914 23.4076ZM48.2434 22.1476H54.1604V18.8186H48.2434V22.1476Z" fill="white"/>
<path d="M51.3053 21.5885C51.1723 21.5885 51.0393 21.5465 50.9273 21.4625L47.2363 18.6935L47.9923 17.6855L51.2943 20.1635L54.4003 17.6965L55.1833 18.6835L51.6963 21.4525C51.5823 21.5425 51.4443 21.5885 51.3053 21.5885Z" fill="white"/>
<path d="M20.127 22.3751C25.4903 22.3751 29.838 18.0274 29.838 12.6641C29.838 7.30089 25.4903 2.95312 20.127 2.95312C14.7638 2.95312 10.416 7.30089 10.416 12.6641C10.416 18.0274 14.7638 22.3751 20.127 22.3751Z" fill="#97E4FF"/>
<path d="M15.8376 18.1937C13.8466 18.1937 12.2266 16.5737 12.2266 14.5827C12.2266 12.5907 13.8466 10.9707 15.8376 10.9707C17.8296 10.9707 19.4496 12.5907 19.4496 14.5827C19.4496 16.5737 17.8286 18.1937 15.8376 18.1937ZM15.8376 12.2307C14.5416 12.2307 13.4856 13.2857 13.4856 14.5827C13.4856 15.8787 14.5406 16.9347 15.8376 16.9347C17.1346 16.9347 18.1896 15.8797 18.1896 14.5827C18.1896 13.2857 17.1336 12.2307 15.8376 12.2307Z" fill="white"/>
<path d="M24.1003 18.3549C22.1083 18.3549 20.4883 16.7349 20.4883 14.7429C20.4883 12.7509 22.1083 11.1309 24.1003 11.1309C26.0923 11.1309 27.7123 12.7509 27.7123 14.7429C27.7123 16.7349 26.0923 18.3549 24.1003 18.3549ZM24.1003 12.3918C22.8043 12.3918 21.7483 13.4469 21.7483 14.7439C21.7483 16.0409 22.8033 17.0959 24.1003 17.0959C25.3973 17.0959 26.4523 16.0409 26.4523 14.7439C26.4523 13.4469 25.3973 12.3918 24.1003 12.3918Z" fill="white"/>
<path d="M21.2141 15.1012C21.2121 15.1012 21.2091 15.1012 21.2071 15.1012L16.0831 15.0412C15.8611 15.0382 15.6571 14.9192 15.5461 14.7282C15.4351 14.5372 15.4321 14.3002 15.5401 14.1062L17.7101 10.1882C17.8141 10.0002 18.0051 9.87918 18.2191 9.86518C18.4331 9.84818 18.6391 9.94619 18.7671 10.1182L21.7211 14.0972C21.8641 14.2892 21.8851 14.5462 21.7761 14.7592C21.6671 14.9692 21.4501 15.1012 21.2141 15.1012ZM17.1521 13.7932L19.9501 13.8262L18.3371 11.6532L17.1521 13.7932Z" fill="white"/>
<path d="M19.6469 9.19275C19.5829 9.19275 19.5169 9.18275 19.4529 9.16175L17.2229 8.43775C16.8919 8.33075 16.7109 7.97575 16.8179 7.64475C16.9249 7.31375 17.2809 7.13275 17.6109 7.23975L19.8409 7.96375C20.1719 8.07075 20.3529 8.42575 20.2459 8.75675C20.1589 9.02375 19.9119 9.19275 19.6469 9.19275Z" fill="white"/>
<path d="M24.1015 15.0996C24.0785 15.0996 24.0555 15.0986 24.0315 15.0966C23.6855 15.0586 23.4365 14.7466 23.4745 14.4006L24.2055 7.76963C24.2435 7.42463 24.5545 7.17563 24.9005 7.21263C25.2465 7.25163 25.4955 7.56263 25.4575 7.90863L24.7265 14.5396C24.6915 14.8616 24.4185 15.0996 24.1015 15.0996Z" fill="white"/>
<path d="M26.8394 9.59538C26.7174 9.59538 26.5934 9.55938 26.4854 9.48538L22.9494 7.07438C22.6614 6.87838 22.5874 6.48638 22.7834 6.19938C22.9794 5.91138 23.3704 5.83738 23.6584 6.03338L27.1954 8.44438C27.4834 8.64038 27.5574 9.03138 27.3614 9.31938C27.2384 9.49838 27.0414 9.59538 26.8394 9.59538Z" fill="white"/>
<path d="M24.0998 13.8398H21.2148V15.0998H24.0998V13.8398Z" fill="white"/>
<path d="M18.3214 11.242C17.9734 11.242 17.6914 10.9599 17.6914 10.6119V8.38195C17.6914 8.03395 17.9734 7.75195 18.3214 7.75195C18.6694 7.75195 18.9514 8.03395 18.9514 8.38195V10.6119C18.9514 10.9599 18.6704 11.242 18.3214 11.242Z" fill="white"/>
<path d="M41.1768 81.6897L37.6958 81.6797L37.6758 88.7617C37.6748 89.2917 38.1028 89.7227 38.6338 89.7247L44.3958 89.7407C45.7168 89.7447 45.9038 87.5027 43.5628 87.2177C42.8258 87.1277 41.4678 86.8117 41.2858 86.0717C40.8098 84.1497 41.1768 81.6897 41.1768 81.6897Z" fill="#ABEDFF"/>
<path d="M53.2022 81.6897L49.7212 81.6797L49.7012 88.7617C49.7002 89.2917 50.1282 89.7227 50.6592 89.7247L56.4212 89.7407C57.7412 89.7447 57.9292 87.5027 55.5882 87.2177C54.8512 87.1277 53.4932 86.8117 53.3102 86.0717C52.8352 84.1497 53.2022 81.6897 53.2022 81.6897Z" fill="#ABEDFF"/>
<path d="M37.2958 49.8075L26.9428 46.7995C25.9308 46.6775 25.2098 45.7575 25.3318 44.7455L25.7068 30.4135C25.8298 29.4015 26.7488 28.6805 27.7608 28.8025L39.4738 29.5805C41.4158 29.9475 42.3458 31.9225 42.2238 32.9345L39.3488 48.1965C39.2278 49.2085 38.3078 49.9295 37.2958 49.8075Z" fill="#4396CA"/>
<path d="M36.4295 24.2294L32.6914 23.9844L32.3091 29.8181L36.0472 30.0631L36.4295 24.2294Z" fill="#D8A252"/>
<path d="M34.6238 27.1089C37.1494 27.1089 39.1968 25.0615 39.1968 22.5359C39.1968 20.0103 37.1494 17.9629 34.6238 17.9629C32.0982 17.9629 30.0508 20.0103 30.0508 22.5359C30.0508 25.0615 32.0982 27.1089 34.6238 27.1089Z" fill="#D8A252"/>
<path d="M35.508 53.5179L32.207 50.5959L41.551 49.2969L35.508 53.5179Z" fill="#66C7E2"/>
<path d="M29.9249 24.5667C30.5954 24.5667 31.1389 24.0232 31.1389 23.3527C31.1389 22.6822 30.5954 22.1387 29.9249 22.1387C29.2545 22.1387 28.7109 22.6822 28.7109 23.3527C28.7109 24.0232 29.2545 24.5667 29.9249 24.5667Z" fill="#D8A252"/>
<path d="M23.5121 37.3033C23.5121 37.3033 27.4721 36.8983 27.3881 37.2833C27.3041 37.6693 24.2221 43.9923 29.1021 46.0963C33.5911 48.0313 36.7941 49.1033 38.4381 49.0283C40.1891 48.9483 42.5201 49.9203 42.6771 51.0523C42.8341 52.1843 40.8401 52.8853 39.8571 52.0923C38.8751 51.3003 38.4531 51.0463 37.9831 51.2703C37.4951 51.5033 33.9041 51.5833 26.9241 48.9143C23.2191 47.4973 22.5321 42.5793 23.5121 37.3033Z" fill="#D8A252"/>
<path d="M34.3843 30.71C36.0991 30.71 37.4893 29.3198 37.4893 27.605C37.4893 25.8902 36.0991 24.5 34.3843 24.5C32.6695 24.5 31.2793 25.8902 31.2793 27.605C31.2793 29.3198 32.6695 30.71 34.3843 30.71Z" fill="#D8A252"/>
<path d="M29.3635 29.9366C30.8445 32.7176 28.0325 39.6236 28.0325 39.6236L22.3145 38.1106C22.3145 38.1106 23.7445 31.7006 24.7645 29.7866C25.7305 27.9746 28.7405 28.7676 29.3635 29.9366Z" fill="#58B1DD"/>
<path d="M5.319 45.8771C4.404 44.9621 2.25 39.4941 2.25 39.4941C2.25 39.4941 7.718 41.6471 8.633 42.5631C9.548 43.4781 9.548 44.9621 8.633 45.8771C7.718 46.7931 6.235 46.7931 5.319 45.8771Z" fill="#A0D5EA"/>
<path d="M5.319 35.4904C4.404 34.5744 2.25 29.1074 2.25 29.1074C2.25 29.1074 7.718 31.2614 8.633 32.1764C9.548 33.0914 9.548 34.5754 8.633 35.4904C7.718 36.4054 6.235 36.4054 5.319 35.4904Z" fill="#A0D5EA"/>
<path d="M16.1865 45.8771C17.1025 44.9621 19.2555 39.4941 19.2555 39.4941C19.2555 39.4941 13.7875 41.6471 12.8725 42.5631C11.9565 43.4781 11.9565 44.9621 12.8725 45.8771C13.7875 46.7931 15.2715 46.7931 16.1865 45.8771Z" fill="#A0D5EA"/>
<path d="M16.1865 35.4904C17.1025 34.5744 19.2555 29.1074 19.2555 29.1074C19.2555 29.1074 13.7875 31.2614 12.8725 32.1764C11.9565 33.0914 11.9565 34.5754 12.8725 35.4904C13.7875 36.4054 15.2715 36.4054 16.1865 35.4904Z" fill="#A0D5EA"/>
<path d="M29.7793 22.1125C29.7793 22.1125 32.9173 21.8675 34.5213 21.1385C36.3843 20.2915 37.0203 18.9785 37.0203 18.9785C37.0203 18.9785 37.2743 21.4345 38.6293 22.6205C39.9843 23.8065 39.9843 23.4255 39.9843 23.4255C39.9843 23.4255 39.6883 19.6565 36.6393 18.0475C33.5903 16.4385 32.0663 18.0475 30.9653 19.0645C29.8643 20.0805 29.7793 22.1125 29.7793 22.1125Z" fill="#FFCB2F"/>
<path d="M50.3829 44.4898L35.7363 44.125L35.5023 53.5222L50.1489 53.887L50.3829 44.4898Z" fill="#97E4FF"/>
<path d="M43.3286 50.0595C44.03 50.0595 44.5986 49.4909 44.5986 48.7895C44.5986 48.0881 44.03 47.5195 43.3286 47.5195C42.6272 47.5195 42.0586 48.0881 42.0586 48.7895C42.0586 49.4909 42.6272 50.0595 43.3286 50.0595Z" fill="#ABEDFF"/>
<path d="M6.71491 49.5801H14.5629C14.9929 49.5801 15.3219 49.9641 15.2549 50.3891L14.1179 57.6821C14.0649 58.0231 13.7709 58.2751 13.4259 58.2751H7.85091C7.50491 58.2751 7.21191 58.0231 7.15891 57.6821L6.02191 50.3891C5.95691 49.9631 6.28491 49.5801 6.71491 49.5801Z" fill="#ABEDFF"/>
<path d="M10.405 38.2927L6.00304 33.1957C5.94604 33.1307 5.95403 33.0297 6.01903 32.9737C6.08403 32.9177 6.18403 32.9237 6.24103 32.9897L10.421 37.8297L15.044 33.2067C15.106 33.1447 15.205 33.1447 15.267 33.2067C15.329 33.2687 15.329 33.3677 15.267 33.4297L10.405 38.2927Z" fill="#61B3DB"/>
<path d="M10.4058 48.1033L6.12277 43.7053C6.06177 43.6433 6.06377 43.5433 6.12577 43.4823C6.18777 43.4213 6.28777 43.4233 6.34877 43.4853L10.4218 47.6683L15.1648 43.4773C15.2298 43.4193 15.3298 43.4253 15.3878 43.4913C15.4458 43.5563 15.4388 43.6563 15.3738 43.7133L10.4058 48.1033Z" fill="#61B3DB"/>
<path d="M65.5454 18.4932C68.4107 18.4932 70.7334 16.1704 70.7334 13.3052C70.7334 10.4399 68.4107 8.11719 65.5454 8.11719C62.6802 8.11719 60.3574 10.4399 60.3574 13.3052C60.3574 16.1704 62.6802 18.4932 65.5454 18.4932Z" fill="#4396CA"/>
<path d="M63.3937 15.8686C63.2297 15.8686 63.0657 15.8056 62.9427 15.6786C62.6997 15.4296 62.7047 15.0306 62.9537 14.7876L67.1897 10.6556C67.4387 10.4126 67.8377 10.4176 68.0807 10.6666C68.3237 10.9156 68.3187 11.3146 68.0697 11.5576L63.8337 15.6896C63.7107 15.8096 63.5517 15.8686 63.3937 15.8686Z" fill="white"/>
<path d="M64.0213 12.5739C64.5703 12.5739 65.0153 12.1289 65.0153 11.5799C65.0153 11.031 64.5703 10.5859 64.0213 10.5859C63.4724 10.5859 63.0273 11.031 63.0273 11.5799C63.0273 12.1289 63.4724 12.5739 64.0213 12.5739Z" fill="white"/>
<path d="M67.2127 15.6579C67.7617 15.6579 68.2067 15.2129 68.2067 14.6639C68.2067 14.115 67.7617 13.6699 67.2127 13.6699C66.6638 13.6699 66.2188 14.115 66.2188 14.6639C66.2188 15.2129 66.6638 15.6579 67.2127 15.6579Z" fill="white"/>
<path d="M67.2128 15.078C67.4415 15.078 67.6268 14.8926 67.6268 14.664C67.6268 14.4354 67.4415 14.25 67.2128 14.25C66.9842 14.25 66.7988 14.4354 66.7988 14.664C66.7988 14.8926 66.9842 15.078 67.2128 15.078Z" fill="#4396CA"/>
<path d="M64.0214 11.994C64.2501 11.994 64.4354 11.8087 64.4354 11.58C64.4354 11.3514 64.2501 11.166 64.0214 11.166C63.7928 11.166 63.6074 11.3514 63.6074 11.58C63.6074 11.8087 63.7928 11.994 64.0214 11.994Z" fill="#4396CA"/>
</svg>
