<svg width="129" height="75" viewBox="0 0 129 75" fill="none" xmlns="http://www.w3.org/2000/svg">
<path d="M8.58114 71.3028C8.58114 71.3028 6.41615 56.5827 10.5292 46.4087C14.6422 36.2347 20.0531 31.6888 20.0531 31.6888C20.0531 31.6888 18.5381 15.6698 22.6511 15.2378C26.7641 14.8038 26.7642 14.3718 26.7642 21.7308C26.7642 29.0908 29.1451 45.3258 26.9801 45.3258C24.8151 45.3258 20.9192 51.1708 20.4862 58.3138C20.0532 65.4578 21.1351 71.3018 21.1351 71.3018H8.58114V71.3028Z" fill="#F2BE79"/>
<path d="M23.2599 20.0217C24.2286 20.0217 25.0139 19.2364 25.0139 18.2677C25.0139 17.299 24.2286 16.5137 23.2599 16.5137C22.2911 16.5137 21.5059 17.299 21.5059 18.2677C21.5059 19.2364 22.2911 20.0217 23.2599 20.0217Z" fill="#EF9A6F"/>
<path d="M101.048 53.8161H28.9995C26.3645 53.8161 24.2285 51.7401 24.2285 49.1771V5.34308C24.2285 2.78108 26.3645 0.705078 28.9995 0.705078H101.049C103.684 0.705078 105.82 2.78108 105.82 5.34308V49.1771C105.82 51.7401 103.684 53.8161 101.048 53.8161Z" fill="#4396CA"/>
<path d="M95.4518 50.5067H32.3238C29.9418 50.5067 28.0098 48.6897 28.0098 46.4457V8.07468C28.0098 5.83268 29.9418 4.01367 32.3238 4.01367H95.4518C97.8348 4.01367 99.7658 5.83168 99.7658 8.07468V46.4457C99.7658 48.6897 97.8348 50.5067 95.4518 50.5067Z" fill="#FFCB2F"/>
<path d="M80.7309 41.3755H47.0439C46.1689 41.3755 45.4609 40.6665 45.4609 39.7925V17.1455C45.4609 16.2715 46.1689 15.5625 47.0439 15.5625H80.7309C81.6059 15.5625 82.3139 16.2715 82.3139 17.1455V39.7925C82.3139 40.6665 81.6059 41.3755 80.7309 41.3755Z" fill="#61B3DB"/>
<path d="M72.8187 33.6943H54.9577C53.9067 33.6943 53.0547 32.8413 53.0547 31.7913V25.0573C53.0547 24.0063 53.9067 23.1543 54.9577 23.1543H72.8187C73.8697 23.1543 74.7217 24.0073 74.7217 25.0573V31.7913C74.7217 32.8413 73.8697 33.6943 72.8187 33.6943Z" fill="#025482"/>
<path d="M58.9531 30.2093V26.7793H60.6951C61.0571 26.7793 61.3201 26.8703 61.4871 27.0523C61.6541 27.2343 61.7361 27.4443 61.7361 27.6783C61.7361 27.8493 61.6881 28.0033 61.5911 28.1423C61.4941 28.2803 61.3511 28.3753 61.1601 28.4273C61.6041 28.5343 61.8261 28.8003 61.8261 29.2263C61.8261 29.4813 61.7471 29.7083 61.5911 29.9093C61.4341 30.1093 61.1001 30.2093 60.5871 30.2093H58.9531ZM59.9231 28.0943H60.4101C60.5331 28.0943 60.6181 28.0633 60.6691 28.0003C60.7191 27.9383 60.7441 27.8723 60.7441 27.8023C60.7441 27.6113 60.6261 27.5163 60.3921 27.5163H59.9221V28.0943H59.9231ZM59.9231 29.4463H60.4351C60.5631 29.4463 60.6561 29.4153 60.7151 29.3513C60.7751 29.2883 60.8041 29.2183 60.8041 29.1393C60.8041 29.0603 60.7751 28.9883 60.7181 28.9213C60.6601 28.8563 60.5541 28.8223 60.4001 28.8223H59.9231V29.4463V29.4463Z" fill="white"/>
<path d="M65.2985 26.7803V29.0513C65.2985 29.4823 65.1715 29.7913 64.9155 29.9803C64.6595 30.1693 64.3275 30.2623 63.9165 30.2623C63.4845 30.2623 63.1375 30.1723 62.8745 29.9913C62.6125 29.8103 62.4805 29.5153 62.4805 29.1073V26.7803H63.5515V28.9833C63.5515 29.1483 63.5865 29.2673 63.6555 29.3433C63.7245 29.4183 63.8355 29.4553 63.9875 29.4553C64.1145 29.4553 64.2185 29.4293 64.2995 29.3743C64.3805 29.3193 64.4285 29.2583 64.4455 29.1883C64.4615 29.1203 64.4685 28.9863 64.4685 28.7873V26.7793H65.2985V26.7803Z" fill="white"/>
<path d="M68.9668 26.7812L67.8938 28.7592V30.2112H66.8708V28.7592L65.7168 26.7812H66.8688L67.4698 27.9123L68.0468 26.7812H68.9668Z" fill="white"/>
<path d="M83.324 9.99747C83.166 9.60947 82.788 9.35547 82.369 9.35547H70.449H57.319H45.53C45.031 9.35547 44.582 9.65746 44.393 10.1195L41.707 16.6965H55.871H71.896H86.061L83.324 9.99747Z" fill="#FCD26D"/>
<path d="M43.1281 19.0772H43.1001C42.3291 19.0772 41.7051 18.4522 41.7051 17.6822V16.6992H44.5221V17.6822C44.5231 18.4522 43.8981 19.0772 43.1281 19.0772Z" fill="#EFC036"/>
<path d="M48.9974 19.0772H48.9664C48.1254 19.0772 47.4434 18.4522 47.4434 17.6822V16.6992H50.5194V17.6822C50.5194 18.4522 49.8384 19.0772 48.9974 19.0772Z" fill="#EFC036"/>
<path d="M54.8895 19.0772H54.8575C53.9815 19.0772 53.2715 18.4522 53.2715 17.6822V16.6992H56.4765V17.6822C56.4765 18.4522 55.7665 19.0772 54.8895 19.0772Z" fill="#EFC036"/>
<path d="M60.8735 19.0772H60.8405C59.9505 19.0772 59.2285 18.4522 59.2285 17.6822V16.6992H62.4855V17.6822C62.4855 18.4522 61.7645 19.0772 60.8735 19.0772Z" fill="#EFC036"/>
<path d="M66.8776 19.0772H66.8456C65.9726 19.0772 65.2656 18.4522 65.2656 17.6822V16.6992H68.4576V17.6822C68.4576 18.4522 67.7506 19.0772 66.8776 19.0772Z" fill="#EFC036"/>
<path d="M72.7839 19.0772H72.7519C71.8789 19.0772 71.1719 18.4522 71.1719 17.6822V16.6992H74.3639V17.6822C74.3639 18.4522 73.6569 19.0772 72.7839 19.0772Z" fill="#EFC036"/>
<path d="M78.7606 19.0772H78.7296C77.8746 19.0772 77.1816 18.4522 77.1816 17.6822V16.6992H80.3086V17.6822C80.3086 18.4522 79.6156 19.0772 78.7606 19.0772Z" fill="#EFC036"/>
<path d="M84.6397 19.0772H84.6107C83.8197 19.0772 83.1777 18.4522 83.1777 17.6822V16.6992H86.0727V17.6822C86.0727 18.4522 85.4317 19.0772 84.6397 19.0772Z" fill="#EFC036"/>
<path d="M45.9984 19.0772H45.9694C45.1704 19.0772 44.5234 18.4522 44.5234 17.6822V16.6992H47.4434V17.6822C47.4434 18.4522 46.7964 19.0772 45.9984 19.0772Z" fill="#F4EFE9"/>
<path d="M51.9095 19.0772H51.8815C51.1295 19.0772 50.5195 18.4522 50.5195 17.6822V16.6992H53.2725V17.6822C53.2725 18.4522 52.6625 19.0772 51.9095 19.0772Z" fill="#F4EFE9"/>
<path d="M57.8737 19.0772H57.8457C57.0857 19.0772 56.4707 18.4522 56.4707 17.6822V16.6992H59.2497V17.6822C59.2487 18.4522 58.6327 19.0772 57.8737 19.0772Z" fill="#F4EFE9"/>
<path d="M63.8952 19.0772H63.8672C63.1072 19.0772 62.4922 18.4522 62.4922 17.6822V16.6992H65.2712V17.6822C65.2712 18.4522 64.6552 19.0772 63.8952 19.0772Z" fill="#F4EFE9"/>
<path d="M69.8212 19.0772H69.7942C69.0522 19.0772 68.4512 18.4522 68.4512 17.6822V16.6992H71.1652V17.6822C71.1652 18.4522 70.5632 19.0772 69.8212 19.0772Z" fill="#F4EFE9"/>
<path d="M75.7934 19.0772H75.7654C74.9884 19.0772 74.3574 18.4522 74.3574 17.6822V16.6992H77.2004V17.6822C77.2004 18.4522 76.5704 19.0772 75.7934 19.0772Z" fill="#F4EFE9"/>
<path d="M81.7628 19.0772H81.7338C80.9428 19.0772 80.3008 18.4522 80.3008 17.6822V16.6992H83.1958V17.6822C83.1958 18.4522 82.5548 19.0772 81.7628 19.0772Z" fill="#F4EFE9"/>
<path d="M65.2783 8.42578H62.4863V20.3158H65.2783V8.42578Z" fill="white"/>
<path d="M58.8528 19.9396L56.0898 19.5346L57.7048 7.80664L60.3148 8.09064L58.8528 19.9396Z" fill="white"/>
<path d="M52.6561 19.4433L49.9531 18.7483L53.1301 7.23828L55.3271 7.93529L52.6561 19.4433Z" fill="white"/>
<path d="M68.8657 19.9389L71.6287 19.5339L69.6977 7.75391L67.3457 8.14191L68.8657 19.9389Z" fill="white"/>
<path d="M81.218 19.4004L83.839 18.4394L79.747 7.27539L77.375 8.16739L81.218 19.4004Z" fill="white"/>
<path d="M46.5165 19.4004L43.8965 18.4394L47.9875 7.27539L50.3605 8.16739L46.5165 19.4004Z" fill="white"/>
<path d="M75.0626 19.4431L77.7656 18.748L74.5826 7.28906L72.1016 7.92706L75.0626 19.4431Z" fill="white"/>
<path d="M67.3635 45.9566H61.5645C60.8515 45.9566 60.2715 45.3766 60.2715 44.6626V44.6426C60.2715 43.9296 60.8515 43.3496 61.5645 43.3496H67.3635C67.5505 43.3496 67.7015 43.5006 67.7015 43.6876C67.7015 43.8746 67.5505 44.0256 67.3635 44.0256H61.5645C61.2245 44.0256 60.9475 44.3026 60.9475 44.6426V44.6626C60.9475 45.0036 61.2245 45.2796 61.5645 45.2796H67.3635C67.5505 45.2796 67.7015 45.4306 67.7015 45.6176C67.7015 45.8046 67.5505 45.9566 67.3635 45.9566Z" fill="white"/>
<path d="M60.973 44.0195C60.864 44.0195 60.764 43.9495 60.73 43.8395L58.959 37.9805H68.846L67.727 43.8145C67.701 43.9515 67.568 44.0425 67.43 44.0155C67.293 43.9895 67.202 43.8565 67.229 43.7185L68.232 38.4875H59.642L61.216 43.6935C61.257 43.8275 61.181 43.9685 61.047 44.0085C61.022 44.0165 60.997 44.0195 60.973 44.0195Z" fill="white"/>
<path d="M59.3018 38.4876C59.1978 38.4876 59.0999 38.4236 59.0629 38.3196L58.4978 36.7326H57.2178C57.0778 36.7326 56.9648 36.6186 56.9648 36.4786C56.9648 36.3376 57.0778 36.2246 57.2178 36.2246H58.8548L59.5408 38.1486C59.5878 38.2806 59.5188 38.4256 59.3868 38.4726C59.3588 38.4826 59.3298 38.4876 59.3018 38.4876Z" fill="white"/>
<path d="M57.2149 36.9007H55.8429C55.6099 36.9007 55.4199 36.7117 55.4199 36.4777C55.4199 36.2437 55.6089 36.0547 55.8429 36.0547H57.2149C57.4489 36.0547 57.6379 36.2437 57.6379 36.4777C57.6379 36.7117 57.4479 36.9007 57.2149 36.9007Z" fill="white"/>
<path d="M61.4081 48.4939C62.0499 48.4939 62.5701 47.9737 62.5701 47.3319C62.5701 46.6902 62.0499 46.1699 61.4081 46.1699C60.7663 46.1699 60.2461 46.6902 60.2461 47.3319C60.2461 47.9737 60.7663 48.4939 61.4081 48.4939Z" fill="white"/>
<path d="M66.8768 48.4939C67.5186 48.4939 68.0388 47.9737 68.0388 47.3319C68.0388 46.6902 67.5186 46.1699 66.8768 46.1699C66.2351 46.1699 65.7148 46.6902 65.7148 47.3319C65.7148 47.9737 66.2351 48.4939 66.8768 48.4939Z" fill="white"/>
<path d="M61.4092 47.875C61.7085 47.875 61.9512 47.6323 61.9512 47.333C61.9512 47.0337 61.7085 46.791 61.4092 46.791C61.1099 46.791 60.8672 47.0337 60.8672 47.333C60.8672 47.6323 61.1099 47.875 61.4092 47.875Z" fill="#4396CA"/>
<path d="M66.9326 47.875C67.232 47.875 67.4746 47.6323 67.4746 47.333C67.4746 47.0337 67.232 46.791 66.9326 46.791C66.6333 46.791 66.3906 47.0337 66.3906 47.333C66.3906 47.6323 66.6333 47.875 66.9326 47.875Z" fill="#4396CA"/>
<path d="M62.1411 43.8791C62.0201 43.8791 61.9131 43.7921 61.8911 43.6691L60.9901 38.4831C60.9661 38.3451 61.0581 38.2131 61.1961 38.1891C61.3341 38.1661 61.4661 38.2571 61.4891 38.3961L62.3911 43.5821C62.4151 43.7201 62.3231 43.8511 62.1841 43.8751C62.1701 43.8781 62.1551 43.8791 62.1411 43.8791Z" fill="white"/>
<path d="M63.4079 43.7675C63.2749 43.7675 63.1639 43.6645 63.1549 43.5315L62.8169 38.4025C62.8079 38.2625 62.9139 38.1415 63.0529 38.1315C63.1919 38.1215 63.3139 38.2285 63.3229 38.3685L63.6609 43.4975C63.6699 43.6375 63.5649 43.7575 63.4249 43.7675C63.4199 43.7675 63.4139 43.7675 63.4079 43.7675Z" fill="white"/>
<path d="M66.0589 43.8805C66.0459 43.8805 66.0329 43.8795 66.0189 43.8775C65.8799 43.8555 65.7859 43.7255 65.8079 43.5875L66.6249 38.4015C66.6469 38.2625 66.7769 38.1695 66.9149 38.1905C67.0529 38.2115 67.1479 38.3415 67.1259 38.4805L66.3089 43.6655C66.2889 43.7915 66.1809 43.8805 66.0589 43.8805Z" fill="white"/>
<path d="M64.7055 43.7673C64.7015 43.7673 64.6965 43.7673 64.6925 43.7673C64.5525 43.7603 64.4445 43.6413 64.4515 43.5013L64.7055 38.3723C64.7125 38.2313 64.8335 38.1233 64.9715 38.1313C65.1115 38.1383 65.2195 38.2573 65.2125 38.3973L64.9595 43.5263C64.9515 43.6623 64.8395 43.7673 64.7055 43.7673Z" fill="white"/>
<path d="M67.9745 40.2726H59.8585C59.7185 40.2726 59.6055 40.1596 59.6055 40.0186C59.6055 39.8786 59.7185 39.7656 59.8585 39.7656H67.9745C68.1145 39.7656 68.2275 39.8786 68.2275 40.0186C68.2275 40.1596 68.1145 40.2726 67.9745 40.2726Z" fill="white"/>
<path d="M67.6922 42.0764H60.5342C60.3942 42.0764 60.2812 41.9634 60.2812 41.8224C60.2812 41.6824 60.3942 41.5684 60.5342 41.5684H67.6922C67.8322 41.5684 67.9453 41.6824 67.9453 41.8224C67.9453 41.9624 67.8322 42.0764 67.6922 42.0764Z" fill="white"/>
<path d="M103.583 31.9915C103.583 32.4325 103.184 32.7905 102.69 32.7905C102.197 32.7905 101.797 32.4335 101.797 31.9915V22.6935C101.797 22.2525 102.197 21.8945 102.69 21.8945C103.183 21.8945 103.583 22.2515 103.583 22.6935V31.9915Z" fill="#2D80AA"/>
<path d="M110.536 71.3027C110.536 71.3027 101.877 71.0857 98.8473 67.4067C95.8163 63.7257 98.8473 61.5616 101.877 63.2936C104.908 65.0246 111.679 65.9696 113.35 63.1856C115.298 59.9386 115.206 56.2587 115.082 51.7127C114.957 47.1667 112.096 43.3786 110.147 43.2716C106.251 43.0546 98.0893 44.1367 98.3063 41.7557C98.5413 39.1687 104.356 39.0917 106.122 39.4027C106.774 39.5177 107.423 39.2057 107.744 38.6267C108.132 37.9267 109.921 37.2916 111.619 37.5346C113.13 37.7506 113.075 37.8307 113.617 37.9667C113.95 38.0497 114.297 37.9196 114.501 37.6426C114.764 37.2856 116.066 36.7297 117.681 37.1017C120.495 37.7507 122.704 37.5537 124.608 43.7047C127.422 52.7967 126.309 57.6287 122.66 62.3207C121.145 64.2687 128.962 62.2137 128.937 62.6447C128.709 66.7357 128.721 71.5197 128.721 71.5197L110.536 71.3027Z" fill="#F2BE79"/>
<path d="M110.148 63.1845H80.0491C79.2371 63.1845 78.5781 62.5265 78.5781 61.7135V44.7405C78.5781 43.9275 79.2371 43.2695 80.0491 43.2695H110.148C110.961 43.2695 111.619 43.9275 111.619 44.7405V61.7135C111.619 62.5265 110.961 63.1845 110.148 63.1845Z" fill="#025482"/>
<path d="M111.619 54.8105H78.5781V58.8835H111.619V54.8105Z" fill="#062C3F"/>
<path d="M100.146 66.5099C100.907 66.5099 101.524 65.893 101.524 65.1319C101.524 64.3709 100.907 63.7539 100.146 63.7539C99.3845 63.7539 98.7676 64.3709 98.7676 65.1319C98.7676 65.893 99.3845 66.5099 100.146 66.5099Z" fill="#EF9A6F"/>
<path d="M100.362 42.2657C101.123 42.2657 101.74 41.6488 101.74 40.8878C101.74 40.1267 101.123 39.5098 100.362 39.5098C99.6013 39.5098 98.9844 40.1267 98.9844 40.8878C98.9844 41.6488 99.6013 42.2657 100.362 42.2657Z" fill="#EF9A6F"/>
<path d="M5.98347 48.4648L23.9505 54.9588L25.4655 74.6578L0.355469 72.7088L5.98347 48.4648Z" fill="#ABEDFF"/>
<path d="M23.0191 52.5075L7.89648 47.8574L6.69619 51.7609L21.8189 56.411L23.0191 52.5075Z" fill="#CFF6FF"/>
</svg>
