<svg width="96" height="99" viewBox="0 0 96 99" fill="none" xmlns="http://www.w3.org/2000/svg">
<path d="M70.539 97.2281H26.953C24.769 97.2281 23 95.3321 23 92.9941V5.10314C23 2.76514 24.77 0.869141 26.953 0.869141H70.539C72.722 0.869141 74.491 2.76514 74.491 5.10314V92.9941C74.491 95.3321 72.721 97.2281 70.539 97.2281Z" fill="#4396CA"/>
<path d="M67.33 89.2177H30.163C28.302 89.2177 26.793 87.5467 26.793 85.4867V8.03374C26.793 5.97274 28.302 4.30273 30.163 4.30273H67.33C69.192 4.30273 70.701 5.97274 70.701 8.03374V85.4867C70.701 87.5467 69.192 89.2177 67.33 89.2177Z" fill="#61B3DB"/>
<path d="M56.2226 93.062C56.2226 93.947 55.5056 94.665 54.6196 94.665H42.8686C41.9836 94.665 41.2656 93.948 41.2656 93.062C41.2656 92.177 41.9836 91.459 42.8686 91.459H54.6196C55.5066 91.459 56.2226 92.177 56.2226 93.062Z" fill="#3287B2"/>
<path d="M73.1513 31.1115C72.0233 30.1245 62.4353 30.3365 60.3213 36.6105C58.2063 42.8845 60.9753 44.1435 64.1283 45.3525C68.3573 46.9745 74.1393 40.0655 74.1393 36.2585C74.1383 32.4515 73.1513 31.1115 73.1513 31.1115Z" fill="#025482"/>
<path d="M82.5112 56.4922L73.6562 57.5532C73.6562 57.5532 73.8192 60.6602 74.5612 69.6752C75.0362 75.4362 75.6892 83.0702 75.6892 83.0702L78.7912 84.0572C79.0042 81.3532 78.8542 75.2652 78.8992 66.9442C78.9112 64.9182 79.0032 63.7662 79.3772 63.6032C80.5972 63.0732 82.4002 62.4782 83.7262 64.8112C85.6452 68.1882 87.8962 69.3322 90.6352 76.2312C92.5382 81.0252 91.1282 83.1402 91.1282 83.1402L94.1592 84.0572C94.1592 84.0572 95.8513 80.8142 92.8203 72.7782C89.8343 64.8582 82.5112 56.4922 82.5112 56.4922Z" fill="#B5792A"/>
<path d="M94.1601 84.056L91.1111 82.877L87.0161 94.549C86.8361 95.014 87.0681 95.536 87.5331 95.716L92.5801 97.667C93.7371 98.114 94.6551 96.211 92.6981 95.174C92.0821 94.847 90.9971 94.114 91.0861 93.403C91.3151 91.558 94.1601 84.056 94.1601 84.056Z" fill="#F2BE79"/>
<path d="M78.9224 82.8555L75.6523 82.8755L76.1613 97.1265C76.1643 97.6245 76.5704 98.0255 77.0694 98.0225L82.4803 97.9895C83.7203 97.9815 83.8774 95.8755 81.6764 95.6265C80.9834 95.5485 79.7054 95.2635 79.5284 94.5685C79.0664 92.7685 78.9224 82.8555 78.9224 82.8555Z" fill="#F2BE79"/>
<path d="M86.3347 47.5373C86.6167 48.1013 90.4288 54.0523 92.1628 52.2373C94.1838 50.1223 86.9458 40.6753 87.6508 39.2653C88.3558 37.8553 89.8128 36.9623 90.0948 37.6673C90.3758 38.3723 88.7318 38.9363 89.0138 39.5003C89.2948 40.0643 92.2558 35.9753 92.9608 37.8083C93.6658 39.6413 90.4237 40.4873 90.8467 41.3333C91.2697 42.1793 98.1777 51.4853 94.0887 54.5863C89.9997 57.6883 83.8438 50.3573 83.8438 50.3573L86.3347 47.5373Z" fill="#B5792A"/>
<path d="M73.2927 58.2532C73.2927 58.2532 72.8457 60.4152 72.8457 65.7732C72.8457 69.5262 73.5037 73.4102 73.5037 73.4102C73.5037 73.4102 77.9447 73.4812 83.0917 72.8462C88.2377 72.2122 91.6217 69.8852 91.6217 69.8852C91.6217 69.8852 87.1807 60.0162 83.0917 56.9842C79.0027 53.9532 73.2927 58.2532 73.2927 58.2532Z" fill="#062C3F"/>
<path d="M77.123 44.1089L83.3361 52.2049L87.7431 48.8229L83.149 42.2809C82.809 41.8429 81.849 41.0829 81.399 41.4059L77.123 44.1089Z" fill="#8FDDEA"/>
<path d="M82.7392 58.4642L74.4212 59.8742C73.4732 60.0072 72.5962 59.3462 72.4632 58.3982L68.2612 45.3422C68.1272 44.3942 69.4822 42.9372 70.4222 42.7572C73.0832 42.2452 78.4432 41.1092 81.4182 41.1312C82.3732 41.1382 83.7282 42.6982 83.8602 43.6462L84.2142 56.5072C84.3472 57.4552 83.6872 58.3312 82.7392 58.4642Z" fill="#ABEDFF"/>
<path d="M78.342 40.506C78.1 42.152 76.612 43.283 75.02 43.032C73.427 42.781 72.333 41.242 72.577 39.596C72.821 37.95 74.307 36.819 75.899 37.07C77.492 37.322 78.586 38.86 78.342 40.506Z" fill="#B5792A"/>
<path d="M76.489 36.3659L73.0371 37.0449L74.0971 42.4337L77.5489 41.7547L76.489 36.3659Z" fill="#B5792A"/>
<path d="M74.295 39.3049C76.6671 39.3049 78.59 37.3819 78.59 35.0099C78.59 32.6378 76.6671 30.7148 74.295 30.7148C71.923 30.7148 70 32.6378 70 35.0099C70 37.3819 71.923 39.3049 74.295 39.3049Z" fill="#B5792A"/>
<path d="M70.2259 38.0222C70.8555 38.0222 71.3659 37.5118 71.3659 36.8822C71.3659 36.2526 70.8555 35.7422 70.2259 35.7422C69.5963 35.7422 69.0859 36.2526 69.0859 36.8822C69.0859 37.5118 69.5963 38.0222 70.2259 38.0222Z" fill="#B5792A"/>
<path d="M90.8012 40.9594L94.5851 37.5774C94.7991 37.3864 94.8172 37.0564 94.6262 36.8424L93.4811 35.5624C93.2901 35.3484 92.9602 35.3294 92.7462 35.5204L88.9631 38.9024C88.7481 39.0934 88.7301 39.4234 88.9211 39.6374L90.0661 40.9174C90.2571 41.1334 90.5872 41.1514 90.8012 40.9594Z" fill="#062C3F"/>
<path d="M65.3255 51.6263C64.4795 52.7543 65.1846 59.0283 67.3006 62.8353C69.4146 66.6423 71.0485 66.8743 72.2355 68.3343C74.0685 70.5903 74.9146 71.6473 75.4776 70.3783C76.2976 68.5333 73.5035 67.6993 73.5745 67.3473C73.8485 65.9783 75.2585 67.9893 75.9015 67.4173C76.5355 66.8533 75.3376 66.0783 72.7286 65.3023C70.6326 64.6793 68.0765 60.2973 67.8645 55.9963C67.6985 52.6133 68.7106 50.7793 68.7106 50.7793L65.3255 51.6263Z" fill="#B5792A"/>
<path d="M72.5466 44.9837C73.5536 47.5797 69.1916 54.4477 69.1916 54.4477L64.2266 51.6537C64.2266 51.6537 66.3776 45.7647 68.9886 43.4417C70.0406 42.5037 72.0966 43.8237 72.5466 44.9837Z" fill="#CCF5FF"/>
<path d="M69.9794 34.7781C69.9794 34.7781 71.5304 31.8881 71.8824 32.0291C72.2354 32.1701 73.5034 34.3551 76.2534 34.4251C79.0024 34.4961 80.0604 32.9451 80.0604 32.9451C80.0604 32.9451 76.2894 29.1541 73.3634 29.3491C69.1324 29.6321 69.9794 34.7781 69.9794 34.7781Z" fill="#0771A0"/>
<path d="M9.26562 49.0172C9.26562 47.1002 12.7386 39.1152 12.7386 39.1152C12.7386 39.1152 16.2106 47.0992 16.2106 49.0172C16.2106 50.9352 14.6566 52.4892 12.7386 52.4892C10.8206 52.4892 9.26562 50.9352 9.26562 49.0172Z" fill="#A0D5EA"/>
<path d="M12.9125 89.6148C12.8345 89.6148 12.7715 89.5518 12.7715 89.4738V48.1508C12.7715 48.0728 12.8345 48.0098 12.9125 48.0098C12.9905 48.0098 13.0535 48.0728 13.0535 48.1508V89.4738C13.0525 89.5518 12.9905 89.6148 12.9125 89.6148Z" fill="#61B3DB"/>
<path d="M5.19547 78.6367C3.83947 77.2807 0.648438 69.1797 0.648438 69.1797C0.648438 69.1797 8.75044 72.3707 10.1054 73.7267C11.4614 75.0827 11.4614 77.2807 10.1054 78.6367C8.75044 79.9927 6.55047 79.9927 5.19547 78.6367Z" fill="#A0D5EA"/>
<path d="M5.19547 63.2461C3.83947 61.8901 0.648438 53.7891 0.648438 53.7891C0.648438 53.7891 8.75044 56.9791 10.1054 58.3351C11.4614 59.6911 11.4614 61.8901 10.1054 63.2461C8.75044 64.6021 6.55047 64.6021 5.19547 63.2461Z" fill="#A0D5EA"/>
<path d="M21.2993 78.6367C22.6553 77.2807 25.8463 69.1797 25.8463 69.1797C25.8463 69.1797 17.7453 72.3707 16.3893 73.7267C15.0343 75.0827 15.0343 77.2807 16.3893 78.6367C17.7453 79.9927 19.9433 79.9927 21.2993 78.6367Z" fill="#A0D5EA"/>
<path d="M21.2993 63.2461C22.6553 61.8901 25.8463 53.7891 25.8463 53.7891C25.8463 53.7891 17.7453 56.9791 16.3893 58.3351C15.0343 59.6911 15.0343 61.8901 16.3893 63.2461C17.7453 64.6021 19.9433 64.6021 21.2993 63.2461Z" fill="#A0D5EA"/>
<path d="M7.26588 84.1211H18.8939C19.5309 84.1211 20.0179 84.6901 19.9189 85.3191L18.2349 96.1251C18.1559 96.6301 17.7199 97.0031 17.2089 97.0031H8.9489C8.4369 97.0031 8.0019 96.6301 7.9239 96.1251L6.23891 85.3191C6.14191 84.6901 6.62888 84.1211 7.26588 84.1211Z" fill="#B5792A"/>
<path d="M12.7371 67.2623L6.2811 59.7863C6.2291 59.7273 6.23608 59.6383 6.29508 59.5873C6.35408 59.5363 6.44308 59.5423 6.49408 59.6013L12.7521 66.8483L19.6721 59.9293C19.7271 59.8743 19.8171 59.8743 19.8711 59.9293C19.9261 59.9843 19.9261 60.0743 19.8711 60.1293L12.7371 67.2623Z" fill="#61B3DB"/>
<path d="M12.7377 81.8063L6.45469 75.3523C6.39969 75.2963 6.4007 75.2073 6.4567 75.1533C6.5127 75.0993 6.60271 75.1003 6.65671 75.1563L12.7527 81.4173L19.8467 75.1483C19.9047 75.0973 19.9927 75.1023 20.0457 75.1613C20.0967 75.2193 20.0917 75.3083 20.0327 75.3603L12.7377 81.8063Z" fill="#61B3DB"/>
<path d="M60.1141 76.8194H37.3781C36.0401 76.8194 34.9551 75.7344 34.9551 74.3964V65.8234C34.9551 64.4854 36.0401 63.4004 37.3781 63.4004H60.1141C61.4521 63.4004 62.5371 64.4854 62.5371 65.8234V74.3964C62.5371 75.7344 61.4521 76.8194 60.1141 76.8194Z" fill="#025482"/>
<path d="M42.4648 72.3846V68.0176H44.6819C45.1429 68.0176 45.4788 68.1336 45.6898 68.3666C45.9008 68.5996 46.0059 68.8646 46.0059 69.1626C46.0059 69.3806 45.9438 69.5776 45.8218 69.7536C45.6998 69.9296 45.5159 70.0506 45.2729 70.1166C45.8379 70.2536 46.1208 70.5926 46.1208 71.1346C46.1208 71.4586 46.0208 71.7476 45.8218 72.0036C45.6228 72.2576 45.1969 72.3856 44.5439 72.3856H42.4648V72.3846ZM43.6999 69.6906H44.3199C44.4749 69.6906 44.5858 69.6506 44.6488 69.5716C44.7128 69.4926 44.7458 69.4086 44.7458 69.3196C44.7458 69.0766 44.5969 68.9546 44.2979 68.9546H43.6999V69.6906ZM43.6999 71.4116H44.3518C44.5138 71.4116 44.6319 71.3716 44.7079 71.2916C44.7839 71.2116 44.8209 71.1216 44.8209 71.0206C44.8209 70.9206 44.7848 70.8286 44.7108 70.7436C44.6378 70.6596 44.5029 70.6176 44.3069 70.6176H43.6999V71.4116V71.4116Z" fill="white"/>
<path d="M50.544 68.0176V70.9096C50.544 71.4576 50.381 71.8516 50.056 72.0916C49.731 72.3316 49.307 72.4516 48.785 72.4516C48.235 72.4516 47.793 72.3366 47.459 72.1056C47.126 71.8756 46.959 71.5006 46.959 70.9796V68.0176H48.321V70.8236C48.321 71.0326 48.365 71.1856 48.454 71.2816C48.542 71.3776 48.683 71.4256 48.877 71.4256C49.038 71.4256 49.171 71.3906 49.273 71.3216C49.377 71.2526 49.438 71.1736 49.459 71.0866C49.479 70.9996 49.489 70.8286 49.489 70.5746V68.0186H50.544V68.0176Z" fill="white"/>
<path d="M55.2132 68.0176L53.8462 70.5356V72.3846H52.5442V70.5356L51.0742 68.0176H52.5412L53.3072 69.4566L54.0402 68.0176H55.2132Z" fill="white"/>
<path d="M48.7449 56.0523C51.7311 56.0523 54.1519 53.6315 54.1519 50.6453C54.1519 47.6591 51.7311 45.2383 48.7449 45.2383C45.7587 45.2383 43.3379 47.6591 43.3379 50.6453C43.3379 53.6315 45.7587 56.0523 48.7449 56.0523Z" fill="#FCB515"/>
<path d="M48.6039 51.192C48.6039 50.854 48.6179 50.78 48.2789 50.661C47.6219 50.422 47.1309 49.971 47.1309 49.247C47.1309 48.53 47.6089 47.933 48.3859 47.787C48.5119 47.76 48.5849 47.734 48.5919 47.561C48.5979 47.415 48.8179 47.428 48.9369 47.428C49.0699 47.428 49.0559 47.488 49.0559 47.588C49.0559 47.767 49.2879 47.74 49.4879 47.774C49.5939 47.794 50.2849 47.914 50.2849 48.066C50.2849 48.119 50.0189 48.896 49.9269 48.896C49.7679 48.896 49.6019 48.624 49.2229 48.624C49.0569 48.624 49.0839 48.85 49.0839 48.956V49.534C49.0839 49.846 49.1039 49.946 49.4219 50.065C50.1989 50.337 50.7039 50.842 50.7039 51.658C50.7039 52.601 50.0929 53.238 49.3159 53.238C49.1699 53.238 49.1099 53.344 49.1099 53.504C49.1099 53.67 49.0039 53.637 48.8639 53.637C48.7379 53.637 48.6379 53.67 48.6319 53.524C48.6249 53.305 48.5199 53.238 48.2939 53.238C47.9219 53.238 47.2249 52.913 47.2249 52.787C47.2249 52.634 47.4509 51.738 47.5709 51.738C47.8229 51.738 47.9889 52.13 48.4269 52.13C48.6249 52.13 48.6059 51.944 48.6059 51.811V51.192H48.6039ZM48.6039 48.948C48.6039 48.756 48.6369 48.623 48.4709 48.623C48.1719 48.623 48.0259 48.915 48.0259 49.187C48.0259 49.493 48.3589 49.758 48.4849 49.758C48.5849 49.758 48.6039 49.512 48.6039 49.32V48.948V48.948ZM49.0829 51.869C49.0829 52.022 49.0829 52.128 49.2749 52.128C49.5929 52.128 49.8059 51.889 49.8059 51.604C49.8059 51.345 49.4269 51.006 49.2139 51.006C49.0679 51.006 49.0819 51.132 49.0819 51.265V51.869H49.0829Z" fill="white"/>
<path d="M48.7449 41.3999C51.7311 41.3999 54.1519 38.9792 54.1519 35.993C54.1519 33.0067 51.7311 30.5859 48.7449 30.5859C45.7587 30.5859 43.3379 33.0067 43.3379 35.993C43.3379 38.9792 45.7587 41.3999 48.7449 41.3999Z" fill="#062C3F"/>
<path d="M48.6039 36.5407C48.6039 36.2027 48.6179 36.1297 48.2789 36.0097C47.6219 35.7707 47.1309 35.3187 47.1309 34.5947C47.1309 33.8777 47.6089 33.2807 48.3859 33.1347C48.5119 33.1087 48.5849 33.0817 48.5919 32.9087C48.5979 32.7627 48.8179 32.7757 48.9369 32.7757C49.0699 32.7757 49.0559 32.8357 49.0559 32.9357C49.0559 33.1147 49.2879 33.0887 49.4879 33.1217C49.5939 33.1417 50.2849 33.2607 50.2849 33.4137C50.2849 33.4667 50.0189 34.2437 49.9269 34.2437C49.7679 34.2437 49.6019 33.9717 49.2229 33.9717C49.0569 33.9717 49.0839 34.1977 49.0839 34.3037V34.8817C49.0839 35.1937 49.1039 35.2937 49.4219 35.4127C50.1989 35.6847 50.7039 36.1897 50.7039 37.0057C50.7039 37.9487 50.0929 38.5857 49.3159 38.5857C49.1699 38.5857 49.1099 38.6917 49.1099 38.8517C49.1099 39.0177 49.0039 38.9847 48.8639 38.9847C48.7379 38.9847 48.6379 39.0177 48.6319 38.8717C48.6249 38.6527 48.5199 38.5857 48.2939 38.5857C47.9219 38.5857 47.2249 38.2607 47.2249 38.1347C47.2249 37.9817 47.4509 37.0857 47.5709 37.0857C47.8229 37.0857 47.9889 37.4777 48.4269 37.4777C48.6249 37.4777 48.6059 37.2917 48.6059 37.1587V36.5407H48.6039ZM48.6039 34.2957C48.6039 34.1037 48.6369 33.9707 48.4709 33.9707C48.1719 33.9707 48.0259 34.2627 48.0259 34.5347C48.0259 34.8397 48.3589 35.1057 48.4849 35.1057C48.5849 35.1057 48.6039 34.8597 48.6039 34.6677V34.2957V34.2957ZM49.0829 37.2177C49.0829 37.3707 49.0829 37.4767 49.2749 37.4767C49.5929 37.4767 49.8059 37.2377 49.8059 36.9517C49.8059 36.6927 49.4269 36.3537 49.2139 36.3537C49.0679 36.3537 49.0819 36.4797 49.0819 36.6127V37.2177H49.0829Z" fill="white"/>
<path d="M48.7449 26.7456C51.7311 26.7456 54.1519 24.3248 54.1519 21.3386C54.1519 18.3524 51.7311 15.9316 48.7449 15.9316C45.7587 15.9316 43.3379 18.3524 43.3379 21.3386C43.3379 24.3248 45.7587 26.7456 48.7449 26.7456Z" fill="#ABEDFF"/>
<path d="M48.6039 21.8864C48.6039 21.5484 48.6179 21.4754 48.2789 21.3554C47.6219 21.1164 47.1309 20.6654 47.1309 19.9404C47.1309 19.2234 47.6089 18.6264 48.3859 18.4804C48.5119 18.4544 48.5849 18.4274 48.5919 18.2544C48.5979 18.1084 48.8179 18.1214 48.9369 18.1214C49.0699 18.1214 49.0559 18.1814 49.0559 18.2804C49.0559 18.4604 49.2879 18.4334 49.4879 18.4664C49.5939 18.4864 50.2849 18.6054 50.2849 18.7584C50.2849 18.8114 50.0189 19.5884 49.9269 19.5884C49.7679 19.5884 49.6019 19.3164 49.2229 19.3164C49.0569 19.3164 49.0839 19.5424 49.0839 19.6484V20.2264C49.0839 20.5384 49.1039 20.6384 49.4219 20.7574C50.1989 21.0294 50.7039 21.5344 50.7039 22.3504C50.7039 23.2934 50.0929 23.9314 49.3159 23.9314C49.1699 23.9314 49.1099 24.0374 49.1099 24.1964C49.1099 24.3624 49.0039 24.3294 48.8639 24.3294C48.7379 24.3294 48.6379 24.3624 48.6319 24.2164C48.6249 23.9974 48.5199 23.9314 48.2939 23.9314C47.9219 23.9314 47.2249 23.6054 47.2249 23.4794C47.2249 23.3264 47.4509 22.4304 47.5709 22.4304C47.8229 22.4304 47.9889 22.8224 48.4269 22.8224C48.6249 22.8224 48.6059 22.6364 48.6059 22.5034V21.8864H48.6039ZM48.6039 19.6424C48.6039 19.4504 48.6369 19.3174 48.4709 19.3174C48.1719 19.3174 48.0259 19.6094 48.0259 19.8814C48.0259 20.1874 48.3589 20.4524 48.4849 20.4524C48.5849 20.4524 48.6039 20.2064 48.6039 20.0144V19.6424V19.6424ZM49.0829 22.5634C49.0829 22.7164 49.0829 22.8224 49.2749 22.8224C49.5929 22.8224 49.8059 22.5834 49.8059 22.2984C49.8059 22.0394 49.4269 21.7004 49.2139 21.7004C49.0679 21.7004 49.0819 21.8264 49.0819 21.9594V22.5634H49.0829Z" fill="white"/>
</svg>
