<svg width="106" height="81" viewBox="0 0 106 81" fill="none" xmlns="http://www.w3.org/2000/svg">
<path d="M69.3446 70.7268H37.3756C35.7746 70.7268 34.4766 69.3358 34.4766 67.6218V3.15578C34.4766 1.44078 35.7746 0.0507812 37.3756 0.0507812H69.3446C70.9456 0.0507812 72.2436 1.44078 72.2436 3.15578V67.6208C72.2436 69.3358 70.9456 70.7268 69.3446 70.7268Z" fill="#4396CA"/>
<path d="M66.9908 64.8504H39.7298C38.3648 64.8504 37.2578 63.6244 37.2578 62.1134V5.30536C37.2578 3.79336 38.3648 2.56836 39.7298 2.56836H66.9908C68.3558 2.56836 69.4628 3.79336 69.4628 5.30536V62.1144C69.4628 63.6244 68.3558 64.8504 66.9908 64.8504Z" fill="#61B3DB"/>
<path d="M58.846 67.6701C58.846 68.3191 58.32 68.8451 57.671 68.8451H49.052C48.403 68.8451 47.877 68.3191 47.877 67.6701C47.877 67.0211 48.403 66.4941 49.052 66.4941H57.671C58.32 66.4941 58.846 67.0201 58.846 67.6701Z" fill="#3287B2"/>
<path d="M61.9872 56.1521H44.7342C44.0032 56.1521 43.4102 55.5591 43.4102 54.8281V14.6951C43.4102 13.9641 44.0032 13.3711 44.7342 13.3711H61.9882C62.7192 13.3711 63.3122 13.9641 63.3122 14.6951V54.8281C63.3122 55.5601 62.7182 56.1521 61.9872 56.1521Z" fill="#CDEEFC"/>
<path d="M20.3182 56.6218H3.06423C2.33323 56.6218 1.74023 56.0288 1.74023 55.2978V15.1638C1.74023 14.4328 2.33323 13.8398 3.06423 13.8398H20.3172C21.0482 13.8398 21.6412 14.4328 21.6412 15.1638V55.2968C21.6422 56.0288 21.0492 56.6218 20.3182 56.6218Z" fill="#FFD56C"/>
<path d="M31.8751 38.57L24.7441 31.784L31.8751 24.998V38.57Z" fill="#FFCB2F"/>
<path d="M74.7363 38.57L81.8663 31.784L74.7363 24.998V38.57Z" fill="#FFCB2F"/>
<path d="M50.2789 27.4146H42.5059V27.1196H49.9849V12.6406H50.2789V27.4146Z" fill="#61B3DB"/>
<path d="M56.7579 12.1172H56.4629V59.7572H56.7579V12.1172Z" fill="#61B3DB"/>
<path d="M57.5752 42.2832L48.4082 42.3622L48.5652 74.0962L51.3862 75.4542C51.3862 75.4542 52.2222 62.8912 53.1112 52.4522C53.2702 50.5812 53.3212 49.2072 53.6842 49.1002C55.4602 48.5782 55.5962 50.5372 56.3542 52.0522C59.6392 58.6082 60.8922 60.6972 60.8922 60.6972L61.2122 74.0282L64.1302 73.6262C64.1302 73.6262 65.0902 62.6562 64.2342 59.4432C62.8712 54.3222 57.5752 42.2832 57.5752 42.2832Z" fill="#025482"/>
<path d="M55.9641 14.8606H50.7551C50.4731 14.8606 50.2441 14.6296 50.2441 14.3436V11.2416C50.2441 10.9556 50.4731 10.7246 50.7551 10.7246H55.9641C56.2471 10.7246 56.4761 10.9556 56.4761 11.2416V14.3436C56.4761 14.6286 56.2471 14.8606 55.9641 14.8606Z" fill="#CDEEFC"/>
<path d="M55.2025 12.2348C55.2025 12.3838 55.1145 12.5048 55.0065 12.5048H51.7155C51.6075 12.5048 51.5195 12.3838 51.5195 12.2348C51.5195 12.0858 51.6065 11.9648 51.7155 11.9648H55.0065C55.1145 11.9648 55.2025 12.0858 55.2025 12.2348Z" fill="#61B3DB"/>
<path d="M53.3259 12.7435C53.618 12.7435 53.8549 12.5067 53.8549 12.2145C53.8549 11.9224 53.618 11.6855 53.3259 11.6855C53.0337 11.6855 52.7969 11.9224 52.7969 12.2145C52.7969 12.5067 53.0337 12.7435 53.3259 12.7435Z" fill="#61B3DB"/>
<path d="M13.8782 14.8606H8.6692C8.3872 14.8606 8.1582 14.6296 8.1582 14.3436V11.2416C8.1582 10.9556 8.3872 10.7246 8.6692 10.7246H13.8782C14.1612 10.7246 14.3902 10.9556 14.3902 11.2416V14.3436C14.3892 14.6286 14.1602 14.8606 13.8782 14.8606Z" fill="#FFD56C"/>
<path d="M13.1146 12.2348C13.1146 12.3838 13.0266 12.5048 12.9186 12.5048H9.62764C9.51964 12.5048 9.43164 12.3838 9.43164 12.2348C9.43164 12.0858 9.51864 11.9648 9.62764 11.9648H12.9186C13.0276 11.9648 13.1146 12.0858 13.1146 12.2348Z" fill="white"/>
<path d="M11.238 12.7435C11.5301 12.7435 11.767 12.5067 11.767 12.2145C11.767 11.9224 11.5301 11.6855 11.238 11.6855C10.9458 11.6855 10.709 11.9224 10.709 12.2145C10.709 12.5067 10.9458 12.7435 11.238 12.7435Z" fill="white"/>
<path d="M26.85 17.5059H0V17.8009H26.85V17.5059Z" fill="white"/>
<path d="M26.85 44.25H0V44.545H26.85V44.25Z" fill="white"/>
<path d="M26.85 49.6836H0V49.9786H26.85V49.6836Z" fill="white"/>
<path d="M104.195 56.1521H86.9412C86.2102 56.1521 85.6172 55.5591 85.6172 54.8281V14.6951C85.6172 13.9641 86.2102 13.3711 86.9412 13.3711H104.195C104.926 13.3711 105.519 13.9641 105.519 14.6951V54.8281C105.518 55.5601 104.925 56.1521 104.195 56.1521Z" fill="#4396CA"/>
<path d="M97.7542 14.8606H92.5452C92.2622 14.8606 92.0332 14.6296 92.0332 14.3436V11.2416C92.0332 10.9556 92.2622 10.7246 92.5452 10.7246H97.7542C98.0372 10.7246 98.2662 10.9556 98.2662 11.2416V14.3436C98.2662 14.6286 98.0372 14.8606 97.7542 14.8606Z" fill="#4396CA"/>
<path d="M96.9916 12.2348C96.9916 12.3838 96.9036 12.5048 96.7956 12.5048H93.5046C93.3966 12.5048 93.3086 12.3838 93.3086 12.2348C93.3086 12.0858 93.3956 11.9648 93.5046 11.9648H96.7956C96.9036 11.9648 96.9916 12.0858 96.9916 12.2348Z" fill="white"/>
<path d="M95.1149 12.7435C95.4071 12.7435 95.6439 12.5067 95.6439 12.2145C95.6439 11.9224 95.4071 11.6855 95.1149 11.6855C94.8228 11.6855 94.5859 11.9224 94.5859 12.2145C94.5859 12.5067 94.8228 12.7435 95.1149 12.7435Z" fill="white"/>
<path d="M63.5052 17.3404C65.6977 17.3404 67.4752 15.563 67.4752 13.3704C67.4752 11.1778 65.6977 9.40039 63.5052 9.40039C61.3126 9.40039 59.5352 11.1778 59.5352 13.3704C59.5352 15.563 61.3126 17.3404 63.5052 17.3404Z" fill="#FFCB2F"/>
<path d="M63.5055 10.4766L64.3495 12.1886L66.2385 12.4626L64.8725 13.7956L65.1955 15.6766L63.5055 14.7886L61.8155 15.6766L62.1385 13.7956L60.7715 12.4626L62.6605 12.1886L63.5055 10.4766Z" fill="white"/>
<path d="M98.7969 60.3829H98.5019V17.8009H92.6329V58.9199H92.3379V17.5059H98.7969V60.3829Z" fill="white"/>
<path d="M48.4612 73.6777H51.4912V79.8417C51.4912 80.3027 51.1172 80.6767 50.6552 80.6767H45.6402C44.4912 80.6767 44.3332 78.7257 46.3712 78.4827C47.0132 78.4067 48.1952 78.1347 48.3562 77.4907C48.7742 75.8197 48.4612 73.6777 48.4612 73.6777Z" fill="#062C3F"/>
<path d="M64.1599 73.3242L61.2129 74.0272L62.6439 80.0232C62.7509 80.4722 63.2019 80.7492 63.6509 80.6422L68.5279 79.4772C69.6459 79.2102 69.3459 77.2762 67.3069 77.5132C66.6649 77.5882 65.4529 77.5982 65.1459 77.0082C64.3519 75.4792 64.1599 73.3242 64.1599 73.3242Z" fill="#062C3F"/>
<path d="M57.3793 43.0667H48.7603C47.8733 43.0667 47.1543 42.3477 47.1543 41.4607V28.4537C47.1543 27.5667 47.8733 26.8477 48.7603 26.8477H57.3793C58.2663 26.8477 58.9853 27.5667 58.9853 28.4537V41.4607C58.9863 42.3477 58.2663 43.0667 57.3793 43.0667Z" fill="#062C3F"/>
<path d="M53.2259 29.7466C54.9352 29.7466 56.3209 28.361 56.3209 26.6516C56.3209 24.9423 54.9352 23.5566 53.2259 23.5566C51.5165 23.5566 50.1309 24.9423 50.1309 26.6516C50.1309 28.361 51.5165 29.7466 53.2259 29.7466Z" fill="#D8A252"/>
<path d="M41.1996 32.5684C41.1996 32.5684 36.0286 35.8594 35.9496 36.7214C35.8716 37.5834 47.0516 45.4904 47.0756 45.8884C47.1546 47.1424 45.0386 45.6534 44.9606 46.3584C44.9286 46.6404 46.3526 48.0324 46.9976 48.0044C48.1826 47.9504 49.0026 46.0964 48.7996 45.1834C48.4866 43.7724 39.7366 37.1364 40.1546 36.7734C41.7216 35.4154 43.7066 34.6054 43.7066 34.6054L41.1996 32.5684Z" fill="#D8A252"/>
<path d="M51.127 31.1158L43.053 36.0388L40.373 31.6428L47.991 27.0558C48.431 26.7908 49.12 26.9398 49.402 27.3688L51.127 31.1158Z" fill="#062C3F"/>
<path d="M63.4529 31.3131C63.6619 31.3131 66.4309 33.8211 67.5279 34.7611C68.3009 35.4241 70.0089 36.7981 70.5839 36.1721C70.9719 35.7481 72.7339 33.8041 73.9529 32.1761C74.5379 31.3941 75.0609 30.3691 75.1289 30.2171C75.3369 29.7471 76.4349 27.5011 76.7999 27.8661C77.1649 28.2311 76.2249 29.5901 76.2779 29.9551C76.3309 30.3201 77.0659 30.8701 77.0089 31.2351C76.8519 32.2541 75.5199 32.8021 75.2849 33.1941C73.7669 35.7251 71.1949 39.5811 70.0609 39.6191C68.4939 39.6711 60.7109 33.1161 60.7109 33.1161L63.4529 31.3131Z" fill="#D8A252"/>
<path d="M55.207 31.1158L63.281 36.0388L65.961 31.6428L58.343 27.0558C57.903 26.7908 57.214 26.9398 56.932 27.3688L55.207 31.1158Z" fill="#062C3F"/>
<path d="M54.5195 24.418H51.8555V28.022H54.5195V24.418Z" fill="#D8A252"/>
<path d="M53.3048 25.5178C55.4471 25.5178 57.1838 23.7811 57.1838 21.6388C57.1838 19.4965 55.4471 17.7598 53.3048 17.7598C51.1625 17.7598 49.4258 19.4965 49.4258 21.6388C49.4258 23.7811 51.1625 25.5178 53.3048 25.5178Z" fill="#D8A252"/>
<path d="M52.3643 24.2619C54.5061 24.2619 56.2423 22.5256 56.2423 20.3839C56.2423 18.2421 54.5061 16.5059 52.3643 16.5059C50.2226 16.5059 48.4863 18.2421 48.4863 20.3839C48.4863 22.5256 50.2226 24.2619 52.3643 24.2619Z" fill="#DD6E1B"/>
<path d="M57.2231 22.9307C57.7638 22.9307 58.2021 22.4923 58.2021 21.9517C58.2021 21.411 57.7638 20.9727 57.2231 20.9727C56.6825 20.9727 56.2441 21.411 56.2441 21.9517C56.2441 22.4923 56.6825 22.9307 57.2231 22.9307Z" fill="#D8A252"/>
<path d="M52.6789 18.6985C52.2869 17.9935 51.4359 14.8005 47.5079 14.4275C43.7859 14.0745 40.7299 16.1515 40.9659 19.5985C41.2009 23.0465 41.9059 23.7125 42.1799 26.4155C42.3059 27.6655 41.7489 29.5885 41.7489 29.5885C41.7489 29.5885 45.8239 27.7085 46.1369 24.1825C46.4499 20.6565 46.7239 18.9325 48.8789 18.1095C50.6179 17.4465 52.6789 18.6985 52.6789 18.6985Z" fill="#DD6E1B"/>
<path d="M51.8765 18.5811C52.2332 18.5811 52.5225 18.2918 52.5225 17.9351C52.5225 17.5783 52.2332 17.2891 51.8765 17.2891C51.5197 17.2891 51.2305 17.5783 51.2305 17.9351C51.2305 18.2918 51.5197 18.5811 51.8765 18.5811Z" fill="#025482"/>
</svg>
