<svg width="82" height="99" viewBox="0 0 82 99" fill="none" xmlns="http://www.w3.org/2000/svg">
<path d="M17.8245 59.0195L7.98047 60.2035C7.98047 60.2035 12.0555 75.8705 12.1575 81.3815C12.2555 86.7375 10.0245 89.5345 10.0245 89.5345L12.1615 91.6825C12.1615 91.6825 15.5975 89.6365 15.5975 81.3815C15.5975 77.9425 14.6405 73.1835 13.9265 68.8025C13.6245 66.9495 14.0225 65.8575 14.3685 65.7065C15.4985 65.2155 16.2615 66.0785 16.6785 67.7215C17.5635 71.2105 18.8025 75.4785 19.4795 78.6795C21.0835 86.2645 21.4615 92.2385 21.4615 92.2385L24.4905 91.9955C24.4905 91.9955 23.8595 80.4215 22.7215 75.7805C20.8545 68.1635 17.8245 59.0195 17.8245 59.0195Z" fill="#062C3F"/>
<path d="M12.1617 91.6812L10.0247 89.5332L5.65471 93.8792C5.32771 94.2052 5.32571 94.7342 5.65071 95.0612L9.18672 98.6172C9.99772 99.4322 11.4927 98.1682 10.2267 96.5522C9.8287 96.0432 9.18772 95.0132 9.53172 94.4452C10.4227 92.9692 12.1617 91.6812 12.1617 91.6812Z" fill="#4396CA"/>
<path d="M24.5046 91.8574L21.4746 91.8764L21.5126 98.0404C21.5156 98.5024 21.8926 98.8734 22.3536 98.8714L27.3686 98.8404C28.5176 98.8334 28.6636 96.8814 26.6246 96.6514C25.9816 96.5794 24.7986 96.3154 24.6336 95.6714C24.2036 94.0014 24.5046 91.8574 24.5046 91.8574Z" fill="#4396CA"/>
<path d="M18.0586 60.397L9.80057 62.869C8.95057 63.123 8.05657 62.64 7.80157 61.79L3.11456 50.227C2.86056 49.377 3.34357 48.482 4.19257 48.227L14.5796 44.529C15.4296 44.275 16.9136 45.642 17.1686 46.491L19.1366 58.397C19.3906 59.248 18.9086 60.143 18.0586 60.397Z" fill="#025482"/>
<path d="M12.6055 49.7415L21.9195 51.3745L22.8085 46.3035L15.2135 44.4865C14.7075 44.4005 14.1205 44.7915 14.0155 45.2935L12.6055 49.7415Z" fill="#025482"/>
<path d="M60.0716 37.8881H27.6526C26.7046 37.8881 25.9355 37.1491 25.9355 36.2381V19.3131C25.9355 18.4011 26.7046 17.6621 27.6526 17.6621H60.0716C61.0196 17.6621 61.7885 18.4011 61.7885 19.3131V36.2381C61.7885 37.1491 61.0196 37.8881 60.0716 37.8881Z" fill="#4396CA"/>
<path d="M55.701 17.7709H43.077C42.435 17.7709 41.916 17.2509 41.916 16.6099V4.70788C41.916 4.06688 42.436 3.54688 43.077 3.54688H55.701C56.342 3.54688 56.861 4.06688 56.861 4.70788V16.6099C56.861 17.2519 56.341 17.7709 55.701 17.7709Z" fill="#025482"/>
<path d="M52.4741 79.9462C54.9925 79.9462 57.0341 77.9046 57.0341 75.3862C57.0341 72.8678 54.9925 70.8262 52.4741 70.8262C49.9556 70.8262 47.9141 72.8678 47.9141 75.3862C47.9141 77.9046 49.9556 79.9462 52.4741 79.9462Z" fill="#FFCB2F"/>
<path d="M52.4749 72.1055L53.446 74.0715L55.6149 74.3875L54.0459 75.9175L54.4159 78.0785L52.4749 77.0585L50.5349 78.0785L50.9059 75.9175L49.3359 74.3875L51.506 74.0715L52.4749 72.1055Z" fill="white"/>
<path d="M1.46992 55.4121C1.07592 56.0021 -0.430071 62.7531 2.50093 65.7311C7.21893 70.5221 15.1669 69.4461 16.3579 69.3421C18.0529 69.1951 20.3869 70.2761 22.0579 69.2931C23.7279 68.3101 23.6299 67.6221 20.1909 67.7201C16.7509 67.8191 16.7449 67.8851 15.1049 67.5241C10.9769 66.6151 6.31092 64.5891 5.15492 62.9301C3.45992 60.4971 5.00792 57.1071 5.00792 57.1071L1.46992 55.4121Z" fill="#D8A252"/>
<path d="M71.3411 68.6052H20.3611C18.8711 68.6052 17.6621 67.3972 17.6621 65.9062V40.3982C17.6621 38.9072 18.8711 37.6992 20.3611 37.6992H71.3411C72.8311 37.6992 74.0401 38.9072 74.0401 40.3982V65.9062C74.0401 67.3972 72.8311 68.6052 71.3411 68.6052Z" fill="#FFCB2F"/>
<path d="M8.92093 49.9877L4.68994 58.4447L0.0859375 56.1407L3.15292 49.1067C3.38492 48.6487 4.04895 48.4097 4.51495 48.6247L8.92093 49.9877Z" fill="#025482"/>
<path d="M17.832 67.7946C19.544 67.9826 20.78 66.8366 20.633 67.4996C20.505 68.0756 18.938 68.7526 18.938 68.7526L17.832 67.7946Z" fill="#D8A252"/>
<path d="M14.9042 48.6197C14.9942 48.9667 14.7853 49.3207 14.4373 49.4107L12.3632 49.9437C12.0162 50.0327 11.6622 49.8237 11.5732 49.4767C11.4842 49.1297 11.6932 48.7757 12.0402 48.6867L14.1143 48.1537C14.4623 48.0637 14.8152 48.2727 14.9042 48.6197Z" fill="#4396CA"/>
<path d="M9.06238 47.6736C10.5552 47.6736 11.7654 46.4634 11.7654 44.9706C11.7654 43.4778 10.5552 42.2676 9.06238 42.2676C7.56955 42.2676 6.35938 43.4778 6.35938 44.9706C6.35938 46.4634 7.56955 47.6736 9.06238 47.6736Z" fill="#D8A252"/>
<path d="M9.50061 41.5671L6.43359 42.6719L8.15825 47.4596L11.2253 46.3548L9.50061 41.5671Z" fill="#D8A252"/>
<path d="M7.48782 44.8213C9.68592 44.8213 11.4678 43.0394 11.4678 40.8413C11.4678 38.6432 9.68592 36.8613 7.48782 36.8613C5.28973 36.8613 3.50781 38.6432 3.50781 40.8413C3.50781 43.0394 5.28973 44.8213 7.48782 44.8213Z" fill="#D8A252"/>
<path d="M3.31263 41.8734L12.3536 38.7284C12.3536 38.7284 9.30665 33.8144 4.49165 36.9594C-0.324351 40.1044 3.31263 41.8734 3.31263 41.8734Z" fill="#062C3F"/>
<path d="M4.02576 44.1843C4.60952 44.1843 5.08276 43.7111 5.08276 43.1273C5.08276 42.5435 4.60952 42.0703 4.02576 42.0703C3.44199 42.0703 2.96875 42.5435 2.96875 43.1273C2.96875 43.7111 3.44199 44.1843 4.02576 44.1843Z" fill="#D8A252"/>
<path d="M11.0762 39.1719C11.0762 39.1719 15.2532 39.5159 14.3682 40.8919C13.4832 42.2679 3.65625 41.7769 3.65625 41.7769L11.0762 39.1719Z" fill="#025482"/>
<path d="M69.4314 32.0601C72.004 32.0601 74.0894 29.9747 74.0894 27.4021C74.0894 24.8296 72.004 22.7441 69.4314 22.7441C66.8589 22.7441 64.7734 24.8296 64.7734 27.4021C64.7734 29.9747 66.8589 32.0601 69.4314 32.0601Z" fill="#4396CA"/>
<path d="M71.4763 25.7132C70.7793 25.3382 69.8643 25.8092 69.4373 26.4582C69.0103 25.8092 68.0483 25.3382 67.3503 25.7132C66.6123 26.1092 66.4373 26.8792 66.8333 27.6172C67.2293 28.3552 69.4333 30.1542 69.4373 30.1322C69.4423 30.1542 71.6442 28.3562 72.0412 27.6172C72.4382 26.8782 72.2153 26.1092 71.4763 25.7132Z" fill="white"/>
<path d="M29.5864 13.4639C31.5078 13.4639 33.0654 11.9063 33.0654 9.98486C33.0654 8.06346 31.5078 6.50586 29.5864 6.50586C27.665 6.50586 26.1074 8.06346 26.1074 9.98486C26.1074 11.9063 27.665 13.4639 29.5864 13.4639Z" fill="#025482"/>
<path d="M29.9825 8.05859H29.1895V11.9116H29.9825V8.05859Z" fill="white"/>
<path d="M31.5132 9.58789H27.6602V10.3809H31.5132V9.58789Z" fill="white"/>
<path d="M81.3448 42.4141H16.0898V42.7091H81.3448V42.4141Z" fill="white"/>
<path d="M67.9542 42.6836H67.6602V73.9346H67.9542V42.6836Z" fill="white"/>
<path d="M24.4434 42.6836H24.1484V73.9346H24.4434V42.6836Z" fill="white"/>
<path d="M63.6046 30.4258H24.3926V30.7208H63.6046V30.4258Z" fill="white"/>
<path d="M63.6046 31.9004H24.3926V32.1954H63.6046V31.9004Z" fill="white"/>
<path d="M52.9903 0.794922H52.6953V21.4329H52.9903V0.794922Z" fill="white"/>
<path d="M26.957 57.4427V52.2617H28.961C29.832 52.2617 30.483 52.5197 30.916 53.0357C31.349 53.5517 31.565 54.1487 31.565 54.8277C31.565 55.6017 31.333 56.2317 30.868 56.7157C30.404 57.2007 29.802 57.4427 29.06 57.4427H26.957ZM28.548 56.2517H28.961C29.225 56.2517 29.446 56.1237 29.628 55.8677C29.809 55.6127 29.899 55.2637 29.899 54.8247C29.899 54.4477 29.819 54.1227 29.659 53.8487C29.498 53.5757 29.265 53.4387 28.962 53.4387H28.549V56.2517H28.548Z" fill="#062C3F"/>
<path d="M36.3687 56.2077V57.4447H32.4707V52.2637H36.3687V53.4587H34.0307V54.2097H35.9207V55.3597H34.0307V56.2067H36.3687V56.2077Z" fill="#062C3F"/>
<path d="M41.176 56.1717V57.4427H37.543V52.2617H39.134V56.1717H41.176V56.1717Z" fill="#062C3F"/>
<path d="M43.8625 52.2637V57.4447H42.2715V52.2637H43.8625Z" fill="#062C3F"/>
<path d="M49.7938 52.2637L48.1868 57.4447H46.5658L44.8848 52.2637H46.5608L47.3808 55.0877C47.4368 55.2547 47.4857 55.4197 47.5287 55.5807L48.4857 52.2637H49.7938Z" fill="#062C3F"/>
<path d="M54.5582 56.2077V57.4447H50.6602V52.2637H54.5582V53.4587H52.2191V54.2097H54.1101V55.3597H52.2191V56.2067H54.5582V56.2077Z" fill="#062C3F"/>
<path d="M60.4987 57.4427H58.7357L57.9787 55.4617H57.4767V57.4427H55.8867V52.2617H58.5927C59.1907 52.2617 59.6547 52.4017 59.9847 52.6807C60.3147 52.9597 60.4797 53.3287 60.4797 53.7867C60.4797 54.0847 60.4187 54.3487 60.2967 54.5787C60.1757 54.8077 59.9307 55.0097 59.5607 55.1837L60.4987 57.4427ZM57.4767 54.3537H58.1567C58.3567 54.3537 58.5167 54.3117 58.6387 54.2287C58.7597 54.1457 58.8207 54.0227 58.8207 53.8607C58.8207 53.5287 58.6177 53.3627 58.2107 53.3627H57.4777V54.3537H57.4767Z" fill="#062C3F"/>
<path d="M65.6297 52.2637L64.0087 55.2507V57.4437H62.4637V55.2507L60.7207 52.2637H62.4607L63.3687 53.9717L64.2387 52.2637H65.6297Z" fill="#062C3F"/>
</svg>
