<svg width="108" height="84" viewBox="0 0 108 84" fill="none" xmlns="http://www.w3.org/2000/svg">
<path d="M7.79015 59.7541C11.8887 59.7541 15.2112 56.4316 15.2112 52.3331C15.2112 48.2346 11.8887 44.9121 7.79015 44.9121C3.69164 44.9121 0.369141 48.2346 0.369141 52.3331C0.369141 56.4316 3.69164 59.7541 7.79015 59.7541Z" fill="#4396CA"/>
<path d="M7.12735 54.9727C6.99735 54.9727 6.86635 54.9297 6.75935 54.8437L4.05736 52.6817C3.80336 52.4787 3.76135 52.1077 3.96535 51.8537C4.16935 51.5987 4.54036 51.5578 4.79436 51.7608L7.14834 53.6448L11.5144 50.5257C11.7794 50.3367 12.1473 50.3977 12.3363 50.6637C12.5253 50.9287 12.4644 51.2967 12.1994 51.4857L7.47035 54.8638C7.36735 54.9368 7.24735 54.9727 7.12735 54.9727Z" fill="white"/>
<path d="M85.2553 65.3832H21.6573C19.3313 65.3832 17.4453 63.4972 17.4453 61.1712V21.3702C17.4453 19.0442 19.3313 17.1582 21.6573 17.1582H85.2553C87.5813 17.1582 89.4673 19.0442 89.4673 21.3702V61.1712C89.4663 63.4982 87.5813 65.3832 85.2553 65.3832Z" fill="#4396CA"/>
<path d="M81.4909 62.3781H24.1709C22.0069 62.3781 20.2539 60.7281 20.2539 58.6911V23.8491C20.2539 21.8131 22.0079 20.1621 24.1709 20.1621H81.4909C83.6549 20.1621 85.4079 21.8121 85.4079 23.8491V58.6911C85.4079 60.7281 83.6549 62.3781 81.4909 62.3781Z" fill="#61B3DB"/>
<path d="M87.4748 37.3516C87.9378 37.3516 88.3138 37.7276 88.3138 38.1916V44.3476C88.3138 44.8116 87.9378 45.1876 87.4748 45.1876C87.0108 45.1876 86.6348 44.8116 86.6348 44.3476V38.1916C86.6348 37.7276 87.0108 37.3516 87.4748 37.3516Z" fill="#3287B2"/>
<path d="M34.2065 27.7255H14.6035V27.4305H33.9115V16.7695H34.2065V27.7255Z" fill="white"/>
<path d="M89.186 30.9688L89.183 30.6738L89.186 30.9688H17.125V30.6738H89.186V30.9688Z" fill="white"/>
<path d="M54.9239 64.3289H54.6289V50.6699H89.0039V50.9639H54.9239V64.3289Z" fill="white"/>
<path d="M32.9454 65.769H32.6514V39.795H12.4414V39.5H32.9454V65.769Z" fill="white"/>
<path d="M69.3336 24.3029H61.4727V17.6699H61.7677V24.0079H69.0387V18.5719H69.3336V24.3029Z" fill="white"/>
<path d="M74.0838 80.9137C77.7847 80.9137 80.7848 77.9136 80.7848 74.2127C80.7848 70.5119 77.7847 67.5117 74.0838 67.5117C70.383 67.5117 67.3828 70.5119 67.3828 74.2127C67.3828 77.9136 70.383 80.9137 74.0838 80.9137Z" fill="#4396CA"/>
<path d="M65.1939 48.2961H40.4699C39.0149 48.2961 37.8359 47.1161 37.8359 45.6611V36.3391C37.8359 34.8851 39.0149 33.7051 40.4699 33.7051H65.1939C66.6489 33.7051 67.8279 34.8851 67.8279 36.3391V45.6611C67.8279 47.1171 66.6489 48.2961 65.1939 48.2961Z" fill="#025482"/>
<path d="M13.6784 17.5034C16.7326 17.5034 19.2084 15.0275 19.2084 11.9734C19.2084 8.91922 16.7326 6.44336 13.6784 6.44336C10.6243 6.44336 8.14844 8.91922 8.14844 11.9734C8.14844 15.0275 10.6243 17.5034 13.6784 17.5034Z" fill="#FFCB2F"/>
<path d="M13.6791 8.08203L14.8561 10.467L17.4871 10.849L15.5831 12.706L16.0331 15.326L13.6791 14.088L11.3261 15.326L11.7751 12.706L9.87109 10.849L12.5031 10.467L13.6791 8.08203Z" fill="white"/>
<path d="M92.9695 17.5034C96.0236 17.5034 98.4995 15.0275 98.4995 11.9734C98.4995 8.91922 96.0236 6.44336 92.9695 6.44336C89.9153 6.44336 87.4395 8.91922 87.4395 11.9734C87.4395 15.0275 89.9153 17.5034 92.9695 17.5034Z" fill="#4396CA"/>
<path d="M95.3984 9.97001C94.5694 9.52601 93.4844 10.084 92.9774 10.855C92.4704 10.084 91.3284 9.52601 90.4994 9.97001C89.6224 10.441 89.4154 11.355 89.8864 12.231C90.3574 13.108 92.9714 15.243 92.9764 15.217C92.9814 15.242 95.5964 13.108 96.0674 12.231C96.5384 11.355 96.2744 10.441 95.3984 9.97001Z" fill="white"/>
<path d="M53.4578 15.1617C57.4569 15.1617 60.6988 11.9198 60.6988 7.92068C60.6988 3.92159 57.4569 0.679688 53.4578 0.679688C49.4587 0.679688 46.2168 3.92159 46.2168 7.92068C46.2168 11.9198 49.4587 15.1617 53.4578 15.1617Z" fill="#062C3F"/>
<path d="M92.9695 76.3901C96.0236 76.3901 98.4995 73.9142 98.4995 70.8601C98.4995 67.8059 96.0236 65.3301 92.9695 65.3301C89.9153 65.3301 87.4395 67.8059 87.4395 70.8601C87.4395 73.9142 89.9153 76.3901 92.9695 76.3901Z" fill="#025482"/>
<path d="M93.6008 67.7969H92.3398V73.9219H93.6008V67.7969Z" fill="white"/>
<path d="M96.0312 70.2285H89.9062V71.4895H96.0312V70.2285Z" fill="white"/>
<path d="M11.0491 66.2654C9.78612 63.5974 8.24112 48.2944 10.3471 46.3294C12.4531 44.3634 15.2611 43.6614 15.9631 43.5214C16.6651 43.3804 15.2611 34.1144 18.2091 33.5524C19.8641 33.2384 21.7191 33.8334 21.5791 39.1684C21.3931 46.2074 20.4551 65.9824 20.4551 65.9824L11.0491 66.2654Z" fill="#EFBD7D"/>
<path d="M16.5532 47.0821L16.248 36.1895L15.9532 36.1977L16.2583 47.0904L16.5532 47.0821Z" fill="#61B3DB"/>
<path d="M18.9095 37.5554C19.7236 37.5554 20.3835 36.8955 20.3835 36.0814C20.3835 35.2674 19.7236 34.6074 18.9095 34.6074C18.0955 34.6074 17.4355 35.2674 17.4355 36.0814C17.4355 36.8955 18.0955 37.5554 18.9095 37.5554Z" fill="#EF9A6F"/>
<path d="M10.8379 65.8438H20.4549V82.2697C20.4549 82.8127 20.0149 83.2517 19.4729 83.2517H11.8219C11.2789 83.2517 10.8389 82.8127 10.8389 82.2697V65.8438H10.8379Z" fill="#CDEEFC"/>
<path d="M72.707 65.8438L82.895 69.5038L84.641 82.2697C84.641 82.8127 84.201 83.2517 83.658 83.2517H73.69C73.147 83.2517 72.707 82.8127 72.707 82.2697V65.8438Z" fill="#CDEEFC"/>
<path d="M62.2115 61.4223C61.3745 59.8133 62.5865 58.3673 64.8715 54.8623C65.4345 53.9993 64.9834 52.1593 63.8574 49.7943C61.4964 44.8363 59.8955 41.2453 62.7315 39.5443C65.5475 37.8553 66.1105 42.5853 67.4615 46.1903C68.8125 49.7953 69.1505 52.0473 70.0525 52.0473C70.3725 52.0473 70.6475 51.6283 72.3195 51.5253C73.7755 51.4343 73.6355 52.1043 74.5835 52.1573C75.5625 52.2123 76.4604 51.5843 77.6894 51.7893C78.1214 51.8603 78.7665 52.3413 79.4795 52.5783C80.1115 52.7893 81.5324 52.2633 82.4804 53.1573C84.9214 55.4633 82.8935 69.5063 82.8935 69.5063L72.8314 73.1103C72.8314 73.1103 68.3255 70.3103 66.5285 69.0043C65.3695 68.1623 63.5795 64.0553 62.2115 61.4223Z" fill="#EFBD7D"/>
<path d="M67.7289 63.1127L64.9219 52.584L64.6369 52.66L67.4439 63.1887L67.7289 63.1127Z" fill="#61B3DB"/>
<path d="M63.931 43.8738C64.7451 43.8738 65.405 43.2138 65.405 42.3998C65.405 41.5857 64.7451 40.9258 63.931 40.9258C63.117 40.9258 62.457 41.5857 62.457 42.3998C62.457 43.2138 63.117 43.8738 63.931 43.8738Z" fill="#EF9A6F"/>
<path d="M10.5563 64.4414H20.4533V68.9334H10.5563C9.89728 68.9334 9.36328 68.3994 9.36328 67.7414V65.6354C9.36228 64.9754 9.89728 64.4414 10.5563 64.4414Z" fill="#E6F9FF"/>
<path d="M83.7529 70.4109L84.4659 72.3939C84.6889 73.0129 84.3669 73.6969 83.7469 73.9189L73.1788 77.7179C72.5588 77.9419 71.8759 77.6189 71.6529 76.9989L70.9399 75.0169C70.7169 74.3969 71.0389 73.7129 71.6589 73.4909L82.2269 69.6919C82.8469 69.4689 83.5299 69.7899 83.7529 70.4109Z" fill="#E6F9FF"/>
<path d="M46.2246 43.4736V38.7246H48.6356C49.1366 38.7246 49.5026 38.8516 49.7316 39.1046C49.9606 39.3576 50.0756 39.6456 50.0756 39.9706C50.0756 40.2066 50.0086 40.4206 49.8756 40.6126C49.7426 40.8046 49.5436 40.9356 49.2786 41.0086C49.8936 41.1556 50.2006 41.5256 50.2006 42.1136C50.2006 42.4666 50.0926 42.7816 49.8756 43.0576C49.6586 43.3346 49.1956 43.4736 48.4856 43.4736H46.2246ZM47.5676 40.5446H48.2426C48.4116 40.5446 48.5306 40.5016 48.6006 40.4156C48.6706 40.3296 48.7046 40.2376 48.7046 40.1406C48.7046 39.8756 48.5426 39.7446 48.2176 39.7446H47.5676V40.5446V40.5446ZM47.5676 42.4156H48.2766C48.4536 42.4156 48.5826 42.3726 48.6646 42.2856C48.7466 42.1986 48.7886 42.0996 48.7886 41.9906C48.7886 41.8826 48.7486 41.7816 48.6686 41.6906C48.5886 41.5986 48.4416 41.5516 48.2286 41.5516H47.5676V42.4156Z" fill="white"/>
<path d="M55.0103 38.7246V41.8706C55.0103 42.4666 54.8333 42.8946 54.4803 43.1556C54.1263 43.4166 53.6653 43.5476 53.0973 43.5476C52.4993 43.5476 52.0183 43.4216 51.6553 43.1716C51.2923 42.9206 51.1113 42.5126 51.1113 41.9466V38.7246H52.5933V41.7766C52.5933 42.0036 52.6413 42.1696 52.7373 42.2736C52.8333 42.3776 52.9863 42.4296 53.1963 42.4296C53.3723 42.4296 53.5163 42.3926 53.6283 42.3166C53.7403 42.2416 53.8083 42.1566 53.8293 42.0616C53.8513 41.9656 53.8623 41.7806 53.8623 41.5036V38.7246H55.0103V38.7246Z" fill="white"/>
<path d="M60.0879 38.7246L58.6019 41.4626V43.4736H57.1859V41.4626L55.5879 38.7246H57.1829L58.0159 40.2896L58.8139 38.7246H60.0879Z" fill="white"/>
<g opacity="0.19">
<path opacity="0.19" d="M76.7543 44.6935C76.7543 45.6875 75.9483 46.4945 74.9533 46.4945C73.9583 46.4945 73.1523 45.6875 73.1523 44.6935V24.1565C73.1523 23.1625 73.9593 22.3555 74.9533 22.3555C75.9483 22.3555 76.7543 23.1625 76.7543 24.1565V44.6935Z" fill="white"/>
</g>
<g opacity="0.19">
<path opacity="0.19" d="M82.3393 31.5415C82.3393 32.5355 81.5323 33.3425 80.5373 33.3425C79.5423 33.3425 78.7363 32.5355 78.7363 31.5415V24.1545C78.7363 23.1605 79.5423 22.3535 80.5373 22.3535C81.5323 22.3535 82.3393 23.1605 82.3393 24.1545V31.5415Z" fill="white"/>
</g>
<path d="M57.4866 11.1448H49.6056C49.2796 11.1448 49.0156 10.8798 49.0156 10.5548V5.51578C49.0156 5.19078 49.2796 4.92578 49.6056 4.92578H57.4866C57.8126 4.92578 58.0766 5.19078 58.0766 5.51578V10.5548C58.0766 10.8798 57.8126 11.1448 57.4866 11.1448ZM50.1956 9.96478H56.8976V6.10577H50.1956V9.96478Z" fill="white"/>
<path d="M53.6454 9.0271C54.264 9.0271 54.7654 8.52566 54.7654 7.9071C54.7654 7.28855 54.264 6.78711 53.6454 6.78711C53.0268 6.78711 52.5254 7.28855 52.5254 7.9071C52.5254 8.52566 53.0268 9.0271 53.6454 9.0271Z" fill="white"/>
<path d="M55.6706 5.952C55.2636 5.952 54.9336 5.622 54.9336 5.215V4.612C54.9336 4.205 55.2636 3.875 55.6706 3.875C56.0776 3.875 56.4076 4.205 56.4076 4.612V5.215C56.4076 5.622 56.0776 5.952 55.6706 5.952Z" fill="white"/>
<path d="M33.0096 14.9821C36.7105 14.9821 39.7106 11.982 39.7106 8.2811C39.7106 4.58024 36.7105 1.58008 33.0096 1.58008C29.3087 1.58008 26.3086 4.58024 26.3086 8.2811C26.3086 11.982 29.3087 14.9821 33.0096 14.9821Z" fill="#4396CA"/>
<path d="M30.2325 11.3694C30.0795 11.3694 29.9255 11.3094 29.8105 11.1914C29.5825 10.9584 29.5875 10.5854 29.8205 10.3584L35.2925 5.02143C35.5255 4.79343 35.8985 4.79844 36.1265 5.03144C36.3545 5.26444 36.3495 5.63743 36.1165 5.86543L30.6445 11.2024C30.5285 11.3134 30.3805 11.3694 30.2325 11.3694Z" fill="white"/>
<path d="M31.0418 7.33362C31.7509 7.33362 32.3258 6.75876 32.3258 6.04962C32.3258 5.34049 31.7509 4.76562 31.0418 4.76562C30.3327 4.76562 29.7578 5.34049 29.7578 6.04962C29.7578 6.75876 30.3327 7.33362 31.0418 7.33362Z" fill="white"/>
<path d="M35.1619 11.3199C35.8705 11.3199 36.4449 10.7455 36.4449 10.0369C36.4449 9.32831 35.8705 8.75391 35.1619 8.75391C34.4533 8.75391 33.8789 9.32831 33.8789 10.0369C33.8789 10.7455 34.4533 11.3199 35.1619 11.3199Z" fill="white"/>
<path d="M35.162 10.572C35.4574 10.572 35.697 10.3324 35.697 10.037C35.697 9.74148 35.4574 9.50195 35.162 9.50195C34.8665 9.50195 34.627 9.74148 34.627 10.037C34.627 10.3324 34.8665 10.572 35.162 10.572Z" fill="#4396CA"/>
<path d="M31.0409 6.58563C31.3363 6.58563 31.5759 6.3461 31.5759 6.05063C31.5759 5.75516 31.3363 5.51562 31.0409 5.51562C30.7454 5.51562 30.5059 5.75516 30.5059 6.05063C30.5059 6.3461 30.7454 6.58563 31.0409 6.58563Z" fill="#4396CA"/>
<path d="M74.0838 14.9821C77.7847 14.9821 80.7848 11.982 80.7848 8.2811C80.7848 4.58024 77.7847 1.58008 74.0838 1.58008C70.383 1.58008 67.3828 4.58024 67.3828 8.2811C67.3828 11.982 70.383 14.9821 74.0838 14.9821Z" fill="#FFD56C"/>
<path d="M78.9856 8.69965C78.9856 8.69965 77.1376 11.4287 73.9256 11.2517C70.9766 11.0907 69.3926 8.69965 69.3926 8.69965C69.3926 8.69965 70.7126 5.70763 73.9256 5.61963C77.6656 5.51663 78.9856 8.69965 78.9856 8.69965Z" fill="white"/>
<path d="M74.2779 10.507C75.3957 10.507 76.3019 9.60083 76.3019 8.483C76.3019 7.36518 75.3957 6.45898 74.2779 6.45898C73.1601 6.45898 72.2539 7.36518 72.2539 8.483C72.2539 9.60083 73.1601 10.507 74.2779 10.507Z" fill="#FFD56C"/>
<path d="M99.8439 59.7561C103.943 59.7561 107.266 56.4332 107.266 52.3341C107.266 48.235 103.943 44.9121 99.8439 44.9121C95.7448 44.9121 92.4219 48.235 92.4219 52.3341C92.4219 56.4332 95.7448 59.7561 99.8439 59.7561Z" fill="#FFCB2F"/>
<path d="M99.649 53.0844C99.649 52.6194 99.668 52.5204 99.202 52.3554C98.3 52.0274 97.625 51.4074 97.625 50.4144C97.625 49.4304 98.281 48.6094 99.348 48.4084C99.521 48.3724 99.621 48.3364 99.631 48.0984C99.64 47.8984 99.941 47.9164 100.105 47.9164C100.288 47.9164 100.269 47.9984 100.269 48.1354C100.269 48.3814 100.588 48.3454 100.862 48.3904C101.008 48.4174 101.956 48.5814 101.956 48.7904C101.956 48.8634 101.591 49.9304 101.464 49.9304C101.245 49.9304 101.017 49.5574 100.498 49.5574C100.27 49.5574 100.307 49.8674 100.307 50.0124V50.8054C100.307 51.2344 100.334 51.3704 100.772 51.5344C101.838 51.9074 102.531 52.6004 102.531 53.7224C102.531 55.0164 101.692 55.8914 100.626 55.8914C100.425 55.8914 100.343 56.0374 100.343 56.2554C100.343 56.4844 100.197 56.4384 100.006 56.4384C99.833 56.4384 99.696 56.4844 99.687 56.2834C99.678 55.9834 99.532 55.8914 99.222 55.8914C98.712 55.8914 97.754 55.4454 97.754 55.2714C97.754 55.0624 98.064 53.8324 98.228 53.8324C98.574 53.8324 98.802 54.3694 99.404 54.3694C99.677 54.3694 99.65 54.1144 99.65 53.9314V53.0844H99.649ZM99.649 50.0044C99.649 49.7394 99.694 49.5584 99.466 49.5584C99.056 49.5584 98.856 49.9584 98.856 50.3324C98.856 50.7514 99.312 51.1154 99.485 51.1154C99.622 51.1154 99.649 50.7784 99.649 50.5144V50.0044V50.0044ZM100.305 54.0154C100.305 54.2244 100.305 54.3694 100.569 54.3694C101.007 54.3694 101.298 54.0414 101.298 53.6494C101.298 53.2944 100.779 52.8294 100.487 52.8294C100.286 52.8294 100.304 53.0034 100.304 53.1844V54.0154H100.305Z" fill="white"/>
<path d="M99.8439 38.4026C103.943 38.4026 107.266 35.0796 107.266 30.9806C107.266 26.8815 103.943 23.5586 99.8439 23.5586C95.7448 23.5586 92.4219 26.8815 92.4219 30.9806C92.4219 35.0796 95.7448 38.4026 99.8439 38.4026Z" fill="#CDEEFC"/>
<path d="M103.452 27.6761C103.812 27.7961 104.055 28.5471 103.787 29.7541C103.519 30.9601 103.117 33.7071 103.117 33.7071H102.112C102.112 33.7071 102.581 30.7591 101.643 30.4901C100.705 30.2221 100.101 33.7071 97.9574 33.7071C95.8124 33.7071 94.4734 33.7741 94.4054 33.1711C94.3384 32.5671 97.2864 32.0311 98.4934 30.4901C100.275 28.2141 102.849 27.4751 103.452 27.6761Z" fill="white"/>
<path d="M7.79015 38.4006C11.8887 38.4006 15.2112 35.0781 15.2112 30.9796C15.2112 26.8811 11.8887 23.5586 7.79015 23.5586C3.69164 23.5586 0.369141 26.8811 0.369141 30.9796C0.369141 35.0781 3.69164 38.4006 7.79015 38.4006Z" fill="#062C3F"/>
<path d="M11.7223 34.1123H3.66031C3.33431 34.1123 3.07031 33.8483 3.07031 33.5233V28.3693C3.07031 28.0433 3.33431 27.7793 3.66031 27.7793H11.7223C12.0483 27.7793 12.3113 28.0433 12.3113 28.3693V33.5233C12.3113 33.8483 12.0483 34.1123 11.7223 34.1123ZM4.25032 32.9333H11.1323V28.9583H4.25032V32.9333Z" fill="white"/>
<path d="M7.80664 32.0684C7.68164 32.0684 7.55764 32.0294 7.45264 31.9514L3.30664 28.8414L4.01463 27.8984L7.79564 30.7354L11.3556 27.9084L12.0886 28.8324L8.17264 31.9424C8.06564 32.0264 7.93564 32.0684 7.80664 32.0684Z" fill="white"/>
<path d="M53.4578 81.4547C57.4569 81.4547 60.6988 78.2128 60.6988 74.2137C60.6988 70.2146 57.4569 66.9727 53.4578 66.9727C49.4587 66.9727 46.2168 70.2146 46.2168 74.2137C46.2168 78.2128 49.4587 81.4547 53.4578 81.4547Z" fill="#062C3F"/>
<path d="M53.4584 79.3973C50.6004 79.3973 48.2754 77.0723 48.2754 74.2133C48.2754 71.3543 50.6004 69.0293 53.4584 69.0293C56.3164 69.0293 58.6424 71.3543 58.6424 74.2133C58.6424 77.0723 56.3164 79.3973 53.4584 79.3973ZM53.4584 70.2093C51.2504 70.2093 49.4544 72.0053 49.4544 74.2133C49.4544 76.4213 51.2504 78.2173 53.4584 78.2173C55.6664 78.2173 57.4624 76.4213 57.4624 74.2133C57.4624 72.0053 55.6664 70.2093 53.4584 70.2093Z" fill="white"/>
<path d="M53.4585 74.8029C53.3675 74.8029 53.2765 74.7819 53.1925 74.7399L51.4495 73.8609C51.1585 73.7149 51.0415 73.3599 51.1885 73.0689C51.3355 72.7779 51.6895 72.6609 51.9805 72.8079L53.4455 73.5459L55.6185 72.3449C55.9035 72.1879 56.2625 72.2909 56.4195 72.5759C56.5775 72.8609 56.4735 73.2199 56.1895 73.3769L53.7435 74.7289C53.6545 74.7789 53.5565 74.8029 53.4585 74.8029Z" fill="white"/>
<path d="M33.0096 80.9137C36.7105 80.9137 39.7106 77.9136 39.7106 74.2127C39.7106 70.5119 36.7105 67.5117 33.0096 67.5117C29.3087 67.5117 26.3086 70.5119 26.3086 74.2127C26.3086 77.9136 29.3087 80.9137 33.0096 80.9137Z" fill="#A6E2F7"/>
<path d="M34.4754 78.575C34.3244 78.575 34.1745 78.517 34.0585 78.402L32.6794 77.024L31.4124 78.29C31.2534 78.449 31.0185 78.504 30.8065 78.432C30.5935 78.36 30.4404 78.173 30.4114 77.95L29.5694 71.498C29.5274 71.175 29.7554 70.879 30.0774 70.837C30.4034 70.795 30.6964 71.022 30.7384 71.345L31.4254 76.6111L32.2614 75.7751C32.4914 75.5451 32.8654 75.5451 33.0954 75.7751L34.4734 77.153L35.1224 76.505C35.3524 76.275 35.7264 76.275 35.9564 76.505C36.1864 76.734 36.1864 77.109 35.9564 77.338L34.8905 78.4041C34.7785 78.5171 34.6274 78.575 34.4754 78.575Z" fill="white"/>
<path d="M35.7101 77.3408C35.5591 77.3408 35.4081 77.2828 35.2931 77.1678C35.0631 76.9378 35.0631 76.5638 35.2931 76.3338L35.9421 75.6848L34.5641 74.3068C34.4531 74.1958 34.3911 74.0458 34.3911 73.8898C34.3911 73.7338 34.4531 73.5828 34.5641 73.4728L35.4001 72.6358L30.1341 71.9488C29.8111 71.9058 29.5841 71.6108 29.6261 71.2878C29.6681 70.9648 29.9641 70.7348 30.2871 70.7788L36.7401 71.6208C36.9631 71.6498 37.1491 71.8038 37.2221 72.0168C37.2941 72.2288 37.2401 72.4638 37.0801 72.6228L35.8141 73.8898L37.1921 75.2678C37.3031 75.3788 37.3651 75.5288 37.3651 75.6848C37.3651 75.8408 37.3031 75.9918 37.1921 76.1018L36.1261 77.1678C36.0121 77.2838 35.8611 77.3408 35.7101 77.3408Z" fill="white"/>
</svg>
