<svg width="72" height="84" viewBox="0 0 72 84" fill="none" xmlns="http://www.w3.org/2000/svg">
<path d="M39.4208 2.53218C39.4208 3.65918 37.3808 8.34819 37.3808 8.34819C37.3808 8.34819 35.3418 3.65918 35.3418 2.53218C35.3418 1.40518 36.2548 0.492188 37.3808 0.492188C38.5078 0.492188 39.4208 1.40518 39.4208 2.53218Z" fill="#61B3DB"/>
<path d="M29.2015 3.56713C29.5865 4.62613 29.2735 9.73113 29.2735 9.73113C29.2735 9.73113 25.7525 6.02112 25.3675 4.96212C24.9825 3.90312 25.5285 2.73312 26.5875 2.34812C27.6455 1.96312 28.8155 2.50813 29.2015 3.56713Z" fill="#61B3DB"/>
<path d="M19.954 8.03308C20.678 8.89608 22.1301 13.8011 22.1301 13.8011C22.1301 13.8011 17.553 11.5191 16.829 10.6551C16.104 9.79308 16.218 8.50608 17.08 7.78208C17.943 7.05808 19.229 7.17008 19.954 8.03308Z" fill="#61B3DB"/>
<path d="M12.7904 15.3939C13.7664 15.9569 16.8084 20.0689 16.8084 20.0689C16.8084 20.0689 11.7274 19.4909 10.7514 18.9269C9.77538 18.3629 9.4404 17.1159 10.0044 16.1409C10.5684 15.1659 11.8144 14.8319 12.7904 15.3939Z" fill="#61B3DB"/>
<path d="M8.578 24.7599C9.687 24.9549 13.952 27.7789 13.952 27.7789C13.952 27.7789 8.97899 28.9729 7.86999 28.7769C6.76099 28.5819 6.01899 27.5239 6.21499 26.4149C6.41099 25.3049 7.468 24.5639 8.578 24.7599Z" fill="#61B3DB"/>
<path d="M7.82189 35.002C8.93089 34.807 13.9049 36 13.9049 36C13.9049 36 9.6399 38.823 8.5309 39.02C7.4219 39.215 6.36289 38.474 6.16789 37.365C5.97289 36.256 6.71289 35.198 7.82189 35.002Z" fill="#61B3DB"/>
<path d="M16.6199 53.2173C17.3449 52.3543 21.9219 50.0723 21.9219 50.0723C21.9219 50.0723 20.4699 54.9753 19.7449 55.8393C19.0209 56.7023 17.7349 56.8153 16.8719 56.0903C16.0079 55.3673 15.8959 54.0813 16.6199 53.2173Z" fill="#61B3DB"/>
<path d="M25.1122 58.9936C25.4972 57.9346 29.0172 54.2246 29.0172 54.2246C29.0172 54.2246 29.3302 59.3296 28.9452 60.3886C28.5592 61.4476 27.3892 61.9926 26.3312 61.6076C25.2722 61.2226 24.7262 60.0516 25.1122 58.9936Z" fill="#61B3DB"/>
<path d="M35.0684 61.5152C35.0684 60.3892 37.1084 55.6992 37.1084 55.6992C37.1084 55.6992 39.1474 60.3892 39.1474 61.5152C39.1474 62.6422 38.2344 63.5552 37.1084 63.5552C35.9814 63.5552 35.0684 62.6422 35.0684 61.5152Z" fill="#61B3DB"/>
<path d="M45.2865 60.4814C44.9005 59.4224 45.2135 54.3184 45.2135 54.3184C45.2135 54.3184 48.7345 58.0274 49.1195 59.0864C49.5045 60.1454 48.9585 61.3154 47.8995 61.7004C46.8415 62.0854 45.6715 61.5404 45.2865 60.4814Z" fill="#61B3DB"/>
<path d="M57.6582 53.3926C58.3832 54.2556 58.2702 55.5416 57.4072 56.2666C56.5442 56.9906 55.2582 56.8776 54.5332 56.0146L57.6582 53.3926Z" fill="#61B3DB"/>
<path d="M61.6977 48.6535C60.7217 48.0905 57.6797 43.9785 57.6797 43.9785C57.6797 43.9785 62.7617 44.5575 63.7367 45.1205C64.7127 45.6835 65.0477 46.9325 64.4837 47.9065C63.9207 48.8815 62.6737 49.2165 61.6977 48.6535Z" fill="#61B3DB"/>
<path d="M65.9092 39.2875C64.8002 39.0925 60.5352 36.2686 60.5352 36.2686C60.5352 36.2686 65.5092 35.0746 66.6172 35.2696C67.7272 35.4646 68.4682 36.5235 68.2722 37.6325C68.0762 38.7425 67.0182 39.4825 65.9092 39.2875Z" fill="#61B3DB"/>
<path d="M63.8724 19.1629C62.8964 19.7259 57.8145 20.3059 57.8145 20.3059C57.8145 20.3059 60.8564 16.1939 61.8324 15.6309C62.8084 15.0679 64.0554 15.4019 64.6184 16.3769C65.1814 17.3519 64.8474 18.5989 63.8724 19.1629Z" fill="#61B3DB"/>
<path d="M57.8684 10.8305C57.1434 11.6935 52.5664 13.9765 52.5664 13.9765C52.5664 13.9765 54.0184 9.07254 54.7434 8.20854C55.4674 7.34654 56.7544 7.23353 57.6164 7.95753C58.4794 8.68053 58.5914 9.96753 57.8684 10.8305Z" fill="#61B3DB"/>
<path d="M49.3746 5.05339C48.9896 6.11239 45.4696 9.82239 45.4696 9.82239C45.4696 9.82239 45.1566 4.71739 45.5416 3.65939C45.9276 2.60039 47.0976 2.05539 48.1556 2.43939C49.2146 2.82539 49.7596 3.99539 49.3746 5.05339Z" fill="#61B3DB"/>
<path d="M58.7207 26.3478C58.8737 25.4278 59.6587 18.3268 63.9377 17.7568C68.5397 17.1438 70.7897 18.8818 71.0967 22.8698C71.4037 26.8588 70.4827 29.1088 70.4827 29.1088L58.7207 26.3478Z" fill="#DD6E1B"/>
<path d="M57.2494 43.582L65.7894 44.604C65.7894 44.604 65.4994 56.084 64.7824 64.778C64.3254 70.335 65.1664 76.31 65.1664 76.31L62.0984 76.2581C61.8944 73.6511 60.7784 61.684 60.7334 53.659C60.7224 51.706 60.6334 50.595 60.2734 50.437C59.0974 49.926 58.0684 50.28 56.7904 52.53C55.9874 53.943 55.8284 59.093 55.9054 64.471C56.0074 71.491 56.5094 76.139 56.5094 76.139L53.3564 76.119C53.3564 76.119 51.1624 58.28 52.7414 51.813C53.3334 49.383 57.2494 43.582 57.2494 43.582Z" fill="#D8A252"/>
<path d="M62.0988 76.1211L65.2508 76.1411L65.2118 82.5551C65.2088 83.0351 64.8168 83.4231 64.3368 83.4201L59.1178 83.3881C57.9228 83.3801 57.7698 81.3491 59.8928 81.1101C60.5608 81.0341 61.7928 80.7591 61.9648 80.0891C62.4118 78.3511 62.0988 76.1211 62.0988 76.1211Z" fill="#025482"/>
<path d="M53.3542 76.1211L56.5072 76.1411L56.4682 82.5551C56.4652 83.0351 56.0732 83.4231 55.5932 83.4201L50.3742 83.3881C49.1782 83.3801 49.0262 81.3491 51.1482 81.1101C51.8172 81.0341 53.0482 80.7591 53.2202 80.0891C53.6672 78.3511 53.3542 76.1211 53.3542 76.1211Z" fill="#025482"/>
<path d="M13.7894 25.6367C13.4344 26.3537 13.9054 33.6007 17.5314 36.6147C23.4354 41.5207 33.0184 39.9407 34.3374 39.6537C36.2134 39.2467 39.1494 40.3137 40.7094 38.7817C41.7304 37.7787 41.5744 36.8437 37.7394 37.4457C33.9044 38.0497 34.5674 37.8827 32.6744 37.7997C26.5134 37.5287 22.4134 35.7767 20.8804 34.0837C18.6344 31.6047 18.1964 28.5477 18.1964 28.5477L13.7894 25.6367Z" fill="#A86A20"/>
<path d="M10.1504 27.0496L16.6454 35.5146L21.2534 31.9786L16.4504 25.1386C16.0954 24.6806 15.0914 23.8866 14.6204 24.2236L10.1504 27.0496Z" fill="#FCB515"/>
<path d="M15.7863 39.998L6.52734 41.106C6.52734 41.106 7.30335 53.581 8.07935 63.005C8.57535 69.028 9.13333 75.711 9.13333 75.711L12.4593 75.655C12.6813 72.828 11.9603 59.623 12.0093 50.923C12.0213 48.805 12.1163 47.601 12.5083 47.431C13.7833 46.876 14.8993 47.26 16.2843 49.7C18.2913 53.23 21.2743 57.129 22.9933 63.06C25.4273 71.462 23.0023 73.3 23.0023 73.3L26.0983 74.657C26.0983 74.657 29.4243 70.544 26.5973 60.897C24.1083 52.408 15.7863 39.998 15.7863 39.998Z" fill="#FCB515"/>
<path d="M26.1893 74.5328L23.0013 73.3008L20.4933 79.7868C20.3053 80.2728 20.5483 80.8188 21.0333 81.0068L26.3103 83.0468C27.5193 83.5148 28.4793 81.5258 26.4333 80.4408C25.7883 80.0998 24.6553 79.3338 24.7473 78.5888C24.9883 76.6588 26.1893 74.5328 26.1893 74.5328Z" fill="#FFD56C"/>
<path d="M58.5692 43.1453C57.9562 43.4523 53.2762 46.4443 51.4352 55.7253C49.9592 63.1653 49.3132 70.4273 49.7222 70.4273C50.1312 70.4273 67.7222 71.4493 67.9272 70.5293C68.1312 69.6093 66.9552 65.5183 66.8532 61.6323C66.7512 57.7453 68.1312 44.9613 65.7802 43.5293C63.4272 42.0973 58.5692 43.1453 58.5692 43.1453Z" fill="#062C3F"/>
<path d="M12.5215 75.5059L9.10352 75.5269L9.14651 82.4809C9.14951 83.0019 9.57451 83.4209 10.0945 83.4189L15.7525 83.3839C17.0495 83.3759 17.2135 81.1728 14.9115 80.9138C14.1865 80.8318 12.8515 80.5329 12.6655 79.8079C12.1825 77.9249 12.5215 75.5059 12.5215 75.5059Z" fill="#FFD56C"/>
<path d="M15.8206 42.2268L6.19064 43.5789C5.19964 43.7179 4.28264 43.0269 4.14364 42.0359L0.884637 28.3409C0.744637 27.3499 2.16062 25.8259 3.14462 25.6379C5.92662 25.1039 11.5316 23.9139 14.6406 23.9379C15.6396 23.9449 17.0556 25.5759 17.1946 26.5669L17.3636 40.1809C17.5026 41.1709 16.8116 42.0868 15.8206 42.2268Z" fill="#FFCB2F"/>
<path d="M5.88858 33.6221C5.61458 34.3731 7.25957 41.9161 11.1966 44.5111C17.6066 48.7351 26.2866 46.0961 27.5646 45.6661C29.3846 45.0531 31.9506 45.9621 33.3326 44.2671C34.2366 43.1571 34.0006 41.6631 30.2556 42.6871C26.5106 43.7111 27.5986 43.8791 25.7076 44.0061C19.5546 44.4181 15.2856 43.1291 13.5746 41.6161C11.0686 39.4001 9.63156 33.2891 9.63156 33.2891L5.88858 33.6221Z" fill="#B5792A"/>
<path d="M5.97161 26.4695C8.75161 27.3315 11.5436 35.3665 11.5436 35.3665L6.02761 37.6175C6.02761 37.6175 2.60161 32.0295 2.39461 28.3815C2.31261 26.9115 4.72961 26.0835 5.97161 26.4695Z" fill="#FFD56C"/>
<path d="M11.4237 23.2827C11.1697 25.0047 9.61367 26.1857 7.94967 25.9237C6.28467 25.6607 5.14067 24.0537 5.39467 22.3327C5.64867 20.6107 7.20468 19.4287 8.86968 19.6907C10.5347 19.9537 11.6777 21.5617 11.4237 23.2827Z" fill="#B5792A"/>
<path d="M9.48641 18.906L5.87695 19.6172L6.98688 25.2507L10.5963 24.5395L9.48641 18.906Z" fill="#B5792A"/>
<path d="M7.19412 22.025C9.67443 22.025 11.6851 20.0143 11.6851 17.534C11.6851 15.0537 9.67443 13.043 7.19412 13.043C4.71381 13.043 2.70312 15.0537 2.70312 17.534C2.70312 20.0143 4.71381 22.025 7.19412 22.025Z" fill="#B5792A"/>
<path d="M2.36023 17.9749L12.9793 16.0059C12.9793 16.0059 10.4172 10.0069 4.51123 12.6949C-1.39477 15.3829 2.36023 17.9749 2.36023 17.9749Z" fill="#FFD56C"/>
<path d="M2.94006 20.6867C3.59839 20.6867 4.13205 20.1531 4.13205 19.4947C4.13205 18.8364 3.59839 18.3027 2.94006 18.3027C2.28174 18.3027 1.74805 18.8364 1.74805 19.4947C1.74805 20.1531 2.28174 20.6867 2.94006 20.6867Z" fill="#B5792A"/>
<path d="M11.4788 16.2832C11.4788 16.2832 16.0788 17.3772 14.8578 18.7612C13.6368 20.1462 2.75977 17.9252 2.75977 17.9252L11.4788 16.2832Z" fill="#FCB515"/>
<path d="M14.2737 28.3493C14.3567 28.7453 14.1027 29.1333 13.7077 29.2163L11.3427 29.7113C10.9467 29.7943 10.5587 29.5413 10.4767 29.1453C10.3937 28.7493 10.6467 28.3623 11.0427 28.2793L13.4067 27.7833C13.8027 27.7003 14.1907 27.9543 14.2737 28.3493Z" fill="#4396CA"/>
<path d="M59.7088 30.7129C59.9918 31.3939 59.1168 38.0349 55.5968 40.5879C49.8638 44.7439 41.1389 42.7059 39.9439 42.3619C38.2419 41.8719 35.4748 42.6749 34.1318 41.1709C33.2528 40.1859 33.4529 39.3339 36.9459 40.1219C40.4389 40.9109 39.8399 40.7169 41.5869 40.7559C47.2749 40.8829 51.1539 39.5189 52.6679 38.0549C54.8869 35.9099 55.4759 33.1229 55.4759 33.1229L59.7088 30.7129Z" fill="#D8A252"/>
<path d="M62.4451 31.6385L57.8011 40.7685L52.2031 36.1844L56.6341 29.8755C56.9611 29.4535 57.8871 28.7215 58.3221 29.0315L62.4451 31.6385Z" fill="#AEE2F4"/>
<path d="M56.4218 46.0619L66.0988 46.8849C67.0128 47.0139 67.8588 46.3759 67.9868 45.4619L70.4848 34.8369C70.9928 32.3539 69.8148 30.5109 68.9088 30.3369C66.3428 29.8439 61.1728 28.7469 58.3048 28.7679C57.3838 28.7749 55.3818 33.4579 55.3488 34.4789C55.3108 35.6619 56.2498 38.2939 56.4558 39.4469C56.6478 40.5189 55.7938 43.7519 55.7938 43.7519C55.6648 44.6659 55.5078 45.9329 56.4218 46.0619Z" fill="#CDEEFC"/>
<path d="M66.5198 37.4696C66.7088 38.1826 64.5688 44.9746 60.7358 47.0296C54.4948 50.3756 46.7418 47.2266 45.6028 46.7246C43.9828 46.0096 41.1328 46.4336 40.0048 44.7616C39.2668 43.6656 39.5798 42.8496 42.9358 44.1016C46.2898 45.3546 45.7218 45.0806 47.4478 45.3546C53.0668 46.2476 57.0948 45.4186 58.7928 44.1716C61.2798 42.3456 63.1098 36.8516 63.1098 36.8516L66.5198 37.4696Z" fill="#D8A252"/>
<path d="M66.2991 31.1025C63.7361 31.8985 61.1602 39.3105 61.1602 39.3105L66.2471 41.3865C66.2471 41.3865 69.4071 36.2325 69.5981 32.8665C69.6741 31.5095 67.4451 30.7475 66.2991 31.1025Z" fill="#DCF6FF"/>
<path d="M61.2688 28.166C61.5028 29.754 62.9378 30.844 64.4728 30.602C66.0088 30.36 67.0638 28.8759 66.8288 27.2889C66.5948 25.7009 65.1598 24.61 63.6238 24.852C62.0898 25.094 61.0348 26.578 61.2688 28.166Z" fill="#D8A252"/>
<path d="M62.0145 29.3507L65.3438 30.0059L66.3664 24.8094L63.0372 24.1542L62.0145 29.3507Z" fill="#D8A252"/>
<path d="M65.1732 27.0047C67.4608 27.0047 69.3152 25.1503 69.3152 22.8627C69.3152 20.5751 67.4608 18.7207 65.1732 18.7207C62.8857 18.7207 61.0312 20.5751 61.0312 22.8627C61.0312 25.1503 62.8857 27.0047 65.1732 27.0047Z" fill="#D8A252"/>
<path d="M69.0951 25.7683C69.7021 25.7683 70.1941 25.2763 70.1941 24.6693C70.1941 24.0624 69.7021 23.5703 69.0951 23.5703C68.4881 23.5703 67.9961 24.0624 67.9961 24.6693C67.9961 25.2763 68.4881 25.7683 69.0951 25.7683Z" fill="#D8A252"/>
<path d="M45.9136 44.4495H28.2706C26.9576 44.4495 25.8926 43.3855 25.8926 42.0715V23.8155C25.8926 22.5025 26.9566 21.4375 28.2706 21.4375H45.9136C47.2266 21.4375 48.2916 22.5015 48.2916 23.8155V42.0715C48.2916 43.3845 47.2266 44.4495 45.9136 44.4495Z" fill="#61B3DB"/>
<path d="M62.8131 18.6768C61.9961 19.0858 60.4611 21.2348 60.8711 21.3358C61.2801 21.4388 67.4161 23.2788 67.7231 23.2788C68.0311 23.2788 68.8491 21.0288 69.5651 20.9268C70.2811 20.8238 70.0761 19.5968 67.8261 18.6758C65.5751 17.7568 62.8131 18.6768 62.8131 18.6768Z" fill="#DD6E1B"/>
<path d="M54.1617 25.3535H21.1367V25.6485H54.1617V25.3535Z" fill="white"/>
<path d="M44.3188 39.311H41.6768C41.4468 39.311 41.2598 39.124 41.2598 38.894V33.749C41.2598 33.519 41.4468 33.332 41.6768 33.332H44.3188C44.5488 33.332 44.7357 33.519 44.7357 33.749V38.894C44.7357 39.124 44.5498 39.311 44.3188 39.311Z" fill="#FFCB2F"/>
</svg>
