<svg width="119" height="93" viewBox="0 0 119 93" fill="none" xmlns="http://www.w3.org/2000/svg">
<path d="M102.53 38.1968C105.815 38.1968 108.478 35.5338 108.478 32.2488C108.478 28.9638 105.815 26.3008 102.53 26.3008C99.245 26.3008 96.582 28.9638 96.582 32.2488C96.582 35.5338 99.245 38.1968 102.53 38.1968Z" fill="#4396CA"/>
<path d="M102 34.4795C101.869 34.4795 101.739 34.4365 101.632 34.3505L99.4656 32.6185C99.2116 32.4155 99.1696 32.0445 99.3736 31.7895C99.5766 31.5355 99.9485 31.4945 100.203 31.6975L102.02 33.1515L105.447 30.7035C105.712 30.5145 106.08 30.5755 106.27 30.8405C106.459 31.1055 106.398 31.4735 106.133 31.6635L102.343 34.3705C102.24 34.4435 102.12 34.4795 102 34.4795Z" fill="white"/>
<path d="M93.196 27.4916C96.2501 27.4916 98.726 25.0158 98.726 21.9616C98.726 18.9075 96.2501 16.4316 93.196 16.4316C90.1419 16.4316 87.666 18.9075 87.666 21.9616C87.666 25.0158 90.1419 27.4916 93.196 27.4916Z" fill="#FFCB2F"/>
<path d="M93.1967 18.0703L94.3737 20.4553L97.0047 20.8373L95.1007 22.6933L95.5507 25.3133L93.1967 24.0763L90.8427 25.3133L91.2927 22.6933L89.3887 20.8373L92.0197 20.4553L93.1967 18.0703Z" fill="white"/>
<path d="M81.4323 35.4741C84.4865 35.4741 86.9623 32.9982 86.9623 29.9441C86.9623 26.8899 84.4865 24.4141 81.4323 24.4141C78.3782 24.4141 75.9023 26.8899 75.9023 29.9441C75.9023 32.9982 78.3782 35.4741 81.4323 35.4741Z" fill="#4396CA"/>
<path d="M83.8606 27.9392C83.0316 27.4942 81.9456 28.0532 81.4396 28.8242C80.9326 28.0532 79.7906 27.4942 78.9616 27.9392C78.0856 28.4102 77.8786 29.3232 78.3486 30.2002C78.8196 31.0772 81.4346 33.2122 81.4396 33.1862C81.4446 33.2122 84.0596 31.0772 84.5306 30.2002C85.0006 29.3232 84.7366 28.4102 83.8606 27.9392Z" fill="white"/>
<path d="M91.3289 37.1969C93.189 37.1969 94.6969 35.689 94.6969 33.8289C94.6969 31.9689 93.189 30.4609 91.3289 30.4609C89.4688 30.4609 87.9609 31.9689 87.9609 33.8289C87.9609 35.689 89.4688 37.1969 91.3289 37.1969Z" fill="#025482"/>
<path d="M91.7133 31.9648H90.9453V35.6948H91.7133V31.9648Z" fill="white"/>
<path d="M93.1929 33.4453H89.4629V34.2133H93.1929V33.4453Z" fill="white"/>
<path d="M47.1043 46.8278C48.9644 46.8278 50.4723 45.3199 50.4723 43.4598C50.4723 41.5997 48.9644 40.0918 47.1043 40.0918C45.2442 40.0918 43.7363 41.5997 43.7363 43.4598C43.7363 45.3199 45.2442 46.8278 47.1043 46.8278Z" fill="#025482"/>
<path d="M46.291 41.7266L45.6738 42.1836L47.8936 45.181L48.5107 44.724L46.291 41.7266Z" fill="white"/>
<path d="M48.8379 42.6484L48.3809 42.0312L45.3834 44.251L45.8405 44.8681L48.8379 42.6484Z" fill="white"/>
<path d="M51.2381 80.6453H9.16005C7.62105 80.6453 6.37305 79.3973 6.37305 77.8583V51.5253C6.37305 49.9863 7.62105 48.7383 9.16005 48.7383H51.2381C52.7771 48.7383 54.025 49.9863 54.025 51.5253V77.8583C54.025 79.3973 52.7771 80.6453 51.2381 80.6453Z" fill="#062C3F"/>
<path d="M48.7475 78.6576H10.8225C9.39146 78.6576 8.23047 77.5656 8.23047 76.2186V53.1656C8.23047 51.8186 9.39146 50.7266 10.8225 50.7266H48.7475C50.1785 50.7266 51.3395 51.8186 51.3395 53.1656V76.2176C51.3395 77.5656 50.1785 78.6576 48.7475 78.6576Z" fill="#97E4FF"/>
<path d="M52.7074 62.0996C53.0144 62.0996 53.2634 62.3486 53.2634 62.6556V66.7286C53.2634 67.0356 53.0144 67.2846 52.7074 67.2846C52.4004 67.2846 52.1523 67.0356 52.1523 66.7286V62.6556C52.1523 62.3476 52.4014 62.0996 52.7074 62.0996Z" fill="#3287B2"/>
<path d="M37.9633 69.3405H21.6063C20.6433 69.3405 19.8633 68.5605 19.8633 67.5975V61.4305C19.8633 60.4675 20.6433 59.6875 21.6063 59.6875H37.9633C38.9263 59.6875 39.7063 60.4675 39.7063 61.4305V67.5975C39.7063 68.5605 38.9263 69.3405 37.9633 69.3405Z" fill="#4396CA"/>
<path d="M2.14017 81.2291C1.30417 79.4641 0.282157 69.3391 1.67516 68.0391C3.06916 66.7391 4.92616 66.2741 5.39116 66.1811C5.85616 66.0881 4.92717 59.9581 6.87717 59.5861C7.97217 59.3781 9.19916 59.7721 9.10616 63.3011C8.98316 67.9591 8.36316 81.0431 8.36316 81.0431L2.14017 81.2291Z" fill="#EFBD7D"/>
<path d="M5.83079 68.5313L5.62891 61.3242L5.33403 61.3325L5.53591 68.5396L5.83079 68.5313Z" fill="#61B3DB"/>
<path d="M7.34023 62.2332C7.8787 62.2332 8.31523 61.7967 8.31523 61.2582C8.31523 60.7197 7.8787 60.2832 7.34023 60.2832C6.80175 60.2832 6.36523 60.7197 6.36523 61.2582C6.36523 61.7967 6.80175 62.2332 7.34023 62.2332Z" fill="#EF9A6F"/>
<path d="M2 80.9512H8.36299V90.8442C8.36299 91.2032 8.072 91.4942 7.713 91.4942H2.64999C2.29099 91.4942 2 91.2032 2 90.8442V80.9512Z" fill="#CDEEFC"/>
<path d="M42.9336 80.9512L49.6746 83.3732L50.8296 90.8432C50.8296 91.2022 50.5386 91.4932 50.1796 91.4932H43.5846C43.2256 91.4932 42.9346 91.2022 42.9346 90.8432V80.9512H42.9336Z" fill="#CDEEFC"/>
<path d="M35.9911 78.0241C35.4371 76.9591 36.2391 76.0031 37.7511 73.6841C38.1241 73.1131 37.8251 71.8951 37.0801 70.3301C35.5181 67.0491 34.4581 64.6741 36.3351 63.5481C38.1981 62.4301 38.5701 65.5601 39.4651 67.9451C40.3601 70.3301 40.5831 71.8201 41.1791 71.8201C41.3911 71.8201 41.5731 71.5431 42.6791 71.4751C43.6421 71.4151 43.5501 71.8581 44.1771 71.8931C44.8241 71.9291 45.4191 71.5141 46.2321 71.6491C46.5181 71.6971 46.9441 72.0141 47.4161 72.1711C47.8341 72.3111 48.7741 71.9621 49.4011 72.5541C51.0161 74.0791 49.6741 83.3711 49.6741 83.3711L43.0161 85.7561C43.0161 85.7561 40.0351 83.9031 38.8461 83.0391C38.0821 82.4831 36.8971 79.7661 35.9911 78.0241Z" fill="#EFBD7D"/>
<path d="M39.6932 79.1362L37.8359 72.1699L37.5509 72.2459L39.4082 79.2122L39.6932 79.1362Z" fill="#61B3DB"/>
<path d="M37.1293 66.4129C37.6678 66.4129 38.1043 65.9764 38.1043 65.4379C38.1043 64.8994 37.6678 64.4629 37.1293 64.4629C36.5908 64.4629 36.1543 64.8994 36.1543 65.4379C36.1543 65.9764 36.5908 66.4129 37.1293 66.4129Z" fill="#EF9A6F"/>
<path d="M1.81538 80.0215H8.36339V82.9935H1.81538C1.37938 82.9935 1.02539 82.6395 1.02539 82.2045V80.8105C1.02539 80.3755 1.37938 80.0215 1.81538 80.0215Z" fill="#E6F9FF"/>
<path d="M50.2424 83.9718L50.7144 85.2838C50.8614 85.6938 50.6494 86.1458 50.2384 86.2938L43.2464 88.8078C42.8364 88.9548 42.3844 88.7428 42.2374 88.3318L41.7654 87.0198C41.6184 86.6098 41.8304 86.1578 42.2414 86.0098L49.2334 83.4958C49.6434 83.3488 50.0944 83.5608 50.2424 83.9718Z" fill="#E6F9FF"/>
<path d="M25.4141 66.1498V63.0078H27.0081C27.3401 63.0078 27.5821 63.0918 27.7341 63.2578C27.8861 63.4248 27.9621 63.6168 27.9621 63.8308C27.9621 63.9878 27.9181 64.1288 27.8301 64.2558C27.7421 64.3818 27.6101 64.4698 27.4351 64.5168C27.8421 64.6148 28.0451 64.8588 28.0451 65.2488C28.0451 65.4818 27.9731 65.6898 27.8301 65.8738C27.6861 66.0568 27.3801 66.1488 26.9111 66.1488H25.4141V66.1498ZM26.3021 64.2118H26.7481C26.8601 64.2118 26.9391 64.1838 26.9851 64.1268C27.0311 64.0698 27.0541 64.0098 27.0541 63.9448C27.0541 63.7698 26.9471 63.6828 26.7321 63.6828H26.3021V64.2118V64.2118ZM26.3021 65.4498H26.7711C26.8881 65.4498 26.9731 65.4208 27.0281 65.3638C27.0831 65.3068 27.1101 65.2418 27.1101 65.1698C27.1101 65.0978 27.0841 65.0318 27.0301 64.9708C26.9771 64.9108 26.8801 64.8798 26.7391 64.8798H26.3021V65.4498V65.4498Z" fill="white"/>
<path d="M31.2265 63.0078V65.0888C31.2265 65.4828 31.1095 65.7668 30.8755 65.9398C30.6415 66.1118 30.3365 66.1988 29.9605 66.1988C29.5645 66.1988 29.2465 66.1158 29.0065 65.9498C28.7665 65.7838 28.6465 65.5138 28.6465 65.1398V63.0088H29.6265V65.0278C29.6265 65.1778 29.6585 65.2878 29.7215 65.3568C29.7845 65.4258 29.8865 65.4608 30.0255 65.4608C30.1415 65.4608 30.2365 65.4358 30.3115 65.3858C30.3855 65.3358 30.4305 65.2798 30.4445 65.2168C30.4595 65.1538 30.4665 65.0308 30.4665 64.8488V63.0098H31.2265V63.0078Z" fill="white"/>
<path d="M34.5844 63.0078L33.6014 64.8188V66.1498H32.6644V64.8188L31.6074 63.0078H32.6634L33.2144 64.0438L33.7414 63.0078H34.5844Z" fill="white"/>
<g opacity="0.19">
<path opacity="0.19" d="M45.6125 66.9567C45.6125 67.6147 45.0785 68.1487 44.4205 68.1487C43.7625 68.1487 43.2285 67.6147 43.2285 66.9567V53.3697C43.2285 52.7107 43.7625 52.1777 44.4205 52.1777C45.0785 52.1777 45.6125 52.7107 45.6125 53.3697V66.9567Z" fill="white"/>
</g>
<g opacity="0.19">
<path opacity="0.19" d="M49.3078 58.2548C49.3078 58.9128 48.7748 59.4468 48.1158 59.4468C47.4578 59.4468 46.9238 58.9128 46.9238 58.2548V53.3678C46.9238 52.7088 47.4578 52.1758 48.1158 52.1758C48.7748 52.1758 49.3078 52.7088 49.3078 53.3678V58.2548Z" fill="white"/>
</g>
<path d="M80.032 22.7964C84.0311 22.7964 87.273 19.5545 87.273 15.5555C87.273 11.5564 84.0311 8.31445 80.032 8.31445C76.0329 8.31445 72.791 11.5564 72.791 15.5555C72.791 19.5545 76.0329 22.7964 80.032 22.7964Z" fill="#062C3F"/>
<path d="M84.0638 18.7795H76.1828C75.8578 18.7795 75.5938 18.5155 75.5938 18.1895V13.1505C75.5938 12.8245 75.8578 12.5605 76.1828 12.5605H84.0638C84.3898 12.5605 84.6537 12.8245 84.6537 13.1505V18.1895C84.6537 18.5155 84.3888 18.7795 84.0638 18.7795ZM76.7717 17.6005H83.4737V13.7405H76.7717V17.6005Z" fill="white"/>
<path d="M80.2216 16.6599C80.8401 16.6599 81.3416 16.1585 81.3416 15.5399C81.3416 14.9214 80.8401 14.4199 80.2216 14.4199C79.603 14.4199 79.1016 14.9214 79.1016 15.5399C79.1016 16.1585 79.603 16.6599 80.2216 16.6599Z" fill="white"/>
<path d="M82.2468 13.5848C81.8398 13.5848 81.5098 13.2548 81.5098 12.8478V12.2448C81.5098 11.8378 81.8398 11.5078 82.2468 11.5078C82.6538 11.5078 82.9838 11.8378 82.9838 12.2448V12.8478C82.9838 13.2548 82.6538 13.5848 82.2468 13.5848Z" fill="white"/>
<path d="M38.2596 25.5954C41.9605 25.5954 44.9606 22.5952 44.9606 18.8944C44.9606 15.1935 41.9605 12.1934 38.2596 12.1934C34.5587 12.1934 31.5586 15.1935 31.5586 18.8944C31.5586 22.5952 34.5587 25.5954 38.2596 25.5954Z" fill="#4396CA"/>
<path d="M35.4805 21.9837C35.3275 21.9837 35.1735 21.9237 35.0585 21.8057C34.8305 21.5727 34.8355 21.1997 35.0685 20.9717L40.5405 15.6347C40.7735 15.4067 41.1466 15.4117 41.3746 15.6447C41.6026 15.8777 41.5976 16.2507 41.3636 16.4787L35.8916 21.8157C35.7776 21.9277 35.6295 21.9837 35.4805 21.9837Z" fill="white"/>
<path d="M36.2918 17.9489C37.0009 17.9489 37.5758 17.374 37.5758 16.6649C37.5758 15.9557 37.0009 15.3809 36.2918 15.3809C35.5827 15.3809 35.0078 15.9557 35.0078 16.6649C35.0078 17.374 35.5827 17.9489 36.2918 17.9489Z" fill="white"/>
<path d="M40.4129 21.9352C41.122 21.9352 41.6969 21.3603 41.6969 20.6512C41.6969 19.9421 41.122 19.3672 40.4129 19.3672C39.7038 19.3672 39.1289 19.9421 39.1289 20.6512C39.1289 21.3603 39.7038 21.9352 40.4129 21.9352Z" fill="white"/>
<path d="M40.412 21.1852C40.7074 21.1852 40.947 20.9457 40.947 20.6502C40.947 20.3548 40.7074 20.1152 40.412 20.1152C40.1165 20.1152 39.877 20.3548 39.877 20.6502C39.877 20.9457 40.1165 21.1852 40.412 21.1852Z" fill="#4396CA"/>
<path d="M36.2909 17.1989C36.5863 17.1989 36.8259 16.9594 36.8259 16.6639C36.8259 16.3684 36.5863 16.1289 36.2909 16.1289C35.9954 16.1289 35.7559 16.3684 35.7559 16.6639C35.7559 16.9594 35.9954 17.1989 36.2909 17.1989Z" fill="#4396CA"/>
<path d="M95.9061 52.2926C99.6069 52.2926 102.607 49.2925 102.607 45.5916C102.607 41.8908 99.6069 38.8906 95.9061 38.8906C92.2052 38.8906 89.2051 41.8908 89.2051 45.5916C89.2051 49.2925 92.2052 52.2926 95.9061 52.2926Z" fill="#FFD56C"/>
<path d="M100.808 46.0091C100.808 46.0091 98.9598 48.7371 95.7468 48.5611C92.7978 48.3991 91.2148 46.0091 91.2148 46.0091C91.2148 46.0091 92.5348 43.0171 95.7468 42.9281C99.4868 42.8271 100.808 46.0091 100.808 46.0091Z" fill="white"/>
<path d="M96.1002 47.8175C97.218 47.8175 98.1242 46.9114 98.1242 45.7935C98.1242 44.6757 97.218 43.7695 96.1002 43.7695C94.9823 43.7695 94.0762 44.6757 94.0762 45.7935C94.0762 46.9114 94.9823 47.8175 96.1002 47.8175Z" fill="#FFD56C"/>
<path d="M23.3478 31.635C27.4468 31.635 30.7698 28.3121 30.7698 24.213C30.7698 20.114 27.4468 16.791 23.3478 16.791C19.2487 16.791 15.9258 20.114 15.9258 24.213C15.9258 28.3121 19.2487 31.635 23.3478 31.635Z" fill="#FFCB2F"/>
<path d="M23.1539 24.9644C23.1539 24.4994 23.1729 24.3994 22.7079 24.2354C21.8059 23.9074 21.1309 23.2874 21.1309 22.2944C21.1309 21.3104 21.7869 20.4904 22.8539 20.2894C23.0269 20.2534 23.1269 20.2164 23.1359 19.9794C23.1449 19.7784 23.4459 19.7974 23.6099 19.7974C23.7919 19.7974 23.7739 19.8794 23.7739 20.0164C23.7739 20.2624 24.0929 20.2254 24.3659 20.2714C24.5119 20.2984 25.4599 20.4624 25.4599 20.6724C25.4599 20.7454 25.0949 21.8114 24.9679 21.8114C24.7489 21.8114 24.5209 21.4374 24.0019 21.4374C23.7739 21.4374 23.8109 21.7474 23.8109 21.8934V22.6864C23.8109 23.1144 23.8379 23.2514 24.2749 23.4154C25.3409 23.7894 26.0339 24.4814 26.0339 25.6034C26.0339 26.8974 25.1949 27.7724 24.1289 27.7724C23.9279 27.7724 23.8459 27.9184 23.8459 28.1374C23.8459 28.3654 23.6999 28.3194 23.5089 28.3194C23.3359 28.3194 23.1989 28.3654 23.1899 28.1644C23.1809 27.8634 23.0349 27.7724 22.7249 27.7724C22.2149 27.7724 21.2579 27.3264 21.2579 27.1524C21.2579 26.9434 21.5679 25.7124 21.7319 25.7124C22.0789 25.7124 22.3059 26.2504 22.9079 26.2504C23.1809 26.2504 23.1539 25.9954 23.1539 25.8124V24.9644ZM23.1539 21.8834C23.1539 21.6194 23.1999 21.4374 22.9719 21.4374C22.5619 21.4374 22.3609 21.8384 22.3609 22.2114C22.3609 22.6304 22.8169 22.9954 22.9899 22.9954C23.1269 22.9954 23.1539 22.6584 23.1539 22.3944V21.8834ZM23.8109 25.8934C23.8109 26.1034 23.8109 26.2484 24.0749 26.2484C24.5119 26.2484 24.8039 25.9204 24.8039 25.5284C24.8039 25.1734 24.2839 24.7074 23.9929 24.7074C23.7919 24.7074 23.8109 24.8804 23.8109 25.0634V25.8934V25.8934Z" fill="white"/>
<path d="M50.631 37.9241C54.73 37.9241 58.053 34.6011 58.053 30.5021C58.053 26.403 54.73 23.0801 50.631 23.0801C46.5319 23.0801 43.209 26.403 43.209 30.5021C43.209 34.6011 46.5319 37.9241 50.631 37.9241Z" fill="#CDEEFC"/>
<path d="M54.2395 27.1993C54.5995 27.3193 54.8425 28.0703 54.5745 29.2773C54.3065 30.4833 53.9045 33.2313 53.9045 33.2313H52.8995C52.8995 33.2313 53.3685 30.2823 52.4305 30.0143C51.4925 29.7463 50.8885 33.2313 48.7445 33.2313C46.5995 33.2313 45.2595 33.2983 45.1925 32.6953C45.1255 32.0923 48.0735 31.5563 49.2805 30.0143C51.0625 27.7373 53.6365 26.9993 54.2395 27.1993Z" fill="white"/>
<path d="M35.0724 45.5608C39.1714 45.5608 42.4944 42.2379 42.4944 38.1388C42.4944 34.0397 39.1714 30.7168 35.0724 30.7168C30.9733 30.7168 27.6504 34.0397 27.6504 38.1388C27.6504 42.2379 30.9733 45.5608 35.0724 45.5608Z" fill="#062C3F"/>
<path d="M39.0036 41.2715H30.9416C30.6156 41.2715 30.3516 41.0074 30.3516 40.6824V35.5285C30.3516 35.2025 30.6156 34.9395 30.9416 34.9395H39.0036C39.3286 34.9395 39.5926 35.2035 39.5926 35.5285V40.6824C39.5926 41.0074 39.3286 41.2715 39.0036 41.2715ZM31.5316 40.0925H38.4136V36.1175H31.5316V40.0925Z" fill="white"/>
<path d="M35.0869 39.2276C34.9619 39.2276 34.8379 39.1886 34.7329 39.1096L30.5879 35.9996L31.2959 35.0566L35.0769 37.8936L38.6369 35.0666L39.3709 35.9906L35.4539 39.1006C35.3459 39.1856 35.2169 39.2276 35.0869 39.2276Z" fill="white"/>
<path d="M80.2469 52.5484C84.246 52.5484 87.4879 49.3065 87.4879 45.3074C87.4879 41.3083 84.246 38.0664 80.2469 38.0664C76.2478 38.0664 73.0059 41.3083 73.0059 45.3074C73.0059 49.3065 76.2478 52.5484 80.2469 52.5484Z" fill="#062C3F"/>
<path d="M80.2465 50.4901C77.3885 50.4901 75.0625 48.1651 75.0625 45.3071C75.0625 42.4491 77.3875 40.123 80.2465 40.123C83.1045 40.123 85.4295 42.4481 85.4295 45.3071C85.4295 48.1651 83.1045 50.4901 80.2465 50.4901ZM80.2465 41.3031C78.0385 41.3031 76.2425 43.0991 76.2425 45.3071C76.2425 47.5151 78.0385 49.3111 80.2465 49.3111C82.4545 49.3111 84.2505 47.5151 84.2505 45.3071C84.2505 43.0991 82.4545 41.3031 80.2465 41.3031Z" fill="white"/>
<path d="M80.2476 45.8961C80.1566 45.8961 80.0655 45.8751 79.9815 45.8331L78.2385 44.9551C77.9475 44.8091 77.8305 44.4541 77.9775 44.1631C78.1235 43.8721 78.4786 43.7551 78.7696 43.9021L80.2346 44.6401L82.4076 43.4391C82.6926 43.2811 83.0515 43.3851 83.2085 43.6701C83.3665 43.9551 83.2626 44.3141 82.9786 44.4711L80.5335 45.8231C80.4445 45.8721 80.3456 45.8961 80.2476 45.8961Z" fill="white"/>
<path d="M18.4568 46.7282C22.1577 46.7282 25.1579 43.728 25.1579 40.0272C25.1579 36.3263 22.1577 33.3262 18.4568 33.3262C14.756 33.3262 11.7559 36.3263 11.7559 40.0272C11.7559 43.728 14.756 46.7282 18.4568 46.7282Z" fill="#A6E2F7"/>
<path d="M19.9227 44.3907C19.7717 44.3907 19.6207 44.3327 19.5057 44.2177L18.1267 42.8397L16.8597 44.1057C16.7007 44.2657 16.4647 44.3197 16.2537 44.2477C16.0407 44.1757 15.8877 43.9887 15.8587 43.7657L15.0167 37.3127C14.9747 36.9897 15.2027 36.6937 15.5247 36.6517C15.8447 36.6087 16.1437 36.8367 16.1857 37.1607L16.8727 42.4267L17.7087 41.5897C17.9387 41.3597 18.3127 41.3597 18.5427 41.5897L19.9217 42.9687L20.5707 42.3197C20.8007 42.0897 21.1747 42.0897 21.4047 42.3197C21.6347 42.5497 21.6347 42.9237 21.4047 43.1537L20.3387 44.2197C20.2237 44.3327 20.0727 44.3907 19.9227 44.3907Z" fill="white"/>
<path d="M21.1574 43.1563C21.0064 43.1563 20.8554 43.0983 20.7404 42.9833C20.5104 42.7533 20.5104 42.3793 20.7404 42.1493L21.3894 41.5003L20.0104 40.1213C19.7804 39.8913 19.7804 39.5173 20.0104 39.2873L20.8474 38.4513L15.5814 37.7643C15.2584 37.7223 15.0314 37.4263 15.0734 37.1033C15.1154 36.7803 15.4144 36.5513 15.7344 36.5953L22.1874 37.4373C22.4104 37.4663 22.5974 37.6193 22.6694 37.8323C22.7414 38.0443 22.6874 38.2803 22.5274 38.4383L21.2604 39.7053L22.6394 41.0843C22.8694 41.3143 22.8694 41.6883 22.6394 41.9183L21.5734 42.9843C21.4594 43.0993 21.3084 43.1563 21.1574 43.1563Z" fill="white"/>
<path d="M96.5096 82.9579H75.5696C74.9186 82.9579 74.3906 82.4299 74.3906 81.7789C74.3906 81.1279 74.9186 80.5999 75.5696 80.5999H96.5096C97.7616 80.5999 98.7796 79.5809 98.7796 78.3299V78.2599C98.7796 77.0089 97.7616 75.9899 96.5096 75.9899H75.5696C74.9186 75.9899 74.3906 75.4619 74.3906 74.8109C74.3906 74.1599 74.9186 73.6309 75.5696 73.6309H96.5096C99.0616 73.6309 101.139 75.7079 101.139 78.2599V78.3299C101.139 80.8819 99.0626 82.9579 96.5096 82.9579Z" fill="#4396CA"/>
<path d="M98.6439 75.9804C98.5599 75.9804 98.4729 75.9684 98.3879 75.9424C97.9209 75.8014 97.6559 75.3074 97.7969 74.8394L103.492 56.0034H72.3959L76.0249 74.9284C76.1169 75.4084 75.8029 75.8714 75.3229 75.9634C74.8409 76.0544 74.3799 75.7404 74.2879 75.2614L70.2559 54.2344H105.875L99.4909 75.3504C99.3749 75.7344 99.0239 75.9804 98.6439 75.9804Z" fill="#4396CA"/>
<path d="M104.683 56.0045C104.584 56.0045 104.484 55.9875 104.386 55.9525C103.926 55.7885 103.686 55.2825 103.85 54.8225L106.32 47.8965H112.209C112.698 47.8965 113.093 48.2925 113.093 48.7815C113.093 49.2695 112.697 49.6655 112.209 49.6655H107.567L105.516 55.4165C105.387 55.7795 105.046 56.0045 104.683 56.0045Z" fill="#4396CA"/>
<path d="M117.173 50.2546H112.218C111.404 50.2546 110.744 49.5946 110.744 48.7806C110.744 47.9666 111.404 47.3066 112.218 47.3066H117.173C117.987 47.3066 118.648 47.9666 118.648 48.7806C118.647 49.5946 117.987 50.2546 117.173 50.2546Z" fill="#4396CA"/>
<path d="M97.074 92.1713C99.3919 92.1713 101.271 90.2923 101.271 87.9743C101.271 85.6564 99.3919 83.7773 97.074 83.7773C94.756 83.7773 92.877 85.6564 92.877 87.9743C92.877 90.2923 94.756 92.1713 97.074 92.1713Z" fill="#A6E2F7"/>
<path d="M77.3337 92.1713C79.6517 92.1713 81.5307 90.2923 81.5307 87.9743C81.5307 85.6564 79.6517 83.7773 77.3337 83.7773C75.0158 83.7773 73.1367 85.6564 73.1367 87.9743C73.1367 90.2923 75.0158 92.1713 77.3337 92.1713Z" fill="#A6E2F7"/>
<path d="M97.0732 89.9316C98.1546 89.9316 99.0312 89.055 99.0312 87.9736C99.0312 86.8922 98.1546 86.0156 97.0732 86.0156C95.9919 86.0156 95.1152 86.8922 95.1152 87.9736C95.1152 89.055 95.9919 89.9316 97.0732 89.9316Z" fill="white"/>
<path d="M77.1299 89.9316C78.2113 89.9316 79.0879 89.055 79.0879 87.9736C79.0879 86.8922 78.2113 86.0156 77.1299 86.0156C76.0485 86.0156 75.1719 86.8922 75.1719 87.9736C75.1719 89.055 76.0485 89.9316 77.1299 89.9316Z" fill="white"/>
<path d="M94.4283 75.4781C94.3783 75.4781 94.3272 75.4741 94.2762 75.4651C93.7952 75.3811 93.4723 74.9231 93.5563 74.4421L96.8123 55.7191C96.8953 55.2381 97.3543 54.9171 97.8353 54.9991C98.3163 55.0831 98.6383 55.5411 98.5553 56.0221L95.2993 74.7451C95.2243 75.1741 94.8503 75.4781 94.4283 75.4781Z" fill="#4396CA"/>
<path d="M89.8498 75.0696C89.8298 75.0696 89.8108 75.0696 89.7908 75.0676C89.3038 75.0356 88.9348 74.6146 88.9668 74.1276L90.1878 55.6076C90.2198 55.1206 90.6418 54.7477 91.1278 54.7837C91.6148 54.8157 91.9838 55.2366 91.9518 55.7236L90.7308 74.2436C90.7008 74.7116 90.3118 75.0696 89.8498 75.0696Z" fill="#4396CA"/>
<path d="M80.2822 75.4775C79.8542 75.4775 79.4782 75.1665 79.4092 74.7305L76.4582 56.0075C76.3822 55.5255 76.7121 55.0725 77.1941 54.9965C77.6761 54.9235 78.1302 55.2495 78.2062 55.7325L81.1572 74.4555C81.2332 74.9375 80.9032 75.3905 80.4212 75.4675C80.3752 75.4745 80.3282 75.4775 80.2822 75.4775Z" fill="#4396CA"/>
<path d="M85.1682 75.0699C84.7002 75.0699 84.3092 74.7019 84.2862 74.2299L83.3702 55.7099C83.3462 55.2219 83.7222 54.8069 84.2092 54.7829C84.6942 54.7529 85.1122 55.1349 85.1362 55.6229L86.0522 74.1419C86.0762 74.6299 85.7002 75.0449 85.2132 75.0689C85.1972 75.0699 85.1832 75.0699 85.1682 75.0699Z" fill="#4396CA"/>
<path d="M102.671 62.4536H73.3664C72.8774 62.4536 72.4824 62.0575 72.4824 61.5695C72.4824 61.0815 72.8784 60.6855 73.3664 60.6855H102.671C103.16 60.6855 103.555 61.0815 103.555 61.5695C103.555 62.0575 103.159 62.4536 102.671 62.4536Z" fill="#4396CA"/>
<path d="M100.229 68.9643H74.383C73.894 68.9643 73.498 68.5683 73.498 68.0793C73.498 67.5913 73.894 67.1953 74.383 67.1953H100.229C100.717 67.1953 101.113 67.5913 101.113 68.0793C101.113 68.5683 100.717 68.9643 100.229 68.9643Z" fill="#4396CA"/>
<path d="M41.4016 11.2173C43.4097 11.2173 45.0376 9.58941 45.0376 7.58131C45.0376 5.5732 43.4097 3.94531 41.4016 3.94531C39.3935 3.94531 37.7656 5.5732 37.7656 7.58131C37.7656 9.58941 39.3935 11.2173 41.4016 11.2173Z" fill="#4396CA"/>
<path d="M28.9214 15.5421C30.0613 15.5421 30.9854 14.618 30.9854 13.4781C30.9854 12.3381 30.0613 11.4141 28.9214 11.4141C27.7815 11.4141 26.8574 12.3381 26.8574 13.4781C26.8574 14.618 27.7815 15.5421 28.9214 15.5421Z" fill="#025482"/>
<path d="M73.7339 37.3585C74.8738 37.3585 75.7979 36.4344 75.7979 35.2945C75.7979 34.1545 74.8738 33.2305 73.7339 33.2305C72.594 33.2305 71.6699 34.1545 71.6699 35.2945C71.6699 36.4344 72.594 37.3585 73.7339 37.3585Z" fill="#025482"/>
<path d="M106.36 42.6661C107.12 42.6661 107.736 42.05 107.736 41.2901C107.736 40.5301 107.12 39.9141 106.36 39.9141C105.6 39.9141 104.984 40.5301 104.984 41.2901C104.984 42.05 105.6 42.6661 106.36 42.6661Z" fill="#97E4FF"/>
<path d="M70.8845 9.44862C72.3502 9.44862 73.5385 8.26039 73.5385 6.79462C73.5385 5.32886 72.3502 4.14062 70.8845 4.14062C69.4187 4.14062 68.2305 5.32886 68.2305 6.79462C68.2305 8.26039 69.4187 9.44862 70.8845 9.44862Z" fill="#FFD56C"/>
<path d="M56.3402 21.4382C62.1481 21.4382 66.8562 16.7301 66.8562 10.9222C66.8562 5.11441 62.1481 0.40625 56.3402 0.40625C50.5324 0.40625 45.8242 5.11441 45.8242 10.9222C45.8242 16.7301 50.5324 21.4382 56.3402 21.4382Z" fill="#97E4FF"/>
<path d="M51.6949 16.8186C49.5899 16.8186 47.877 15.1056 47.877 13.0006C47.877 10.8956 49.5899 9.18164 51.6949 9.18164C53.7999 9.18164 55.5129 10.8946 55.5129 13.0006C55.5129 15.1066 53.8009 16.8186 51.6949 16.8186ZM51.6949 10.3616C50.2399 10.3616 49.056 11.5456 49.056 13.0006C49.056 14.4556 50.2399 15.6396 51.6949 15.6396C53.1499 15.6396 54.334 14.4556 54.334 13.0006C54.335 11.5446 53.1509 10.3616 51.6949 10.3616Z" fill="white"/>
<path d="M60.6422 16.9944C58.5372 16.9944 56.8242 15.2814 56.8242 13.1754C56.8242 11.0694 58.5372 9.35742 60.6422 9.35742C62.7482 9.35742 64.4612 11.0704 64.4612 13.1754C64.4612 15.2804 62.7482 16.9944 60.6422 16.9944ZM60.6422 10.5364C59.1872 10.5364 58.0032 11.7204 58.0032 13.1754C58.0032 14.6314 59.1872 15.8154 60.6422 15.8154C62.0982 15.8154 63.2812 14.6314 63.2812 13.1754C63.2812 11.7204 62.0982 10.5364 60.6422 10.5364Z" fill="white"/>
<path d="M57.5174 13.4687C57.5154 13.4687 57.5124 13.4687 57.5104 13.4687L51.9614 13.4037C51.7534 13.4017 51.5634 13.2897 51.4584 13.1107C51.3544 12.9307 51.3524 12.7097 51.4524 12.5287L53.8024 8.28566C53.8994 8.11066 54.0784 7.99566 54.2794 7.98266C54.4824 7.96466 54.6734 8.05866 54.7924 8.21966L57.9904 12.5277C58.1244 12.7077 58.1444 12.9477 58.0424 13.1477C57.9424 13.3447 57.7384 13.4687 57.5174 13.4687ZM52.9634 12.2357L56.3354 12.2757L54.3914 9.65767L52.9634 12.2357Z" fill="white"/>
<path d="M55.8212 7.07214C55.7602 7.07214 55.6992 7.06214 55.6392 7.04314L53.2242 6.26013C52.9142 6.15913 52.7452 5.82714 52.8452 5.51714C52.9452 5.20714 53.2782 5.03814 53.5882 5.13814L56.0032 5.92114C56.3132 6.02214 56.4822 6.35413 56.3822 6.66413C56.3012 6.91413 56.0692 7.07214 55.8212 7.07214Z" fill="white"/>
<path d="M60.6434 13.4697C60.6224 13.4697 60.6004 13.4686 60.5784 13.4666C60.2544 13.4306 60.0204 13.1397 60.0564 12.8167L60.8484 5.63564C60.8844 5.31164 61.1814 5.08065 61.4984 5.11465C61.8224 5.15065 62.0564 5.44165 62.0204 5.76465L61.2284 12.9456C61.1954 13.2466 60.9404 13.4697 60.6434 13.4697Z" fill="white"/>
<path d="M63.6107 7.50754C63.4967 7.50754 63.3807 7.47455 63.2787 7.40455L59.4487 4.79355C59.1797 4.61055 59.1107 4.24355 59.2937 3.97455C59.4767 3.70555 59.8437 3.63555 60.1127 3.81955L63.9417 6.43055C64.2107 6.61455 64.2797 6.98055 64.0967 7.24955C63.9837 7.41755 63.7987 7.50754 63.6107 7.50754Z" fill="white"/>
<path d="M60.6416 12.291H57.5176V13.47H60.6416V12.291Z" fill="white"/>
<path d="M54.3849 9.29126C54.0589 9.29126 53.7949 9.02727 53.7949 8.70227V6.28726C53.7949 5.96126 54.0589 5.69727 54.3849 5.69727C54.7099 5.69727 54.9739 5.96126 54.9739 6.28726V8.70227C54.9739 9.02727 54.7099 9.29126 54.3849 9.29126Z" fill="white"/>
<path d="M67.7383 32.6407C71.3745 32.6407 74.3223 29.6929 74.3223 26.0567C74.3223 22.4204 71.3745 19.4727 67.7383 19.4727C64.1021 19.4727 61.1543 22.4204 61.1543 26.0567C61.1543 29.6929 64.1021 32.6407 67.7383 32.6407Z" fill="#FFCB2F"/>
<path d="M64.9306 28.4158C63.7156 28.4158 62.7266 27.4268 62.7266 26.2118C62.7266 24.9968 63.7156 24.0078 64.9306 24.0078C66.1456 24.0078 67.1346 24.9968 67.1346 26.2118C67.1346 27.4268 66.1466 28.4158 64.9306 28.4158ZM64.9306 25.1868C64.3656 25.1868 63.9056 25.6468 63.9056 26.2118C63.9056 26.7768 64.3656 27.2358 64.9306 27.2358C65.4956 27.2358 65.9556 26.7768 65.9556 26.2118C65.9556 25.6468 65.4956 25.1868 64.9306 25.1868Z" fill="white"/>
<path d="M70.1532 28.4158C68.9382 28.4158 67.9492 27.4268 67.9492 26.2118C67.9492 24.9968 68.9382 24.0078 70.1532 24.0078C71.3692 24.0078 72.3582 24.9968 72.3582 26.2118C72.3582 27.4268 71.3692 28.4158 70.1532 28.4158ZM70.1532 25.1868C69.5882 25.1868 69.1292 25.6468 69.1292 26.2118C69.1292 26.7768 69.5882 27.2358 70.1532 27.2358C70.7182 27.2358 71.1782 26.7768 71.1782 26.2118C71.1782 25.6468 70.7182 25.1868 70.1532 25.1868Z" fill="white"/>
<path d="M68.3513 25.6211H66.7363V26.8001H68.3513V25.6211Z" fill="white"/>
</svg>
