<svg width="107" height="85" viewBox="0 0 107 85" fill="none" xmlns="http://www.w3.org/2000/svg">
<path d="M54.4897 34.5576C56.526 34.5576 58.1767 32.9069 58.1767 30.8706C58.1767 28.8343 56.526 27.1836 54.4897 27.1836C52.4535 27.1836 50.8027 28.8343 50.8027 30.8706C50.8027 32.9069 52.4535 34.5576 54.4897 34.5576Z" fill="#4396CA"/>
<path d="M54.1609 32.4779C54.0309 32.4779 53.8999 32.4349 53.7919 32.3489L52.4499 31.2749C52.1959 31.0719 52.1539 30.7009 52.3579 30.4469C52.5609 30.1919 52.9329 30.1509 53.1869 30.3539L54.1819 31.1489L56.1679 29.7309C56.4319 29.5419 56.8009 29.6029 56.9909 29.8679C57.1799 30.1339 57.1189 30.5019 56.8539 30.6909L54.5039 32.3689C54.4009 32.4419 54.2799 32.4779 54.1609 32.4779Z" fill="white"/>
<path d="M52.9703 7.77464C55.1016 7.77464 56.8293 6.0469 56.8293 3.91563C56.8293 1.78437 55.1016 0.0566406 52.9703 0.0566406C50.8391 0.0566406 49.1113 1.78437 49.1113 3.91563C49.1113 6.0469 50.8391 7.77464 52.9703 7.77464Z" fill="#FFCB2F"/>
<path d="M52.9705 1.20117L53.7915 2.86517L55.6285 3.13118L54.2995 4.42717L54.6125 6.25517L52.9705 5.39217L51.3275 6.25517L51.6415 4.42717L50.3125 3.13118L52.1495 2.86517L52.9705 1.20117Z" fill="white"/>
<path d="M66.0534 45.392C68.8767 45.392 71.1654 43.1032 71.1654 40.28C71.1654 37.4567 68.8767 35.168 66.0534 35.168C63.2301 35.168 60.9414 37.4567 60.9414 40.28C60.9414 43.1032 63.2301 45.392 66.0534 45.392Z" fill="#4396CA"/>
<path d="M68.2992 38.4277C67.5332 38.0157 66.5292 38.5317 66.0612 39.2447C65.5932 38.5317 64.5372 38.0157 63.7702 38.4277C62.9592 38.8627 62.7682 39.7067 63.2042 40.5177C63.6392 41.3287 66.0572 43.3017 66.0612 43.2777C66.0662 43.3017 68.4832 41.3287 68.9182 40.5177C69.3542 39.7077 69.1102 38.8627 68.2992 38.4277Z" fill="white"/>
<path d="M24.575 42.1032C26.4351 42.1032 27.943 40.5953 27.943 38.7352C27.943 36.8751 26.4351 35.3672 24.575 35.3672C22.7149 35.3672 21.207 36.8751 21.207 38.7352C21.207 40.5953 22.7149 42.1032 24.575 42.1032Z" fill="#025482"/>
<path d="M23.7694 37.0017L23.1523 37.459L25.3738 40.4565L25.9908 39.9992L23.7694 37.0017Z" fill="white"/>
<path d="M26.3145 37.9297L25.8574 37.3125L22.8592 39.5328L23.3162 40.15L26.3145 37.9297Z" fill="white"/>
<path d="M20.2043 75.8221H7.85926C6.32026 75.8221 5.07227 74.5201 5.07227 72.9151V45.446C5.07227 43.841 6.32026 42.5391 7.85926 42.5391H20.2053C21.7443 42.5391 22.9923 43.841 22.9923 45.446V72.9151C22.9913 74.5201 21.7433 75.8221 20.2043 75.8221Z" fill="#062C3F"/>
<path d="M18.5661 73.1948H9.42811C7.83111 73.1948 6.53711 72.0598 6.53711 70.6598V46.7078C6.53711 45.3088 7.83111 44.1738 9.42811 44.1738H18.5661C20.1621 44.1738 21.4571 45.3088 21.4571 46.7078V70.6598C21.4561 72.0598 20.1621 73.1948 18.5661 73.1948Z" fill="#4396CA"/>
<path d="M16.9311 74.388C16.9311 74.695 16.6821 74.943 16.3761 74.943H12.3021C11.9951 74.943 11.7461 74.695 11.7461 74.388C11.7461 74.081 11.9951 73.832 12.3021 73.832H16.3751C16.6821 73.832 16.9311 74.081 16.9311 74.388Z" fill="#3287B2"/>
<path d="M18.6351 61.2725H9.24414C8.69114 61.2725 8.24414 60.8245 8.24414 60.2725V56.7315C8.24414 56.1785 8.69214 55.7305 9.24414 55.7305H18.6351C19.1881 55.7305 19.6361 56.1785 19.6361 56.7315V60.2725C19.6361 60.8245 19.1881 61.2725 18.6351 61.2725Z" fill="#025482"/>
<path d="M1.93452 78.3708C1.09852 76.6058 -0.0394801 66.6748 0.84752 64.9878C1.20752 64.3028 4.15952 58.0098 4.97452 58.0098C5.46552 58.0098 4.68652 65.6388 5.46552 65.4788C5.92952 65.3828 9.29852 62.2357 11.2635 60.7617C12.9225 59.5177 14.7025 61.7438 13.4255 63.0218C11.9515 64.4968 8.57952 69.2158 8.51152 69.9998C8.11852 74.5208 8.15652 78.1858 8.15652 78.1858L1.93452 78.3708Z" fill="#EFBD7D"/>
<path d="M11.9516 63.2117C12.49 63.2117 12.9266 62.7752 12.9266 62.2367C12.9266 61.6982 12.49 61.2617 11.9516 61.2617C11.4131 61.2617 10.9766 61.6982 10.9766 62.2367C10.9766 62.7752 11.4131 63.2117 11.9516 63.2117Z" fill="#EF9A6F"/>
<path d="M1.79492 78.0918H8.15792V83.8568C8.15792 84.2158 7.86692 84.5068 7.50792 84.5068H2.44492C2.08592 84.5068 1.79492 84.2158 1.79492 83.8568V78.0918V78.0918Z" fill="#CDEEFC"/>
<path d="M1.61031 77.1641H8.15831V80.1371H1.61031C1.17431 80.1371 0.820312 79.783 0.820312 79.347V77.9531C0.820312 77.5171 1.17431 77.1641 1.61031 77.1641Z" fill="#E6F9FF"/>
<path d="M11.4297 59.4417V57.6387H12.3457C12.5357 57.6387 12.6747 57.6867 12.7627 57.7827C12.8497 57.8787 12.8927 57.9887 12.8927 58.1117C12.8927 58.2017 12.8677 58.2827 12.8167 58.3557C12.7657 58.4277 12.6907 58.4777 12.5897 58.5047C12.8227 58.5617 12.9397 58.7007 12.9397 58.9257C12.9397 59.0597 12.8977 59.1787 12.8157 59.2837C12.7327 59.3877 12.5577 59.4407 12.2877 59.4407H11.4297V59.4417ZM11.9397 58.3297H12.1967C12.2607 58.3297 12.3057 58.3127 12.3327 58.2807C12.3597 58.2487 12.3727 58.2137 12.3727 58.1767C12.3727 58.0767 12.3107 58.0267 12.1877 58.0267H11.9397V58.3297ZM11.9397 59.0397H12.2097C12.2767 59.0397 12.3257 59.0227 12.3567 58.9907C12.3877 58.9577 12.4037 58.9207 12.4037 58.8787C12.4037 58.8377 12.3887 58.7997 12.3587 58.7647C12.3287 58.7297 12.2727 58.7127 12.1917 58.7127H11.9407V59.0397H11.9397Z" fill="white"/>
<path d="M14.7672 57.6378V58.8318C14.7672 59.0588 14.7002 59.2208 14.5652 59.3198C14.4312 59.4188 14.2552 59.4677 14.0402 59.4677C13.8122 59.4677 13.6302 59.4198 13.4922 59.3248C13.3542 59.2288 13.2852 59.0748 13.2852 58.8588V57.6357H13.8482V58.7938C13.8482 58.8808 13.8662 58.9428 13.9032 58.9828C13.9402 59.0218 13.9982 59.0428 14.0782 59.0428C14.1442 59.0428 14.1992 59.0278 14.2422 58.9998C14.2842 58.9708 14.3102 58.9378 14.3182 58.9018C14.3262 58.8658 14.3312 58.7958 14.3312 58.6898V57.6348H14.7672V57.6378Z" fill="white"/>
<path d="M16.6953 57.6387L16.1313 58.6777V59.4417H15.5933V58.6777L14.9863 57.6387H15.5923L15.9083 58.2337L16.2113 57.6387H16.6953Z" fill="white"/>
<g opacity="0.19">
<path opacity="0.19" d="M17.3795 56.1606C17.3795 56.6266 17.0015 57.0056 16.5345 57.0056C16.0675 57.0056 15.6895 56.6266 15.6895 56.1606V46.5266C15.6895 46.0596 16.0675 45.6816 16.5345 45.6816C17.0005 45.6816 17.3795 46.0596 17.3795 46.5266V56.1606Z" fill="white"/>
</g>
<g opacity="0.19">
<path opacity="0.19" d="M19.9986 49.9916C19.9986 50.4586 19.6206 50.8366 19.1536 50.8366C18.6876 50.8366 18.3086 50.4586 18.3086 49.9916V46.5266C18.3086 46.0596 18.6866 45.6816 19.1536 45.6816C19.6206 45.6816 19.9986 46.0596 19.9986 46.5266V49.9916Z" fill="white"/>
</g>
<path d="M12.493 40.8707C16.492 40.8707 19.734 37.6288 19.734 33.6297C19.734 29.6306 16.492 26.3887 12.493 26.3887C8.49386 26.3887 5.25195 29.6306 5.25195 33.6297C5.25195 37.6288 8.49386 40.8707 12.493 40.8707Z" fill="#062C3F"/>
<path d="M16.5237 36.8528H8.64273C8.31673 36.8528 8.05273 36.5888 8.05273 36.2628V31.2248C8.05273 30.8988 8.31673 30.6348 8.64273 30.6348H16.5237C16.8497 30.6348 17.1137 30.8988 17.1137 31.2248V36.2628C17.1127 36.5888 16.8487 36.8528 16.5237 36.8528ZM9.23174 35.6738H15.9337V31.8138H9.23174V35.6738V35.6738Z" fill="white"/>
<path d="M12.6825 34.7361C13.3011 34.7361 13.8025 34.2346 13.8025 33.6161C13.8025 32.9975 13.3011 32.4961 12.6825 32.4961C12.0639 32.4961 11.5625 32.9975 11.5625 33.6161C11.5625 34.2346 12.0639 34.7361 12.6825 34.7361Z" fill="white"/>
<path d="M14.7057 31.661C14.2987 31.661 13.9688 31.331 13.9688 30.924V30.321C13.9688 29.914 14.2987 29.584 14.7057 29.584C15.1127 29.584 15.4427 29.914 15.4427 30.321V30.924C15.4427 31.331 15.1127 31.661 14.7057 31.661Z" fill="white"/>
<path d="M27.8206 34.235C31.9015 34.235 35.2096 30.9269 35.2096 26.846C35.2096 22.7652 31.9015 19.457 27.8206 19.457C23.7398 19.457 20.4316 22.7652 20.4316 26.846C20.4316 30.9269 23.7398 34.235 27.8206 34.235Z" fill="#4396CA"/>
<path d="M24.7559 30.1919C24.6029 30.1919 24.4489 30.1319 24.3339 30.0139C24.1059 29.7809 24.1109 29.4079 24.3439 29.1799L30.3779 23.2949C30.6109 23.0669 30.9839 23.0719 31.2119 23.3049C31.4389 23.5379 31.4349 23.9109 31.2009 24.1389L25.1679 30.0239C25.0529 30.1359 24.9039 30.1919 24.7559 30.1919Z" fill="white"/>
<path d="M25.6513 25.8027C26.4328 25.8027 27.0663 25.1691 27.0663 24.3877C27.0663 23.6062 26.4328 22.9727 25.6513 22.9727C24.8698 22.9727 24.2363 23.6062 24.2363 24.3877C24.2363 25.1691 24.8698 25.8027 25.6513 25.8027Z" fill="white"/>
<path d="M30.1943 30.1972C30.9758 30.1972 31.6093 29.5636 31.6093 28.7822C31.6093 28.0007 30.9758 27.3672 30.1943 27.3672C29.4128 27.3672 28.7793 28.0007 28.7793 28.7822C28.7793 29.5636 29.4128 30.1972 30.1943 30.1972Z" fill="white"/>
<path d="M30.1935 29.3734C30.5194 29.3734 30.7835 29.1092 30.7835 28.7834C30.7835 28.4575 30.5194 28.1934 30.1935 28.1934C29.8677 28.1934 29.6035 28.4575 29.6035 28.7834C29.6035 29.1092 29.8677 29.3734 30.1935 29.3734Z" fill="#4396CA"/>
<path d="M25.6505 24.9788C25.9764 24.9788 26.2405 24.7147 26.2405 24.3888C26.2405 24.063 25.9764 23.7988 25.6505 23.7988C25.3247 23.7988 25.0605 24.063 25.0605 24.3888C25.0605 24.7147 25.3247 24.9788 25.6505 24.9788Z" fill="#4396CA"/>
<path d="M45.5067 28.5407C51.3244 28.5407 56.0407 23.8244 56.0407 18.0067C56.0407 12.1889 51.3244 7.47266 45.5067 7.47266C39.6889 7.47266 34.9727 12.1889 34.9727 18.0067C34.9727 23.8244 39.6889 28.5407 45.5067 28.5407Z" fill="#FFD56C"/>
<path d="M53.2109 18.6642C53.2109 18.6642 50.3059 22.9532 45.2559 22.6762C40.6199 22.4222 38.1309 18.6642 38.1309 18.6642C38.1309 18.6642 40.2059 13.9602 45.2559 13.8222C51.1349 13.6612 53.2109 18.6642 53.2109 18.6642Z" fill="white"/>
<path d="M45.8089 21.5066C47.5663 21.5066 48.991 20.082 48.991 18.3246C48.991 16.5672 47.5663 15.1426 45.8089 15.1426C44.0516 15.1426 42.627 16.5672 42.627 18.3246C42.627 20.082 44.0516 21.5066 45.8089 21.5066Z" fill="#FFD56C"/>
<path d="M15.1683 25.1394C17.6387 25.1394 19.6413 23.1367 19.6413 20.6664C19.6413 18.196 17.6387 16.1934 15.1683 16.1934C12.6979 16.1934 10.6953 18.196 10.6953 20.6664C10.6953 23.1367 12.6979 25.1394 15.1683 25.1394Z" fill="#FFCB2F"/>
<path d="M15.052 21.1202C15.052 20.8402 15.063 20.7792 14.782 20.6812C14.239 20.4842 13.832 20.1102 13.832 19.5112C13.832 18.9172 14.228 18.4232 14.87 18.3032C14.974 18.2812 15.035 18.2582 15.04 18.1152C15.045 17.9942 15.227 18.0062 15.326 18.0062C15.436 18.0062 15.425 18.0552 15.425 18.1382C15.425 18.2852 15.617 18.2642 15.782 18.2912C15.869 18.3082 16.441 18.4062 16.441 18.5332C16.441 18.5772 16.221 19.2202 16.144 19.2202C16.012 19.2202 15.875 18.9942 15.562 18.9942C15.424 18.9942 15.446 19.1812 15.446 19.2682V19.7472C15.446 20.0052 15.463 20.0872 15.726 20.1862C16.369 20.4112 16.786 20.8292 16.786 21.5042C16.786 22.2832 16.281 22.8112 15.638 22.8112C15.517 22.8112 15.468 22.8992 15.468 23.0312C15.468 23.1692 15.38 23.1412 15.264 23.1412C15.16 23.1412 15.077 23.1682 15.072 23.0472C15.066 22.8662 14.978 22.8112 14.792 22.8112C14.484 22.8112 13.907 22.5422 13.907 22.4382C13.907 22.3122 14.094 21.5702 14.193 21.5702C14.401 21.5702 14.539 21.8942 14.901 21.8942C15.066 21.8942 15.049 21.7412 15.049 21.6302V21.1202H15.052ZM15.052 19.2632C15.052 19.1042 15.079 18.9932 14.942 18.9932C14.695 18.9932 14.574 19.2352 14.574 19.4602C14.574 19.7132 14.848 19.9332 14.953 19.9332C15.036 19.9332 15.052 19.7302 15.052 19.5712V19.2632V19.2632ZM15.447 21.6802C15.447 21.8062 15.447 21.8942 15.607 21.8942C15.87 21.8942 16.046 21.6972 16.046 21.4602C16.046 21.2452 15.733 20.9652 15.557 20.9652C15.436 20.9652 15.447 21.0692 15.447 21.1802V21.6802Z" fill="white"/>
<path d="M37.2649 8.38129C39.4099 8.38129 41.1489 6.64236 41.1489 4.49728C41.1489 2.35221 39.4099 0.613281 37.2649 0.613281C35.1198 0.613281 33.3809 2.35221 33.3809 4.49728C33.3809 6.64236 35.1198 8.38129 37.2649 8.38129Z" fill="#CDEEFC"/>
<path d="M39.1526 2.76843C39.3406 2.83143 39.4686 3.22443 39.3286 3.85543C39.1876 4.48743 38.9776 5.92443 38.9776 5.92443H38.4516C38.4516 5.92443 38.6976 4.38143 38.2056 4.24043C37.7146 4.10043 37.3996 5.92443 36.2776 5.92443C35.1556 5.92443 34.4536 5.95943 34.4186 5.64443C34.3836 5.32843 35.9266 5.04743 36.5576 4.24143C37.4896 3.04943 38.8376 2.66343 39.1526 2.76843Z" fill="white"/>
<path d="M28.6612 18.1329C31.8373 18.1329 34.4122 15.5581 34.4122 12.3819C34.4122 9.20568 31.8373 6.63086 28.6612 6.63086C25.485 6.63086 22.9102 9.20568 22.9102 12.3819C22.9102 15.5581 25.485 18.1329 28.6612 18.1329Z" fill="#062C3F"/>
<path d="M31.7071 14.9425H25.4611C25.1351 14.9425 24.8711 14.6785 24.8711 14.3525V10.3595C24.8711 10.0335 25.1351 9.76953 25.4611 9.76953H31.7081C32.0341 9.76953 32.2981 10.0335 32.2981 10.3595V14.3525C32.2971 14.6785 32.0331 14.9425 31.7071 14.9425ZM26.0501 13.7625H31.1171V10.9485H26.0501V13.7625Z" fill="white"/>
<path d="M28.6734 13.3587C28.5484 13.3587 28.4244 13.3197 28.3194 13.2407L25.1074 10.8317L25.8154 9.88867L28.6634 12.0257L31.3414 9.89868L32.0744 10.8227L29.0394 13.2317C28.9324 13.3167 28.8024 13.3587 28.6734 13.3587Z" fill="white"/>
<path d="M79.0152 24.2023C82.5261 24.2023 85.3722 21.3561 85.3722 17.8453C85.3722 14.3344 82.5261 11.4883 79.0152 11.4883C75.5043 11.4883 72.6582 14.3344 72.6582 17.8453C72.6582 21.3561 75.5043 24.2023 79.0152 24.2023Z" fill="#062C3F"/>
<path d="M79.0156 22.4667C76.4666 22.4667 74.3926 20.3937 74.3926 17.8447C74.3926 15.2957 76.4666 13.2227 79.0156 13.2227C81.5636 13.2227 83.6376 15.2957 83.6376 17.8447C83.6376 20.3937 81.5636 22.4667 79.0156 22.4667ZM79.0156 14.4017C77.1166 14.4017 75.5726 15.9467 75.5726 17.8447C75.5726 19.7427 77.1166 21.2867 79.0156 21.2867C80.9136 21.2867 82.4586 19.7427 82.4586 17.8447C82.4586 15.9467 80.9136 14.4017 79.0156 14.4017Z" fill="white"/>
<path d="M79.015 18.4338C78.924 18.4338 78.833 18.4128 78.749 18.3708L77.219 17.5998C76.928 17.4538 76.811 17.0988 76.958 16.8078C77.105 16.5168 77.458 16.3998 77.75 16.5468L79.002 17.1778L80.876 16.1418C81.161 15.9848 81.52 16.0878 81.677 16.3728C81.835 16.6568 81.731 17.0168 81.446 17.1738L79.3 18.3608C79.211 18.4098 79.113 18.4338 79.015 18.4338Z" fill="white"/>
<path d="M64.2311 18.8588C68.3661 18.8588 71.7181 15.5067 71.7181 11.3718C71.7181 7.23681 68.3661 3.88477 64.2311 3.88477C60.0962 3.88477 56.7441 7.23681 56.7441 11.3718C56.7441 15.5067 60.0962 18.8588 64.2311 18.8588Z" fill="#A6E2F7"/>
<path d="M65.8682 16.1783C65.7172 16.1783 65.5662 16.1203 65.4512 16.0053L63.8622 14.4163L62.3982 15.8803C62.2392 16.0393 62.0032 16.0933 61.7912 16.0223C61.5792 15.9503 61.4252 15.7623 61.3962 15.5403L60.4562 8.33027C60.4142 8.00727 60.6422 7.71127 60.9642 7.66927C61.2852 7.62627 61.5832 7.85427 61.6252 8.17727L62.4112 14.2003L63.4452 13.1663C63.6752 12.9363 64.0492 12.9363 64.2792 13.1663L65.8682 14.7553L66.6422 13.9813C66.8722 13.7523 67.2462 13.7523 67.4752 13.9813C67.7052 14.2113 67.7052 14.5853 67.4752 14.8153L66.2842 16.0063C66.1702 16.1213 66.0192 16.1783 65.8682 16.1783Z" fill="white"/>
<path d="M67.2479 14.7978C67.0969 14.7978 66.9459 14.7398 66.8309 14.6258C66.6009 14.3958 66.6009 14.0218 66.8309 13.7918L67.6049 13.0178L66.0159 11.4278C65.7859 11.1978 65.7859 10.8238 66.0159 10.5938L67.0499 9.55979L61.0269 8.7748C60.7039 8.7328 60.4759 8.43679 60.5189 8.11379C60.5609 7.79079 60.8589 7.5618 61.1799 7.6048L68.3899 8.54479C68.6129 8.57379 68.7999 8.7278 68.8719 8.9408C68.9439 9.1538 68.8899 9.38779 68.7299 9.54679L67.2659 11.0108L68.8559 12.6008C68.9659 12.7108 69.0279 12.8618 69.0279 13.0178C69.0279 13.1738 68.9659 13.3248 68.8559 13.4348L67.6649 14.6258C67.5499 14.7408 67.3989 14.7978 67.2479 14.7978Z" fill="white"/>
<path d="M84.5956 75.285H63.6556C63.0046 75.285 62.4766 74.758 62.4766 74.106C62.4766 73.454 63.0046 72.926 63.6556 72.926H84.5956C85.8466 72.926 86.8656 71.907 86.8656 70.655V70.586C86.8656 69.335 85.8466 68.316 84.5956 68.316H63.6556C63.0046 68.316 62.4766 67.788 62.4766 67.136C62.4766 66.484 63.0046 65.957 63.6556 65.957H84.5956C87.1476 65.957 89.2236 68.033 89.2236 70.585V70.654C89.2236 73.208 87.1476 75.285 84.5956 75.285Z" fill="#EFC30A"/>
<path d="M86.7278 68.3075C86.6438 68.3075 86.5568 68.2945 86.4718 68.2695C86.0038 68.1275 85.7398 67.6345 85.8808 67.1665L91.5758 48.3305H60.4799L64.1088 67.2555C64.2008 67.7355 63.8868 68.1985 63.4068 68.2905C62.9228 68.3815 62.4638 68.0675 62.3718 67.5895L58.3398 46.5625H93.9588L87.5748 67.6785C87.4588 68.0605 87.1078 68.3075 86.7278 68.3075Z" fill="#EFC30A"/>
<path d="M92.7674 48.3307C92.6684 48.3307 92.5684 48.3137 92.4704 48.2797C92.0104 48.1157 91.7704 47.6087 91.9344 47.1487L94.4044 40.2227H100.293C100.781 40.2227 101.177 40.6187 101.177 41.1077C101.177 41.5957 100.781 41.9917 100.293 41.9917H95.6514L93.6004 47.7437C93.4704 48.1047 93.1304 48.3307 92.7674 48.3307Z" fill="#EFC30A"/>
<path d="M105.257 42.5818H100.301C99.4872 42.5818 98.8262 41.9218 98.8262 41.1078C98.8262 40.2938 99.4862 39.6328 100.301 39.6328H105.257C106.071 39.6328 106.731 40.2928 106.731 41.1078C106.732 41.9208 106.071 42.5818 105.257 42.5818Z" fill="#EFC30A"/>
<path d="M85.1579 84.4975C87.4759 84.4975 89.3549 82.6185 89.3549 80.3005C89.3549 77.9826 87.4759 76.1035 85.1579 76.1035C82.84 76.1035 80.9609 77.9826 80.9609 80.3005C80.9609 82.6185 82.84 84.4975 85.1579 84.4975Z" fill="#78D6EF"/>
<path d="M65.4177 84.4975C67.7356 84.4975 69.6147 82.6185 69.6147 80.3005C69.6147 77.9826 67.7356 76.1035 65.4177 76.1035C63.0998 76.1035 61.2207 77.9826 61.2207 80.3005C61.2207 82.6185 63.0998 84.4975 65.4177 84.4975Z" fill="#78D6EF"/>
<path d="M85.1572 82.2578C86.2386 82.2578 87.1152 81.3812 87.1152 80.2998C87.1152 79.2184 86.2386 78.3418 85.1572 78.3418C84.0758 78.3418 83.1992 79.2184 83.1992 80.2998C83.1992 81.3812 84.0758 82.2578 85.1572 82.2578Z" fill="white"/>
<path d="M65.2158 82.2578C66.2972 82.2578 67.1738 81.3812 67.1738 80.2998C67.1738 79.2184 66.2972 78.3418 65.2158 78.3418C64.1344 78.3418 63.2578 79.2184 63.2578 80.2998C63.2578 81.3812 64.1344 82.2578 65.2158 82.2578Z" fill="white"/>
<path d="M82.5142 67.8038C82.4642 67.8038 82.4132 67.7988 82.3622 67.7898C81.8812 67.7068 81.5582 67.2478 81.6422 66.7678L84.8982 48.0448C84.9822 47.5638 85.4412 47.2398 85.9212 47.3238C86.4022 47.4078 86.7252 47.8658 86.6412 48.3468L83.3852 67.0698C83.3092 67.4998 82.9362 67.8038 82.5142 67.8038Z" fill="#EFC30A"/>
<path d="M77.9357 67.3961C77.9157 67.3961 77.8967 67.3951 77.8767 67.3941C77.3897 67.3621 77.0207 66.9411 77.0527 66.4541L78.2737 47.9341C78.3057 47.4471 78.7287 47.0721 79.2137 47.1101C79.7007 47.1421 80.0697 47.5631 80.0377 48.0501L78.8167 66.5701C78.7857 67.0381 78.3977 67.3961 77.9357 67.3961Z" fill="#EFC30A"/>
<path d="M68.3681 67.803C67.9401 67.803 67.5641 67.491 67.4951 67.056L64.5441 48.333C64.4681 47.851 64.7981 47.397 65.2801 47.321C65.7621 47.247 66.2161 47.575 66.2911 48.057L69.2421 66.78C69.3181 67.262 68.9881 67.715 68.5061 67.792C68.4601 67.799 68.4141 67.803 68.3681 67.803Z" fill="#EFC30A"/>
<path d="M73.2522 67.3972C72.7842 67.3972 72.3932 67.0292 72.3702 66.5562L71.4542 48.0362C71.4302 47.5492 71.8062 47.1342 72.2942 47.1092C72.7752 47.0782 73.1972 47.4612 73.2212 47.9492L74.1372 66.4682C74.1612 66.9562 73.7852 67.3712 73.2982 67.3962C73.2822 67.3972 73.2672 67.3972 73.2522 67.3972Z" fill="#EFC30A"/>
<path d="M90.7544 54.7798H61.4494C60.9604 54.7798 60.5645 54.3838 60.5645 53.8948C60.5645 53.4058 60.9604 53.0098 61.4494 53.0098H90.7544C91.2424 53.0098 91.6385 53.4058 91.6385 53.8948C91.6385 54.3828 91.2424 54.7798 90.7544 54.7798Z" fill="#EFC30A"/>
<path d="M88.312 61.2905H62.466C61.978 61.2905 61.582 60.8945 61.582 60.4055C61.582 59.9175 61.978 59.5215 62.466 59.5215H88.312C88.801 59.5215 89.197 59.9175 89.197 60.4055C89.196 60.8955 88.8 61.2905 88.312 61.2905Z" fill="#EFC30A"/>
<path d="M17.5539 14.1683C18.5242 14.1683 19.3109 13.3817 19.3109 12.4113C19.3109 11.4409 18.5242 10.6543 17.5539 10.6543C16.5835 10.6543 15.7969 11.4409 15.7969 12.4113C15.7969 13.3817 16.5835 14.1683 17.5539 14.1683Z" fill="#4396CA"/>
<path d="M87.3706 26.9327C88.5106 26.9327 89.4346 26.0086 89.4346 24.8687C89.4346 23.7288 88.5106 22.8047 87.3706 22.8047C86.2307 22.8047 85.3066 23.7288 85.3066 24.8687C85.3066 26.0086 86.2307 26.9327 87.3706 26.9327Z" fill="#025482"/>
<path d="M45.0717 4.74487C45.8857 4.74487 46.5457 4.08494 46.5457 3.27087C46.5457 2.45681 45.8857 1.79688 45.0717 1.79688C44.2576 1.79688 43.5977 2.45681 43.5977 3.27087C43.5977 4.08494 44.2576 4.74487 45.0717 4.74487Z" fill="#025482"/>
<path d="M94.4483 34.9922C95.2082 34.9922 95.8243 34.3762 95.8243 33.6162C95.8243 32.8563 95.2082 32.2402 94.4483 32.2402C93.6883 32.2402 93.0723 32.8563 93.0723 33.6162C93.0723 34.3762 93.6883 34.9922 94.4483 34.9922Z" fill="#97E4FF"/>
<path d="M58.2898 38.4038C59.1585 38.4038 59.8628 37.6996 59.8628 36.8308C59.8628 35.9621 59.1585 35.2578 58.2898 35.2578C57.4211 35.2578 56.7168 35.9621 56.7168 36.8308C56.7168 37.6996 57.4211 38.4038 58.2898 38.4038Z" fill="#FFD56C"/>
<path d="M80.7496 44.8763C85.6887 44.8763 89.6926 40.8723 89.6926 35.9333C89.6926 30.9942 85.6887 26.9902 80.7496 26.9902C75.8106 26.9902 71.8066 30.9942 71.8066 35.9333C71.8066 40.8723 75.8106 44.8763 80.7496 44.8763Z" fill="#97E4FF"/>
<path d="M76.7999 41.0382C74.9609 41.0382 73.4648 39.5422 73.4648 37.7022C73.4648 35.8632 74.9609 34.3672 76.7999 34.3672C78.6389 34.3672 80.1358 35.8632 80.1358 37.7022C80.1358 39.5412 78.6399 41.0382 76.7999 41.0382ZM76.7999 35.5452C75.6109 35.5452 74.6438 36.5132 74.6438 37.7012C74.6438 38.8902 75.6109 39.8582 76.7999 39.8582C77.9889 39.8582 78.9568 38.8902 78.9568 37.7012C78.9568 36.5132 77.9889 35.5452 76.7999 35.5452Z" fill="white"/>
<path d="M84.4102 41.1857C82.5712 41.1857 81.0742 39.6887 81.0742 37.8497C81.0742 36.0097 82.5712 34.5137 84.4102 34.5137C86.2492 34.5137 87.7452 36.0097 87.7452 37.8497C87.7452 39.6887 86.2492 41.1857 84.4102 41.1857ZM84.4102 35.6937C83.2212 35.6937 82.2542 36.6607 82.2542 37.8497C82.2542 39.0377 83.2212 40.0057 84.4102 40.0057C85.5992 40.0057 86.5662 39.0377 86.5662 37.8497C86.5662 36.6607 85.5992 35.6937 84.4102 35.6937Z" fill="white"/>
<path d="M81.7536 38.1876C81.7516 38.1876 81.7486 38.1876 81.7466 38.1876L77.0286 38.1316C76.8206 38.1286 76.6306 38.0186 76.5256 37.8386C76.4206 37.6586 76.4186 37.4386 76.5196 37.2566L78.5186 33.6486C78.6156 33.4726 78.7956 33.3595 78.9956 33.3455C79.1996 33.3295 79.3886 33.4215 79.5086 33.5825L82.2286 37.2455C82.3626 37.4255 82.3826 37.6655 82.2806 37.8655C82.1776 38.0635 81.9746 38.1876 81.7536 38.1876ZM78.0286 36.9646L80.5706 36.9936L79.1046 35.0196L78.0286 36.9646Z" fill="white"/>
<path d="M80.3098 32.7481C80.2488 32.7481 80.1878 32.7381 80.1278 32.7191L78.0738 32.0531C77.7638 31.9521 77.5948 31.6191 77.6948 31.3101C77.7958 31.0001 78.1278 30.8311 78.4378 30.9311L80.4918 31.5971C80.8018 31.6981 80.9708 32.0311 80.8708 32.3401C80.7898 32.5881 80.5588 32.7481 80.3098 32.7481Z" fill="white"/>
<path d="M84.411 38.1863C84.389 38.1863 84.368 38.1853 84.345 38.1823C84.022 38.1473 83.788 37.8553 83.824 37.5323L84.497 31.4263C84.533 31.1023 84.826 30.8733 85.148 30.9053C85.472 30.9403 85.705 31.2323 85.669 31.5563L84.996 37.6613C84.963 37.9623 84.707 38.1863 84.411 38.1863Z" fill="white"/>
<path d="M86.9322 33.1173C86.8182 33.1173 86.7022 33.0843 86.6002 33.0143L83.3432 30.7933C83.0742 30.6103 83.0052 30.2433 83.1882 29.9743C83.3712 29.7053 83.7382 29.6353 84.0072 29.8203L87.2642 32.0403C87.5332 32.2243 87.6022 32.5913 87.4192 32.8603C87.3062 33.0273 87.1212 33.1173 86.9322 33.1173Z" fill="white"/>
<path d="M84.409 37.0078H81.752V38.1878H84.409V37.0078Z" fill="white"/>
<path d="M79.087 34.6344C78.761 34.6344 78.498 34.3694 78.498 34.0444V31.9904C78.498 31.6644 78.762 31.4004 79.087 31.4004C79.412 31.4004 79.677 31.6644 79.677 31.9904V34.0444C79.676 34.3704 79.412 34.6344 79.087 34.6344Z" fill="white"/>
<path d="M65.8985 33.5821C69.5347 33.5821 72.4825 30.6343 72.4825 26.998C72.4825 23.3618 69.5347 20.4141 65.8985 20.4141C62.2622 20.4141 59.3145 23.3618 59.3145 26.998C59.3145 30.6343 62.2622 33.5821 65.8985 33.5821Z" fill="#FFCB2F"/>
<path d="M63.0907 29.3553C61.8757 29.3553 60.8867 28.3663 60.8867 27.1513C60.8867 25.9353 61.8757 24.9473 63.0907 24.9473C64.3067 24.9473 65.2947 25.9353 65.2947 27.1513C65.2947 28.3663 64.3067 29.3553 63.0907 29.3553ZM63.0907 26.1253C62.5257 26.1253 62.0657 26.5853 62.0657 27.1503C62.0657 27.7143 62.5257 28.1743 63.0907 28.1743C63.6557 28.1743 64.1157 27.7143 64.1157 27.1503C64.1157 26.5853 63.6557 26.1253 63.0907 26.1253Z" fill="white"/>
<path d="M68.3134 29.3553C67.0984 29.3553 66.1094 28.3663 66.1094 27.1513C66.1094 25.9353 67.0984 24.9473 68.3134 24.9473C69.5284 24.9473 70.5174 25.9353 70.5174 27.1513C70.5174 28.3663 69.5284 29.3553 68.3134 29.3553ZM68.3134 26.1253C67.7484 26.1253 67.2884 26.5853 67.2884 27.1503C67.2884 27.7143 67.7484 28.1743 68.3134 28.1743C68.8784 28.1743 69.3374 27.7143 69.3374 27.1503C69.3384 26.5853 68.8784 26.1253 68.3134 26.1253Z" fill="white"/>
<path d="M66.5085 26.5605H64.8945V27.7405H66.5085V26.5605Z" fill="white"/>
</svg>
