<svg width="122" height="87" viewBox="0 0 122 87" fill="none" xmlns="http://www.w3.org/2000/svg">
<path d="M0.378906 82.356L6.1669 76.998H52.4679L57.5749 82.356H0.378906Z" fill="#025482"/>
<path d="M51.7437 77.6081H6.20865C5.45665 77.6081 4.84766 76.9781 4.84766 76.2021V47.6951C4.84766 46.9181 5.45665 46.2891 6.20865 46.2891H51.7437C52.4947 46.2891 53.1037 46.9181 53.1037 47.6951V76.2021C53.1037 76.9781 52.4947 77.6081 51.7437 77.6081Z" fill="#062C3F"/>
<path d="M49.9767 76.4324H7.97571C7.28271 76.4324 6.7207 75.8704 6.7207 75.1774V49.7393C6.7207 49.0473 7.28271 48.4844 7.97571 48.4844H49.9767C50.6697 48.4844 51.2327 49.0473 51.2327 49.7393V75.1774C51.2327 75.8714 50.6707 76.4324 49.9767 76.4324Z" fill="#4396CA"/>
<path d="M28.9758 47.7173C29.258 47.7173 29.4868 47.4885 29.4868 47.2063C29.4868 46.9241 29.258 46.6953 28.9758 46.6953C28.6936 46.6953 28.4648 46.9241 28.4648 47.2063C28.4648 47.4885 28.6936 47.7173 28.9758 47.7173Z" fill="#025482"/>
<path d="M54.643 86.6185H3.30896C1.68996 86.6185 0.376953 85.3065 0.376953 83.6875V82.3555H57.573V83.6875C57.574 85.3065 56.261 86.6185 54.643 86.6185Z" fill="#062C3F"/>
<path d="M19.103 77.593C19.103 77.875 18.8739 78.104 18.5919 78.104H12.804C12.522 78.104 12.293 77.875 12.293 77.593C12.293 77.311 12.522 77.082 12.804 77.082H18.5919C18.8749 77.082 19.103 77.311 19.103 77.593Z" fill="#03436B"/>
<path d="M46.5092 77.593C46.5092 77.875 46.2802 78.104 45.9982 78.104H40.2102C39.9292 78.104 39.6992 77.875 39.6992 77.593C39.6992 77.311 39.9282 77.082 40.2102 77.082H45.9982C46.2812 77.082 46.5092 77.311 46.5092 77.593Z" fill="#03436B"/>
<path d="M22.252 81.5891L24.154 79.8281H34.021L35.7 81.5891H22.252Z" fill="#4396CA"/>
<path d="M30.6783 78.6836H27.4883V78.9786H30.6783V78.6836Z" fill="white"/>
<path d="M7.78204 80.9707H4.20703V81.2657H7.78204V80.9707Z" fill="white"/>
<path d="M10.4205 78.6836H7.23047V78.9786H10.4205V78.6836Z" fill="white"/>
<path d="M9.05719 79.7285H5.86719V80.0235H9.05719V79.7285Z" fill="white"/>
<path d="M16.6334 78.6836H13.4434V78.9786H16.6334V78.6836Z" fill="white"/>
<path d="M15.0162 79.7285H11.8262V80.0235H15.0162V79.7285Z" fill="white"/>
<path d="M19.2712 80.9707H15.6973V81.2657H19.2712V80.9707Z" fill="white"/>
<path d="M22.6763 78.6836H19.4863V78.9786H22.6763V78.6836Z" fill="white"/>
<path d="M21.0591 79.7285H17.8691V80.0235H21.0591V79.7285Z" fill="white"/>
<path d="M13.5681 81.2285H9.99414V81.5235H13.5681V81.2285Z" fill="white"/>
<path d="M54.3377 80.9707H50.7637V81.2657H54.3377V80.9707Z" fill="white"/>
<path d="M51.317 78.6836H48.127V78.9786H51.317V78.6836Z" fill="white"/>
<path d="M52.6763 79.7285H49.4863V80.0235H52.6763V79.7285Z" fill="white"/>
<path d="M45.1021 78.6836H41.9121V78.9786H45.1021V78.6836Z" fill="white"/>
<path d="M46.7193 79.7285H43.5293V80.0235H46.7193V79.7285Z" fill="white"/>
<path d="M42.8474 80.9707H39.2734V81.2657H42.8474V80.9707Z" fill="white"/>
<path d="M39.0591 78.6836H35.8691V78.9786H39.0591V78.6836Z" fill="white"/>
<path d="M40.6763 79.7285H37.4863V80.0235H40.6763V79.7285Z" fill="white"/>
<path d="M48.5516 81.2285H44.9766V81.5235H48.5516V81.2285Z" fill="white"/>
<path d="M100.371 47.7026C103.655 47.7026 106.318 45.04 106.318 41.7556C106.318 38.4711 103.655 35.8086 100.371 35.8086C97.0864 35.8086 94.4238 38.4711 94.4238 41.7556C94.4238 45.04 97.0864 47.7026 100.371 47.7026Z" fill="#4396CA"/>
<path d="M99.8409 43.9881C99.7099 43.9881 99.5799 43.9441 99.4729 43.8581L97.3069 42.1261C97.0529 41.9231 97.0119 41.5521 97.2149 41.2981C97.4179 41.0431 97.7899 41.0021 98.0439 41.2051L99.8609 42.6591L103.288 40.2121C103.552 40.0221 103.921 40.0831 104.11 40.3491C104.299 40.6141 104.238 40.9821 103.972 41.1711L100.183 43.8781C100.081 43.9511 99.9609 43.9881 99.8409 43.9881Z" fill="white"/>
<path d="M27.9641 28.6624C33.0539 28.6624 37.1801 24.5363 37.1801 19.4464C37.1801 14.3566 33.0539 10.2305 27.9641 10.2305C22.8742 10.2305 18.748 14.3566 18.748 19.4464C18.748 24.5363 22.8742 28.6624 27.9641 28.6624Z" fill="#FFCB2F"/>
<path d="M27.9632 12.9609L29.9232 16.9349L34.3082 17.5719L31.1352 20.6649L31.8842 25.032L27.9632 22.9699L24.0412 25.032L24.7902 20.6649L21.6172 17.5719L26.0022 16.9349L27.9632 12.9609Z" fill="white"/>
<path d="M13.6667 44.4428C15.6627 44.4428 17.2808 42.8248 17.2808 40.8289C17.2808 38.8329 15.6627 37.2148 13.6667 37.2148C11.6708 37.2148 10.0527 38.8329 10.0527 40.8289C10.0527 42.8248 11.6708 44.4428 13.6667 44.4428Z" fill="#4396CA"/>
<path d="M15.254 39.5194C14.713 39.2284 14.003 39.5934 13.672 40.0974C13.341 39.5934 12.594 39.2284 12.053 39.5194C11.48 39.8274 11.345 40.4234 11.653 40.9974C11.961 41.5694 13.67 42.9654 13.673 42.9484C13.676 42.9654 15.385 41.5694 15.693 40.9974C15.999 40.4234 15.827 39.8274 15.254 39.5194Z" fill="white"/>
<path d="M77.7997 28.4706C83.459 28.4706 88.0467 23.8828 88.0467 18.2236C88.0467 12.5643 83.459 7.97656 77.7997 7.97656C72.1405 7.97656 67.5527 12.5643 67.5527 18.2236C67.5527 23.8828 72.1405 28.4706 77.7997 28.4706Z" fill="#4396CA"/>
<path d="M82.3005 14.5096C80.7655 13.6846 78.7545 14.7206 77.8155 16.1496C76.8765 14.7206 74.7585 13.6846 73.2235 14.5096C71.5995 15.3816 71.2155 17.0736 72.0875 18.6976C72.9595 20.3226 77.8055 24.2786 77.8155 24.2306C77.8245 24.2786 82.6695 20.3226 83.5425 18.6976C84.4145 17.0746 83.9255 15.3816 82.3005 14.5096Z" fill="white"/>
<path d="M93.1063 18.5915C94.9664 18.5915 96.4743 17.0835 96.4743 15.2234C96.4743 13.3634 94.9664 11.8555 93.1063 11.8555C91.2462 11.8555 89.7383 13.3634 89.7383 15.2234C89.7383 17.0835 91.2462 18.5915 93.1063 18.5915Z" fill="#025482"/>
<path d="M93.4917 13.3594H92.7227V17.0894H93.4917V13.3594Z" fill="white"/>
<path d="M94.9712 14.8398H91.2422V15.6078H94.9712V14.8398Z" fill="white"/>
<path d="M26.4411 44.5013C30.0922 44.5013 33.0521 41.5415 33.0521 37.8903C33.0521 34.2392 30.0922 31.2793 26.4411 31.2793C22.7899 31.2793 19.8301 34.2392 19.8301 37.8903C19.8301 41.5415 22.7899 44.5013 26.4411 44.5013Z" fill="#025482"/>
<path d="M27.1935 34.2285H25.6855V41.5505H27.1935V34.2285Z" fill="white"/>
<path d="M30.1013 37.1348H22.7793V38.6428H30.1013V37.1348Z" fill="white"/>
<path d="M12.4136 35.5793C15.9245 35.5793 18.7706 32.7331 18.7706 29.2223C18.7706 25.7114 15.9245 22.8652 12.4136 22.8652C8.90276 22.8652 6.05664 25.7114 6.05664 29.2223C6.05664 32.7331 8.90276 35.5793 12.4136 35.5793Z" fill="#062C3F"/>
<path d="M15.9524 32.1235H9.03336C8.70736 32.1235 8.44336 31.8585 8.44336 31.5335V27.1095C8.44336 26.7845 8.70736 26.5195 9.03336 26.5195H15.9524C16.2774 26.5195 16.5414 26.7845 16.5414 27.1095V31.5335C16.5414 31.8595 16.2774 32.1235 15.9524 32.1235ZM9.62335 30.9445H15.3624V27.7005H9.62335V30.9445Z" fill="white"/>
<path d="M12.5787 30.1926C13.1216 30.1926 13.5617 29.7525 13.5617 29.2096C13.5617 28.6667 13.1216 28.2266 12.5787 28.2266C12.0358 28.2266 11.5957 28.6667 11.5957 29.2096C11.5957 29.7525 12.0358 30.1926 12.5787 30.1926Z" fill="white"/>
<path d="M14.3561 27.5831C13.9491 27.5831 13.6191 27.2531 13.6191 26.8461V26.3171C13.6191 25.9101 13.9491 25.5801 14.3561 25.5801C14.7631 25.5801 15.0931 25.9101 15.0931 26.3171V26.8461C15.0931 27.2531 14.7631 27.5831 14.3561 27.5831Z" fill="white"/>
<path d="M95.617 35.0641C99.3179 35.0641 102.318 32.064 102.318 28.3631C102.318 24.6622 99.3179 21.6621 95.617 21.6621C91.9161 21.6621 88.916 24.6622 88.916 28.3631C88.916 32.064 91.9161 35.0641 95.617 35.0641Z" fill="#FFD56C"/>
<path d="M100.519 28.7807C100.519 28.7807 98.6708 31.5087 95.4578 31.3327C92.5098 31.1717 90.9258 28.7807 90.9258 28.7807C90.9258 28.7807 92.2458 25.7887 95.4578 25.6997C99.1988 25.5977 100.519 28.7807 100.519 28.7807Z" fill="white"/>
<path d="M95.8111 30.5871C96.929 30.5871 97.8351 29.6809 97.8351 28.563C97.8351 27.4452 96.929 26.5391 95.8111 26.5391C94.6933 26.5391 93.7871 27.4452 93.7871 28.563C93.7871 29.6809 94.6933 30.5871 95.8111 30.5871Z" fill="#FFD56C"/>
<path d="M45.8463 20.2806C50.0266 20.2806 53.4153 16.8918 53.4153 12.7116C53.4153 8.53133 50.0266 5.14258 45.8463 5.14258C41.6661 5.14258 38.2773 8.53133 38.2773 12.7116C38.2773 16.8918 41.6661 20.2806 45.8463 20.2806Z" fill="#CDEEFC"/>
<path d="M49.526 9.34271C49.893 9.46471 50.141 10.2317 49.868 11.4617C49.595 12.6907 49.184 15.4937 49.184 15.4937H48.16C48.16 15.4937 48.638 12.4857 47.681 12.2127C46.724 11.9397 46.109 15.4937 43.922 15.4937C41.734 15.4937 40.368 15.5617 40.3 14.9467C40.232 14.3317 43.238 13.7847 44.469 12.2127C46.286 9.8917 48.911 9.13771 49.526 9.34271Z" fill="white"/>
<path d="M82.8604 46.4162C86.9589 46.4162 90.2814 43.0937 90.2814 38.9952C90.2814 34.8967 86.9589 31.5742 82.8604 31.5742C78.7619 31.5742 75.4395 34.8967 75.4395 38.9952C75.4395 43.0937 78.7619 46.4162 82.8604 46.4162Z" fill="#062C3F"/>
<path d="M86.7916 42.1279H78.7296C78.4046 42.1279 78.1406 41.8639 78.1406 41.5379V36.3849C78.1406 36.0589 78.4046 35.7949 78.7296 35.7949H86.7916C87.1176 35.7949 87.3816 36.0589 87.3816 36.3849V41.5379C87.3806 41.8649 87.1176 42.1279 86.7916 42.1279ZM79.3196 40.9499H86.2026V36.9739H79.3196V40.9499Z" fill="white"/>
<path d="M82.875 40.0841C82.751 40.0841 82.627 40.0451 82.521 39.9661L78.375 36.8571L79.083 35.9141L82.864 38.7511L86.424 35.9241L87.157 36.8481L83.241 39.9571C83.134 40.0421 83.005 40.0841 82.875 40.0841Z" fill="white"/>
<path d="M59.7337 27.9967C63.3081 27.9967 66.2057 25.0991 66.2057 21.5247C66.2057 17.9503 63.3081 15.0527 59.7337 15.0527C56.1593 15.0527 53.2617 17.9503 53.2617 21.5247C53.2617 25.0991 56.1593 27.9967 59.7337 27.9967Z" fill="#062C3F"/>
<path d="M59.7327 26.2201C57.1857 26.2201 55.0807 24.1481 55.0397 21.6001C54.9987 19.0121 57.0707 16.8721 59.6597 16.8301H59.7356C62.2826 16.8301 64.3876 18.9021 64.4286 21.4491C64.4696 24.0381 62.3976 26.1781 59.8096 26.2191L59.7327 26.2201ZM59.7356 18.0091L59.6777 18.0101C57.7397 18.0401 56.1876 19.6431 56.2186 21.5811C56.2486 23.4881 57.8257 25.0411 59.7327 25.0411L59.7906 25.0401C61.7286 25.0091 63.2807 23.4071 63.2497 21.4691C63.2187 19.5611 61.6426 18.0091 59.7356 18.0091Z" fill="white"/>
<path d="M59.7339 22.1155C59.6459 22.1155 59.5579 22.0955 59.4759 22.0565L57.9069 21.2955C57.6139 21.1535 57.4909 20.8016 57.6339 20.5076C57.7759 20.2146 58.1279 20.0925 58.4209 20.2345L59.7109 20.8595L61.6069 19.7715C61.8889 19.6095 62.2499 19.7075 62.4119 19.9895C62.5739 20.2725 62.4759 20.6325 62.1939 20.7945L60.0279 22.0376C59.9359 22.0886 59.8359 22.1155 59.7339 22.1155Z" fill="white"/>
<path d="M100.649 77.2791H80.7152C80.0642 77.2791 79.5352 76.7511 79.5352 76.0991C79.5352 75.4491 80.0632 74.9201 80.7152 74.9201H100.649C101.809 74.9201 102.753 73.9761 102.753 72.8161V72.7501C102.753 71.5901 101.809 70.6461 100.649 70.6461H80.7152C80.0642 70.6461 79.5352 70.1191 79.5352 69.4671C79.5352 68.8151 80.0632 68.2871 80.7152 68.2871H100.649C103.11 68.2871 105.112 70.2891 105.112 72.7501V72.8161C105.112 75.2771 103.11 77.2791 100.649 77.2791Z" fill="#0C618C"/>
<path d="M102.681 70.6219C102.596 70.6219 102.509 70.6089 102.424 70.5839C101.956 70.4419 101.692 69.9479 101.833 69.4799L107.238 51.6049H77.7445L81.1895 69.5699C81.2815 70.0489 80.9665 70.5129 80.4875 70.6049C80.0035 70.6959 79.5445 70.3819 79.4515 69.9029L75.6035 49.8359H109.621L103.526 69.993C103.411 70.374 103.061 70.6219 102.681 70.6219Z" fill="#0C618C"/>
<path d="M108.43 51.6057C108.331 51.6057 108.231 51.5887 108.132 51.5537C107.672 51.3897 107.433 50.8837 107.597 50.4237L109.958 43.8027H115.594C116.082 43.8027 116.478 44.1987 116.478 44.6867C116.478 45.1757 116.082 45.5717 115.594 45.5717H111.205L109.263 51.0177C109.134 51.3797 108.794 51.6057 108.43 51.6057Z" fill="#0C618C"/>
<path d="M120.319 46.1619H115.601C114.787 46.1619 114.127 45.5019 114.127 44.6869C114.127 43.8739 114.786 43.2129 115.601 43.2129H120.319C121.133 43.2129 121.793 43.8729 121.793 44.6869C121.793 45.5009 121.133 46.1619 120.319 46.1619Z" fill="#0C618C"/>
<path d="M101.187 85.992C103.394 85.992 105.183 84.2029 105.183 81.996C105.183 79.7891 103.394 78 101.187 78C98.9805 78 97.1914 79.7891 97.1914 81.996C97.1914 84.2029 98.9805 85.992 101.187 85.992Z" fill="#4396CA"/>
<path d="M82.3954 85.9919C84.6018 85.9919 86.3904 84.2033 86.3904 81.9969C86.3904 79.7906 84.6018 78.002 82.3954 78.002C80.189 78.002 78.4004 79.7906 78.4004 81.9969C78.4004 84.2033 80.189 85.9919 82.3954 85.9919Z" fill="#4396CA"/>
<path d="M101.187 83.8628C102.217 83.8628 103.052 83.0278 103.052 81.9978C103.052 80.9678 102.217 80.1328 101.187 80.1328C100.157 80.1328 99.3223 80.9678 99.3223 81.9978C99.3223 83.0278 100.157 83.8628 101.187 83.8628Z" fill="white"/>
<path d="M82.2009 83.8628C83.2309 83.8628 84.0659 83.0278 84.0659 81.9978C84.0659 80.9678 83.2309 80.1328 82.2009 80.1328C81.1709 80.1328 80.3359 80.9678 80.3359 81.9978C80.3359 83.0278 81.1709 83.8628 82.2009 83.8628Z" fill="white"/>
<path d="M98.6692 70.1431C98.6182 70.1431 98.5672 70.1391 98.5172 70.1301C98.0362 70.0461 97.7132 69.5881 97.7962 69.1071L100.896 51.2841C100.98 50.8031 101.438 50.4801 101.919 50.5641C102.4 50.6481 102.723 51.1061 102.639 51.5861L99.5392 69.4091C99.4642 69.8401 99.0902 70.1431 98.6692 70.1431Z" fill="#0C618C"/>
<path d="M94.3088 69.7549C94.2888 69.7549 94.2698 69.7549 94.2498 69.7529C93.7628 69.7219 93.3938 69.3 93.4258 68.813L94.5877 51.1839C94.6197 50.6969 95.0418 50.3229 95.5278 50.3599C96.0148 50.3909 96.3838 50.813 96.3518 51.3L95.1897 68.9289C95.1597 69.3969 94.7708 69.7549 94.3088 69.7549Z" fill="#0C618C"/>
<path d="M85.2027 70.1432C84.7747 70.1432 84.3987 69.8322 84.3307 69.3962L81.5207 51.5732C81.4447 51.0912 81.7746 50.6382 82.2566 50.5612C82.7396 50.4872 83.1926 50.8152 83.2686 51.2972L86.0777 69.1202C86.1537 69.6022 85.8236 70.0562 85.3416 70.1322C85.2946 70.1392 85.2487 70.1432 85.2027 70.1432Z" fill="#0C618C"/>
<path d="M89.8518 69.7557C89.3828 69.7557 88.9928 69.3887 88.9688 68.9157L88.0968 51.2857C88.0728 50.7977 88.4498 50.3827 88.9368 50.3587C89.4158 50.3327 89.8398 50.7107 89.8638 51.1977L90.7358 68.8277C90.7598 69.3157 90.3838 69.7297 89.8958 69.7547C89.8808 69.7557 89.8668 69.7557 89.8518 69.7557Z" fill="#0C618C"/>
<path d="M106.513 57.7446H78.6174C78.1284 57.7446 77.7324 57.3486 77.7324 56.8596C77.7324 56.3706 78.1284 55.9746 78.6174 55.9746H106.513C107.002 55.9746 107.398 56.3706 107.398 56.8596C107.398 57.3486 107.003 57.7446 106.513 57.7446Z" fill="#0C618C"/>
<path d="M104.189 63.9448H79.5852C79.0972 63.9448 78.7012 63.5488 78.7012 63.0598C78.7012 62.5718 79.0972 62.1758 79.5852 62.1758H104.189C104.678 62.1758 105.074 62.5718 105.074 63.0598C105.074 63.5488 104.678 63.9448 104.189 63.9448Z" fill="#0C618C"/>
<path d="M15.2627 19.9376C16.0227 19.9376 16.6387 19.3215 16.6387 18.5616C16.6387 17.8016 16.0227 17.1855 15.2627 17.1855C14.5028 17.1855 13.8867 17.8016 13.8867 18.5616C13.8867 19.3215 14.5028 19.9376 15.2627 19.9376Z" fill="#97E4FF"/>
<path d="M69.61 33.9915C71.0752 33.9915 72.263 32.8038 72.263 31.3386C72.263 29.8734 71.0752 28.6855 69.61 28.6855C68.1448 28.6855 66.957 29.8734 66.957 31.3386C66.957 32.8038 68.1448 33.9915 69.61 33.9915Z" fill="#FFD56C"/>
<path d="M34.2302 8.04626C35.6959 8.04626 36.8842 6.85804 36.8842 5.39227C36.8842 3.92651 35.6959 2.73828 34.2302 2.73828C32.7644 2.73828 31.5762 3.92651 31.5762 5.39227C31.5762 6.85804 32.7644 8.04626 34.2302 8.04626Z" fill="#062C3F"/>
<path d="M45.3363 44.2137C51.1441 44.2137 55.8523 39.5055 55.8523 33.6976C55.8523 27.8898 51.1441 23.1816 45.3363 23.1816C39.5285 23.1816 34.8203 27.8898 34.8203 33.6976C34.8203 39.5055 39.5285 44.2137 45.3363 44.2137Z" fill="#97E4FF"/>
<path d="M40.693 39.595C38.588 39.595 36.875 37.882 36.875 35.777C36.875 33.672 38.588 31.959 40.693 31.959C42.798 31.959 44.511 33.672 44.511 35.777C44.511 37.882 42.799 39.595 40.693 39.595ZM40.693 33.137C39.238 33.137 38.053 34.322 38.053 35.777C38.053 37.232 39.238 38.416 40.693 38.416C42.148 38.416 43.332 37.232 43.332 35.777C43.332 34.322 42.148 33.137 40.693 33.137Z" fill="white"/>
<path d="M49.6383 39.7688C47.5333 39.7688 45.8203 38.0558 45.8203 35.9508C45.8203 33.8458 47.5333 32.1328 49.6383 32.1328C51.7433 32.1328 53.4573 33.8458 53.4573 35.9508C53.4573 38.0558 51.7443 39.7688 49.6383 39.7688ZM49.6383 33.3108C48.1833 33.3108 46.9993 34.4958 46.9993 35.9508C46.9993 37.4058 48.1833 38.5898 49.6383 38.5898C51.0943 38.5898 52.2783 37.4058 52.2783 35.9508C52.2783 34.4958 51.0943 33.3108 49.6383 33.3108Z" fill="white"/>
<path d="M46.5146 36.2456C46.5126 36.2456 46.5096 36.2456 46.5076 36.2456L40.9596 36.1806C40.7516 36.1776 40.5616 36.0666 40.4566 35.8866C40.3526 35.7076 40.3506 35.4866 40.4496 35.3056L42.7996 31.0626C42.8976 30.8876 43.0766 30.7736 43.2776 30.7596C43.4806 30.7436 43.6706 30.8356 43.7896 30.9966L46.9886 35.3046C47.1216 35.4846 47.1416 35.7246 47.0406 35.9246C46.9396 36.1216 46.7366 36.2456 46.5146 36.2456ZM41.9616 35.0116L45.3326 35.0516L43.3896 32.4336L41.9616 35.0116Z" fill="white"/>
<path d="M44.8173 29.8475C44.7573 29.8475 44.6963 29.8375 44.6353 29.8185L42.2204 29.0355C41.9094 28.9345 41.7414 28.6025 41.8414 28.2925C41.9424 27.9825 42.2733 27.8135 42.5833 27.9135L44.9993 28.6965C45.3093 28.7975 45.4783 29.1305 45.3783 29.4395C45.2983 29.6885 45.0663 29.8475 44.8173 29.8475Z" fill="white"/>
<path d="M49.6405 36.2443C49.6195 36.2443 49.5975 36.2432 49.5755 36.2402C49.2525 36.2052 49.0184 35.9133 49.0544 35.5903L49.8465 28.4093C49.8825 28.0853 50.1765 27.8533 50.4975 27.8883C50.8205 27.9243 51.0545 28.2153 51.0185 28.5393L50.2265 35.7193C50.1935 36.0203 49.9375 36.2443 49.6405 36.2443Z" fill="white"/>
<path d="M52.6075 30.2827C52.4935 30.2827 52.3775 30.2497 52.2755 30.1797L48.4465 27.5687C48.1775 27.3857 48.1085 27.0187 48.2925 26.7497C48.4755 26.4807 48.8425 26.4107 49.1115 26.5957L52.9405 29.2067C53.2095 29.3897 53.2785 29.7567 53.0945 30.0257C52.9815 30.1927 52.7965 30.2827 52.6075 30.2827Z" fill="white"/>
<path d="M49.6396 35.0645H46.5156V36.2445H49.6396V35.0645Z" fill="white"/>
<path d="M43.383 32.0677C43.057 32.0677 42.793 31.8037 42.793 31.4777V29.0627C42.793 28.7377 43.057 28.4727 43.383 28.4727C43.708 28.4727 43.973 28.7377 43.973 29.0627V31.4777C43.972 31.8037 43.708 32.0677 43.383 32.0677Z" fill="white"/>
<path d="M61.748 13.5489C65.3843 13.5489 68.3321 10.6011 68.3321 6.96484C68.3321 3.3286 65.3843 0.380859 61.748 0.380859C58.1118 0.380859 55.1641 3.3286 55.1641 6.96484C55.1641 10.6011 58.1118 13.5489 61.748 13.5489Z" fill="#FFCB2F"/>
<path d="M58.9403 9.32404C57.7243 9.32404 56.7363 8.33503 56.7363 7.12003C56.7363 5.90403 57.7243 4.91602 58.9403 4.91602C60.1553 4.91602 61.1443 5.90403 61.1443 7.12003C61.1443 8.33403 60.1553 9.32404 58.9403 9.32404ZM58.9403 6.09402C58.3753 6.09402 57.9153 6.55402 57.9153 7.11902C57.9153 7.68302 58.3753 8.14304 58.9403 8.14304C59.5043 8.14304 59.9643 7.68302 59.9643 7.11902C59.9653 6.55402 59.5053 6.09402 58.9403 6.09402Z" fill="white"/>
<path d="M64.163 9.32404C62.947 9.32404 61.959 8.33503 61.959 7.12003C61.959 5.90403 62.947 4.91602 64.163 4.91602C65.378 4.91602 66.367 5.90403 66.367 7.12003C66.367 8.33403 65.378 9.32404 64.163 9.32404ZM64.163 6.09402C63.598 6.09402 63.139 6.55402 63.139 7.11902C63.139 7.68302 63.598 8.14304 64.163 8.14304C64.727 8.14304 65.187 7.68302 65.187 7.11902C65.187 6.55402 64.727 6.09402 64.163 6.09402Z" fill="white"/>
<path d="M62.3582 6.5293H60.7441V7.70929H62.3582V6.5293Z" fill="white"/>
<path d="M37.2768 66.2257H20.5708C20.1898 66.2257 19.8828 65.9167 19.8828 65.5377V58.6587C19.8828 58.2787 20.1908 57.9707 20.5708 57.9707H37.2768C37.6568 57.9707 37.9648 58.2797 37.9648 58.6587V65.5377C37.9648 65.9167 37.6568 66.2257 37.2768 66.2257Z" fill="#97E4FF"/>
<path d="M24.6309 63.6684V60.5254H26.2259C26.5579 60.5254 26.7989 60.6094 26.9519 60.7764C27.1029 60.9434 27.1799 61.1344 27.1799 61.3494C27.1799 61.5064 27.1359 61.6474 27.0469 61.7744C26.9589 61.9014 26.8269 61.9884 26.6519 62.0354C27.0589 62.1344 27.2619 62.3784 27.2619 62.7674C27.2619 63.0004 27.1899 63.2084 27.0459 63.3924C26.9019 63.5764 26.5969 63.6674 26.1269 63.6674H24.6309V63.6684ZM25.5189 61.7304H25.9649C26.0769 61.7304 26.1549 61.7024 26.2019 61.6454C26.2479 61.5884 26.2699 61.5284 26.2699 61.4634C26.2699 61.2884 26.1629 61.2004 25.9479 61.2004H25.5179V61.7304H25.5189ZM25.5189 62.9684H25.9889C26.1049 62.9684 26.1909 62.9404 26.2449 62.8824C26.2999 62.8244 26.3269 62.7594 26.3269 62.6884C26.3269 62.6164 26.3009 62.5494 26.2479 62.4894C26.1939 62.4284 26.0979 62.3984 25.9569 62.3984H25.5189V62.9684Z" fill="white"/>
<path d="M30.4433 60.5273V62.6083C30.4433 63.0033 30.3263 63.2864 30.0913 63.4594C29.8583 63.6324 29.5523 63.7184 29.1773 63.7184C28.7813 63.7184 28.4633 63.6353 28.2233 63.4703C27.9833 63.3043 27.8633 63.0333 27.8633 62.6593V60.5273H28.8433V62.5473C28.8433 62.6963 28.8753 62.8073 28.9383 62.8763C29.0013 62.9443 29.1033 62.9803 29.2433 62.9803C29.3593 62.9803 29.4543 62.9553 29.5283 62.9053C29.6033 62.8553 29.6473 62.7994 29.6623 62.7364C29.6773 62.6734 29.6833 62.5503 29.6833 62.3683V60.5284H30.4433V60.5273Z" fill="white"/>
<path d="M33.8022 60.5273L32.8192 62.3394V63.6703H31.8822V62.3394L30.8242 60.5273H31.8802L32.4312 61.5634L32.9592 60.5273H33.8022Z" fill="white"/>
<path d="M43.4271 73.8334C43.2941 73.8334 43.1601 73.7884 43.0491 73.6954L37.8971 69.3874L36.5951 70.6894C36.4371 70.8484 36.2001 70.9024 35.9891 70.8314C35.7761 70.7594 35.6231 70.5714 35.5931 70.3494L34.7511 63.8964C34.7091 63.5744 34.9371 63.2785 35.2601 63.2355C35.5811 63.1935 35.8791 63.4215 35.9211 63.7445L36.6081 69.0104L37.4451 68.1734C37.6611 67.9574 38.0071 67.9434 38.2401 68.1384L43.8061 72.7924C44.0561 73.0014 44.0891 73.3724 43.8801 73.6224C43.7641 73.7614 43.5961 73.8334 43.4271 73.8334Z" fill="white"/>
<path d="M43.7637 73.7921C43.6257 73.7921 43.4887 73.7451 43.3767 73.6471C43.1307 73.4331 43.1047 73.0611 43.3177 72.8151L44.8887 71.0091L39.7837 66.7391C39.6567 66.6341 39.5807 66.4781 39.5737 66.3131C39.5657 66.1481 39.6287 65.9871 39.7457 65.8701L40.5827 65.0341L35.3157 64.3471C34.9937 64.3041 34.7657 64.0081 34.8077 63.6861C34.8497 63.3631 35.1497 63.1341 35.4687 63.1771L41.9217 64.0191C42.1447 64.0481 42.3307 64.2011 42.4027 64.4141C42.4747 64.6271 42.4207 64.8621 42.2617 65.0201L41.0327 66.2491L46.1047 70.4891C46.2257 70.5911 46.3017 70.7371 46.3147 70.8941C46.3267 71.0521 46.2757 71.2081 46.1707 71.3281L44.2047 73.5891C44.0917 73.7241 43.9277 73.7921 43.7637 73.7921Z" fill="white"/>
</svg>
