<svg width="92" height="101" viewBox="0 0 92 101" fill="none" xmlns="http://www.w3.org/2000/svg">
<path d="M55.3589 74.0514H31.7829C30.1549 74.0514 28.8359 72.6914 28.8359 71.0134V37.8974C28.8359 36.2194 30.1549 34.8594 31.7829 34.8594H55.3589C56.9869 34.8594 58.3059 36.2194 58.3059 37.8974V71.0134C58.3059 72.6914 56.9869 74.0514 55.3589 74.0514Z" fill="#FCB515"/>
<path d="M44.0347 16.5302H31.9307C30.7807 16.5302 29.8477 15.5972 29.8477 14.4472V5.7002C29.8477 4.5502 30.7807 3.61719 31.9307 3.61719H44.0347C45.1847 3.61719 46.1176 4.5492 46.1176 5.7002V14.4472C46.1176 15.5972 45.1847 16.5302 44.0347 16.5302Z" fill="#062C3F"/>
<path d="M57.0501 86.5377H25.7121C25.0411 86.5377 24.4961 85.9937 24.4961 85.3227C24.4961 84.6517 25.0411 84.1077 25.7121 84.1077H57.0501C59.2261 84.1077 60.9961 82.3367 60.9961 80.1607V80.0567C60.9961 77.8797 59.2251 76.1097 57.0501 76.1097H25.7121C25.0411 76.1097 24.4961 75.5657 24.4961 74.8947C24.4961 74.2237 25.0411 73.6797 25.7121 73.6797H57.0501C60.5671 73.6797 63.4271 76.5397 63.4271 80.0567V80.1607C63.4271 83.6767 60.5671 86.5377 57.0501 86.5377Z" fill="#126484"/>
<path d="M60.2438 76.2317C60.1568 76.2317 60.0678 76.2187 59.9798 76.1927C59.4978 76.0467 59.2248 75.5377 59.3708 75.0557L68.0548 46.3347H20.4628L25.9878 75.1477C26.0838 75.6427 25.7588 76.1197 25.2648 76.2147C24.7658 76.3077 24.2918 75.9847 24.1978 75.4907L18.2578 44.5117H70.5098L61.1158 75.5817C60.9968 75.9777 60.6348 76.2317 60.2438 76.2317Z" fill="#126484"/>
<path d="M69.2813 46.3354C69.1793 46.3354 69.0763 46.3174 68.9743 46.2814C68.5003 46.1124 68.2533 45.5914 68.4223 45.1164L72.0213 35.0254H80.5433C81.0473 35.0254 81.4543 35.4334 81.4543 35.9374C81.4543 36.4404 81.0473 36.8484 80.5433 36.8484H73.3063L70.1393 45.7294C70.0063 46.1024 69.6553 46.3354 69.2813 46.3354Z" fill="#126484"/>
<path d="M87.9731 37.457H80.5561C79.7171 37.457 79.0371 36.777 79.0371 35.938C79.0371 35.099 79.7171 34.418 80.5561 34.418H87.9731C88.8121 34.418 89.4921 35.099 89.4921 35.938C89.4921 36.777 88.8121 37.457 87.9731 37.457Z" fill="#126484"/>
<path d="M57.8943 100.873C61.3632 100.873 64.1753 98.0605 64.1753 94.5916C64.1753 91.1227 61.3632 88.3105 57.8943 88.3105C54.4254 88.3105 51.6133 91.1227 51.6133 94.5916C51.6133 98.0605 54.4254 100.873 57.8943 100.873Z" fill="#A6E2F7"/>
<path d="M28.3513 100.873C31.8202 100.873 34.6323 98.0605 34.6323 94.5916C34.6323 91.1227 31.8202 88.3105 28.3513 88.3105C24.8824 88.3105 22.0703 91.1227 22.0703 94.5916C22.0703 98.0605 24.8824 100.873 28.3513 100.873Z" fill="#A6E2F7"/>
<path d="M57.8939 97.5222C59.5126 97.5222 60.8249 96.2099 60.8249 94.5912C60.8249 92.9724 59.5126 91.6602 57.8939 91.6602C56.2751 91.6602 54.9629 92.9724 54.9629 94.5912C54.9629 96.2099 56.2751 97.5222 57.8939 97.5222Z" fill="white"/>
<path d="M28.0482 97.5222C29.6669 97.5222 30.9792 96.2099 30.9792 94.5912C30.9792 92.9724 29.6669 91.6602 28.0482 91.6602C26.4294 91.6602 25.1172 92.9724 25.1172 94.5912C25.1172 96.2099 26.4294 97.5222 28.0482 97.5222Z" fill="white"/>
<path d="M53.9353 75.4783C53.8833 75.4783 53.8313 75.4743 53.7783 75.4643C53.2823 75.3783 52.9503 74.9053 53.0373 74.4103L57.9103 46.3903C57.9963 45.8943 58.4703 45.5623 58.9643 45.6483C59.4603 45.7343 59.7923 46.2063 59.7063 46.7023L54.8333 74.7223C54.7563 75.1653 54.3703 75.4783 53.9353 75.4783Z" fill="#126484"/>
<path d="M47.0829 74.8698C47.0619 74.8698 47.0429 74.8688 47.0219 74.8678C46.5189 74.8348 46.1389 74.4008 46.1719 73.8978L47.9989 46.1828C48.0319 45.6808 48.4659 45.2938 48.9689 45.3328C49.4709 45.3658 49.8519 45.7998 49.8189 46.3028L47.9909 74.0178C47.9599 74.4998 47.5579 74.8698 47.0829 74.8698Z" fill="#126484"/>
<path d="M32.7676 75.4784C32.3266 75.4784 31.9396 75.1584 31.8686 74.7084L27.4526 46.6874C27.3746 46.1904 27.7136 45.7244 28.2116 45.6454C28.7086 45.5694 29.1756 45.9074 29.2536 46.4044L33.6696 74.4244C33.7476 74.9214 33.4086 75.3884 32.9106 75.4674C32.8626 75.4744 32.8146 75.4784 32.7676 75.4784Z" fill="#126484"/>
<path d="M40.076 74.869C39.594 74.869 39.19 74.49 39.167 74.003L37.796 46.287C37.772 45.784 38.159 45.357 38.661 45.332C39.159 45.299 39.592 45.694 39.617 46.197L40.987 73.913C41.012 74.416 40.625 74.843 40.122 74.868C40.106 74.869 40.091 74.869 40.076 74.869Z" fill="#126484"/>
<path d="M66.27 55.9851H22.413C21.91 55.9851 21.502 55.5771 21.502 55.0741C21.502 54.5701 21.91 54.1621 22.413 54.1621H66.27C66.773 54.1621 67.181 54.5701 67.181 55.0741C67.181 55.5771 66.773 55.9851 66.27 55.9851Z" fill="#126484"/>
<path d="M62.6164 65.7312H23.9364C23.4324 65.7312 23.0254 65.3232 23.0254 64.8202C23.0254 64.3162 23.4324 63.9082 23.9364 63.9082H62.6164C63.1194 63.9082 63.5274 64.3162 63.5274 64.8202C63.5274 65.3232 63.1194 65.7312 62.6164 65.7312Z" fill="#126484"/>
<path d="M68.5859 69.4199C73.1875 69.4199 76.9179 65.6895 76.9179 61.0879C76.9179 56.4862 73.1875 52.7559 68.5859 52.7559C63.9843 52.7559 60.2539 56.4862 60.2539 61.0879C60.2539 65.6895 63.9843 69.4199 68.5859 69.4199Z" fill="#062C3F"/>
<path d="M69.5357 56.4746H67.6367V65.7036H69.5357V56.4746Z" fill="white"/>
<path d="M73.2007 60.1387H63.9727V62.0387H73.2007V60.1387Z" fill="white"/>
<path d="M60.0276 35.1622H35.7216C34.0436 35.1622 32.6836 33.8032 32.6836 32.1242V19.3642C32.6836 17.6862 34.0436 16.3262 35.7216 16.3262H60.0276C61.7056 16.3262 63.0656 17.6862 63.0656 19.3642V32.1242C63.0656 33.8022 61.7056 35.1622 60.0276 35.1622Z" fill="#4396CA"/>
<path d="M53.3431 12.6797H53.0391V40.8337H53.3431V12.6797Z" fill="white"/>
<path d="M66.5588 23.7695H25.3418V24.0735H66.5588V23.7695Z" fill="white"/>
<path d="M34.7102 0.123047H34.4062V20.58H34.7102V0.123047Z" fill="white"/>
<path d="M60.3682 39.6699H25.2012V39.9739H60.3682V39.6699Z" fill="white"/>
<path d="M84.2971 55.1507C88.3972 55.1507 91.7211 51.8269 91.7211 47.7267C91.7211 43.6266 88.3972 40.3027 84.2971 40.3027C80.1969 40.3027 76.873 43.6266 76.873 47.7267C76.873 51.8269 80.1969 55.1507 84.2971 55.1507Z" fill="#FFD56C"/>
<path d="M89.7266 48.19C89.7266 48.19 87.6786 51.212 84.1206 51.017C80.8536 50.838 79.0996 48.19 79.0996 48.19C79.0996 48.19 80.5616 44.8761 84.1206 44.7781C88.2636 44.6651 89.7266 48.19 89.7266 48.19Z" fill="white"/>
<path d="M84.5106 50.195C85.7493 50.195 86.7536 49.1908 86.7536 47.952C86.7536 46.7132 85.7493 45.709 84.5106 45.709C83.2718 45.709 82.2676 46.7132 82.2676 47.952C82.2676 49.1908 83.2718 50.195 84.5106 50.195Z" fill="#FFD56C"/>
<path d="M17.8076 42.0821C20.8695 42.0821 23.3517 39.6 23.3517 36.5381C23.3517 33.4763 20.8695 30.9941 17.8076 30.9941C14.7458 30.9941 12.2637 33.4763 12.2637 36.5381C12.2637 39.6 14.7458 42.0821 17.8076 42.0821Z" fill="#062C3F"/>
<path d="M20.894 39.1638H14.86C14.524 39.1638 14.252 38.8928 14.252 38.5568V34.6988C14.252 34.3638 14.524 34.0918 14.86 34.0918H20.894C21.229 34.0918 21.501 34.3638 21.501 34.6988V38.5568C21.502 38.8918 21.229 39.1638 20.894 39.1638ZM15.4669 37.9488H20.285V35.3048H15.4669V37.9488Z" fill="white"/>
<path d="M17.9527 37.3839C18.426 37.3839 18.8097 37.0002 18.8097 36.5269C18.8097 36.0536 18.426 35.6699 17.9527 35.6699C17.4794 35.6699 17.0957 36.0536 17.0957 36.5269C17.0957 37.0002 17.4794 37.3839 17.9527 37.3839Z" fill="white"/>
<path d="M19.5022 35.2251C19.0822 35.2251 18.7422 34.8851 18.7422 34.4651V34.0041C18.7422 33.5841 19.0822 33.2441 19.5022 33.2441C19.9212 33.2441 20.2612 33.5841 20.2612 34.0041V34.4651C20.2602 34.8851 19.9212 35.2251 19.5022 35.2251Z" fill="white"/>
<path d="M71.9274 33.2669C74.4966 33.2669 76.5794 31.1841 76.5794 28.6149C76.5794 26.0457 74.4966 23.9629 71.9274 23.9629C69.3582 23.9629 67.2754 26.0457 67.2754 28.6149C67.2754 31.1841 69.3582 33.2669 71.9274 33.2669Z" fill="#4396CA"/>
<path d="M69.9979 30.957C69.8409 30.957 69.6829 30.895 69.5629 30.773C69.3289 30.533 69.3339 30.148 69.5739 29.914L73.3729 26.209C73.6129 25.976 73.9979 25.98 74.2319 26.22C74.4659 26.46 74.4609 26.845 74.2209 27.079L70.4219 30.784C70.3039 30.9 70.1509 30.957 69.9979 30.957Z" fill="white"/>
<path d="M70.5609 27.9578C71.053 27.9578 71.4519 27.5589 71.4519 27.0668C71.4519 26.5747 71.053 26.1758 70.5609 26.1758C70.0689 26.1758 69.6699 26.5747 69.6699 27.0668C69.6699 27.5589 70.0689 27.9578 70.5609 27.9578Z" fill="white"/>
<path d="M73.4222 30.7234C73.9143 30.7234 74.3132 30.3245 74.3132 29.8324C74.3132 29.3403 73.9143 28.9414 73.4222 28.9414C72.9302 28.9414 72.5312 29.3403 72.5312 29.8324C72.5312 30.3245 72.9302 30.7234 73.4222 30.7234Z" fill="white"/>
<path d="M73.4228 30.2049C73.6282 30.2049 73.7948 30.0384 73.7948 29.8329C73.7948 29.6275 73.6282 29.4609 73.4228 29.4609C73.2173 29.4609 73.0508 29.6275 73.0508 29.8329C73.0508 30.0384 73.2173 30.2049 73.4228 30.2049Z" fill="#4396CA"/>
<path d="M70.5615 27.4393C70.7669 27.4393 70.9334 27.2728 70.9334 27.0673C70.9334 26.8619 70.7669 26.6953 70.5615 26.6953C70.356 26.6953 70.1895 26.8619 70.1895 27.0673C70.1895 27.2728 70.356 27.4393 70.5615 27.4393Z" fill="#4396CA"/>
<path d="M10.4421 75.7144C15.9589 75.7144 20.4311 71.2421 20.4311 65.7253C20.4311 60.2086 15.9589 55.7363 10.4421 55.7363C4.92534 55.7363 0.453125 60.2086 0.453125 65.7253C0.453125 71.2421 4.92534 75.7144 10.4421 75.7144Z" fill="#4396CA"/>
<path d="M14.8288 62.1058C13.3328 61.3018 11.3717 62.3108 10.4557 63.7048C9.54074 62.3108 7.47676 61.3028 5.97976 62.1058C4.39676 62.9568 4.02274 64.6058 4.87374 66.1898C5.72374 67.7728 10.4467 71.6298 10.4557 71.5838C10.4657 71.6308 15.1888 67.7728 16.0388 66.1898C16.8888 64.6058 16.4128 62.9568 14.8288 62.1058Z" fill="white"/>
<path d="M20.8405 29.0014C25.298 29.0014 28.9115 25.3879 28.9115 20.9304C28.9115 16.4729 25.298 12.8594 20.8405 12.8594C16.3831 12.8594 12.7695 16.4729 12.7695 20.9304C12.7695 25.3879 16.3831 29.0014 20.8405 29.0014Z" fill="#FFCB2F"/>
<path d="M20.8402 15.25L22.5582 18.731L26.3992 19.289L23.6202 21.998L24.2752 25.823L20.8402 24.017L17.4052 25.823L18.0612 21.998L15.2832 19.289L19.1232 18.731L20.8402 15.25Z" fill="white"/>
</svg>
