<svg width="487" height="346" viewBox="0 0 487 346" fill="none" xmlns="http://www.w3.org/2000/svg">
<path d="M0 309.679L49.1774 264.146H442.602L485.995 309.679H0Z" fill="#025482"/>
<path d="M436.455 269.33H49.5458C43.1582 269.33 37.9824 263.978 37.9824 257.379V15.157C37.9824 8.55359 43.1582 3.20117 49.5458 3.20117H436.455C442.843 3.20117 448.018 8.55359 448.018 15.157V257.379C448.018 263.978 442.838 269.33 436.455 269.33Z" fill="#062C3F"/>
<path d="M421.439 259.334H64.5542C58.6622 259.334 53.8887 254.56 53.8887 248.668V32.5308C53.8887 26.6387 58.6622 21.8652 64.5542 21.8652H421.439C427.331 21.8652 432.105 26.6387 432.105 32.5308V248.668C432.1 254.56 427.326 259.334 421.439 259.334Z" fill="#4396CA"/>
<path d="M436.704 27.5116C435.124 23.6457 431.361 21.1191 427.186 21.1191H308.374H177.502H60.0041C55.0295 21.1191 50.5552 24.1265 48.6713 28.7332L21.8945 94.2819H163.069H322.792H463.967L436.704 27.5116Z" fill="#FCD26D"/>
<path d="M36.0825 117.988H35.8029C28.125 117.988 21.9043 111.762 21.9043 104.089V94.2871H49.9861V104.089C49.9861 111.762 43.7604 117.988 36.0825 117.988Z" fill="#EFC036"/>
<path d="M94.5731 117.988H94.264C85.8846 117.988 79.0898 111.762 79.0898 104.089V94.2871H109.747V104.089C109.747 111.762 102.957 117.988 94.5731 117.988Z" fill="#EFC036"/>
<path d="M153.316 117.988H152.998C144.265 117.988 137.186 111.762 137.186 104.089V94.2871H169.128V104.089C169.128 111.762 162.049 117.988 153.316 117.988Z" fill="#EFC036"/>
<path d="M212.955 117.988H212.632C203.757 117.988 196.564 111.762 196.564 104.089V94.2871H229.027V104.089C229.022 111.762 221.83 117.988 212.955 117.988Z" fill="#EFC036"/>
<path d="M272.788 117.988H272.469C263.771 117.988 256.721 111.762 256.721 104.089V94.2871H288.536V104.089C288.536 111.762 281.486 117.988 272.788 117.988Z" fill="#EFC036"/>
<path d="M331.654 117.988H331.34C322.642 117.988 315.592 111.762 315.592 104.089V94.2871H347.407V104.089C347.402 111.762 340.352 117.988 331.654 117.988Z" fill="#EFC036"/>
<path d="M391.222 117.988H390.913C382.391 117.988 375.479 111.762 375.479 104.089V94.2871H406.651V104.089C406.651 111.762 399.743 117.988 391.222 117.988Z" fill="#EFC036"/>
<path d="M449.828 117.988H449.538C441.649 117.988 435.252 111.762 435.252 104.089V94.2871H464.104V104.089C464.109 111.762 457.716 117.988 449.828 117.988Z" fill="#EFC036"/>
<path d="M64.6817 117.988H64.3874C56.4299 117.988 49.9785 111.762 49.9785 104.089V94.2871H79.0906V104.089C79.0906 111.762 72.6392 117.988 64.6817 117.988Z" fill="#F4EFE9"/>
<path d="M123.606 117.988H123.332C115.83 117.988 109.752 111.762 109.752 104.089V94.2871H137.191V104.089C137.186 111.762 131.103 117.988 123.606 117.988Z" fill="#F4EFE9"/>
<path d="M183.046 117.988H182.772C175.202 117.988 169.064 111.762 169.064 104.089V94.2871H196.759V104.089C196.754 111.762 190.616 117.988 183.046 117.988Z" fill="#F4EFE9"/>
<path d="M243.073 117.988H242.793C235.223 117.988 229.086 111.762 229.086 104.089V94.2871H256.78V104.089C256.785 111.762 250.643 117.988 243.073 117.988Z" fill="#F4EFE9"/>
<path d="M302.133 117.988H301.863C294.47 117.988 288.475 111.762 288.475 104.089V94.2871H315.526V104.089C315.521 111.762 309.526 117.988 302.133 117.988Z" fill="#F4EFE9"/>
<path d="M361.647 117.988H361.362C353.616 117.988 347.336 111.762 347.336 104.089V94.2871H375.673V104.089C375.678 111.762 369.393 117.988 361.647 117.988Z" fill="#F4EFE9"/>
<path d="M421.163 117.988H420.873C412.989 117.988 406.592 111.762 406.592 104.089V94.2871H435.444V104.089C435.444 111.762 429.051 117.988 421.163 117.988Z" fill="#F4EFE9"/>
<path d="M256.849 11.8438H229.027V130.347H256.849V11.8438Z" fill="white"/>
<path d="M192.805 126.584L165.277 122.552L181.364 5.66211L207.38 8.49776L192.805 126.584Z" fill="white"/>
<path d="M131.051 121.648L104.107 114.716L135.771 0L157.671 6.95176L131.051 121.648Z" fill="white"/>
<path d="M292.613 126.589L320.14 122.556L300.899 5.14648L277.453 9.01729L292.613 126.589Z" fill="white"/>
<path d="M415.725 121.217L441.849 111.64L401.061 0.373047L377.414 9.27247L415.725 121.217Z" fill="white"/>
<path d="M69.8645 121.217L43.7402 111.64L84.5236 0.373047L108.175 9.27247L69.8645 121.217Z" fill="white"/>
<path d="M354.375 121.651L381.323 114.719L349.596 0.517578L324.865 6.87571L354.375 121.651Z" fill="white"/>
<path d="M243 15.3613C245.398 15.3613 247.342 13.4174 247.342 11.0195C247.342 8.62162 245.398 6.67773 243 6.67773C240.602 6.67773 238.658 8.62162 238.658 11.0195C238.658 13.4174 240.602 15.3613 243 15.3613Z" fill="#025482"/>
<path d="M220.634 223.955H264.675C270.091 223.955 274.497 219.549 274.497 214.133V213.986C274.497 208.57 270.091 204.164 264.675 204.164H220.634C219.216 204.164 218.068 205.312 218.068 206.73C218.068 208.148 219.216 209.296 220.634 209.296H264.675C267.256 209.296 269.36 211.395 269.36 213.981V214.128C269.36 216.714 267.256 218.818 264.675 218.818H220.634C219.216 218.818 218.068 219.966 218.068 221.384C218.068 222.802 219.216 223.955 220.634 223.955Z" fill="white"/>
<path d="M269.161 209.258C269.985 209.258 270.751 208.724 271.001 207.89L284.453 163.393H209.367L217.864 207.693C218.065 208.738 219.076 209.425 220.116 209.224C221.161 209.023 221.848 208.012 221.647 206.972L214.028 167.249H279.263L267.312 206.781C267.003 207.801 267.581 208.876 268.597 209.18C268.783 209.234 268.975 209.258 269.161 209.258Z" fill="white"/>
<path d="M281.857 167.243C282.647 167.243 283.393 166.748 283.673 165.963L287.97 153.909H297.684C298.749 153.909 299.612 153.045 299.612 151.981C299.612 150.916 298.754 150.053 297.684 150.053H285.252L280.042 164.663C279.684 165.664 280.209 166.767 281.21 167.126C281.426 167.204 281.642 167.243 281.857 167.243Z" fill="white"/>
<path d="M297.703 155.196H308.123C309.899 155.196 311.336 153.764 311.336 151.988C311.336 150.217 309.899 148.779 308.123 148.779H297.703C295.932 148.779 294.494 150.217 294.494 151.988C294.494 153.759 295.932 155.196 297.703 155.196Z" fill="white"/>
<path d="M265.853 243.24C270.728 243.24 274.679 239.288 274.679 234.414C274.679 229.539 270.728 225.588 265.853 225.588C260.979 225.588 257.027 229.539 257.027 234.414C257.027 239.288 260.979 243.24 265.853 243.24Z" fill="white"/>
<path d="M224.345 243.24C229.22 243.24 233.171 239.288 233.171 234.414C233.171 229.539 229.22 225.588 224.345 225.588C219.471 225.588 215.52 229.539 215.52 234.414C215.52 239.288 219.471 243.24 224.345 243.24Z" fill="white"/>
<path d="M265.853 238.535C268.129 238.535 269.974 236.69 269.974 234.414C269.974 232.138 268.129 230.293 265.853 230.293C263.578 230.293 261.732 232.138 261.732 234.414C261.732 236.69 263.578 238.535 265.853 238.535Z" fill="#4396CA"/>
<path d="M223.914 238.535C226.19 238.535 228.035 236.69 228.035 234.414C228.035 232.138 226.19 230.293 223.914 230.293C221.638 230.293 219.793 232.138 219.793 234.414C219.793 236.69 221.638 238.535 223.914 238.535Z" fill="#4396CA"/>
<path d="M260.296 208.203C261.214 208.203 262.028 207.541 262.19 206.604L269.039 167.229C269.22 166.179 268.524 165.183 267.474 165.001C266.429 164.82 265.428 165.521 265.246 166.571L258.398 205.946C258.216 206.991 258.918 207.992 259.968 208.174C260.076 208.193 260.183 208.203 260.296 208.203Z" fill="white"/>
<path d="M250.663 207.34C251.668 207.34 252.517 206.56 252.586 205.54L255.152 166.591C255.22 165.532 254.416 164.614 253.356 164.546C252.296 164.472 251.379 165.282 251.31 166.341L248.744 205.29C248.676 206.349 249.475 207.267 250.54 207.336C250.574 207.34 250.618 207.34 250.663 207.34Z" fill="white"/>
<path d="M230.537 208.197C230.64 208.197 230.738 208.193 230.841 208.178C231.891 208.011 232.607 207.025 232.445 205.975L226.239 166.6C226.072 165.55 225.086 164.834 224.036 164.995C222.987 165.162 222.265 166.148 222.432 167.198L228.638 206.578C228.79 207.52 229.61 208.197 230.537 208.197Z" fill="white"/>
<path d="M240.816 207.344C240.846 207.344 240.88 207.344 240.914 207.344C241.974 207.29 242.793 206.387 242.744 205.322L240.816 166.374C240.762 165.309 239.845 164.485 238.795 164.544C237.73 164.598 236.916 165.501 236.965 166.56L238.893 205.509C238.947 206.544 239.796 207.344 240.816 207.344Z" fill="white"/>
<path d="M215.99 180.807H277.624C278.689 180.807 279.552 179.944 279.552 178.879C279.552 177.815 278.689 176.951 277.624 176.951H215.99C214.926 176.951 214.062 177.815 214.062 178.879C214.062 179.944 214.921 180.807 215.99 180.807Z" fill="white"/>
<path d="M218.137 194.499H272.495C273.56 194.499 274.423 193.635 274.423 192.571C274.423 191.506 273.56 190.643 272.495 190.643H218.137C217.072 190.643 216.209 191.501 216.209 192.571C216.209 193.635 217.072 194.499 218.137 194.499Z" fill="white"/>
<path d="M461.097 345.891H24.9125C11.1611 345.891 0.00976562 334.744 0.00976562 320.988V309.67H486.005V320.988C486 334.744 474.849 345.891 461.097 345.891Z" fill="#062C3F"/>
<path d="M159.108 269.202C159.108 271.601 157.165 273.544 154.771 273.544H105.594C103.195 273.544 101.252 271.601 101.252 269.202C101.252 266.808 103.195 264.865 105.594 264.865H154.771C157.165 264.86 159.108 266.803 159.108 269.202Z" fill="#03436B"/>
<path d="M391.974 269.202C391.974 271.601 390.031 273.544 387.632 273.544H338.455C336.056 273.544 334.113 271.601 334.113 269.202C334.113 266.808 336.056 264.865 338.455 264.865H387.632C390.031 264.86 391.974 266.803 391.974 269.202Z" fill="#03436B"/>
<path d="M185.871 303.16L202.031 288.197H285.874L300.136 303.16H185.871Z" fill="#4396CA"/>
<path d="M257.455 278.998H230.35V280.445H257.455V278.998Z" fill="white"/>
<path d="M62.9217 298.439H32.5488V299.887H62.9217V298.439Z" fill="white"/>
<path d="M85.3438 278.998H58.2383V280.445H85.3438V278.998Z" fill="white"/>
<path d="M73.7676 287.871H46.6621V289.318H73.7676V287.871Z" fill="white"/>
<path d="M138.131 278.998H111.025V280.445H138.131V278.998Z" fill="white"/>
<path d="M124.391 287.871H97.2852V289.318H124.391V287.871Z" fill="white"/>
<path d="M160.553 298.439H130.18V299.887H160.553V298.439Z" fill="white"/>
<path d="M189.48 278.998H162.375V280.445H189.48V278.998Z" fill="white"/>
<path d="M175.74 287.871H148.635V289.318H175.74V287.871Z" fill="white"/>
<path d="M112.096 300.605H81.7227V302.053H112.096V300.605Z" fill="white"/>
<path d="M458.513 298.439H428.141V299.887H458.513V298.439Z" fill="white"/>
<path d="M432.826 278.998H405.721V280.445H432.826V278.998Z" fill="white"/>
<path d="M444.4 287.871H417.295V289.318H444.4V287.871Z" fill="white"/>
<path d="M380.029 278.998H352.924V280.445H380.029V278.998Z" fill="white"/>
<path d="M393.77 287.871H366.664V289.318H393.77V287.871Z" fill="white"/>
<path d="M360.875 298.439H330.502V299.887H360.875V298.439Z" fill="white"/>
<path d="M328.68 278.998H301.574V280.445H328.68V278.998Z" fill="white"/>
<path d="M342.42 287.871H315.314V289.318H342.42V287.871Z" fill="white"/>
<path d="M409.33 300.605H378.957V302.053H409.33V300.605Z" fill="white"/>
</svg>
